<svg width="98" height="97" viewBox="0 0 98 97" fill="none" xmlns="http://www.w3.org/2000/svg">
<path d="M62.7488 16.5709C67.2525 18.6234 71.4016 21.6327 74.9524 25.6083C84.4953 36.2231 87.9299 52.224 80.8539 64.6856C69.5988 84.4425 42.6243 90.9674 24.9127 74.4498C21.2996 71.0329 18.3079 67.0117 16.2391 62.5198C12.2448 53.482 12.1025 43.1596 15.9595 34.2561C19.8805 25.205 27.7171 18.1805 37.2262 15.1794C45.9189 12.4032 54.8764 13.0271 62.7488 16.5709Z" stroke="white" stroke-width="2" stroke-miterlimit="10" stroke-linecap="round" stroke-linejoin="round"/>
<path d="M16.2934 62.9538C10.5795 50.6862 77.2112 21.0578 80.6408 33.3932" stroke="white" stroke-width="2" stroke-miterlimit="10" stroke-linecap="round" stroke-linejoin="round"/>
<path d="M65.6552 79.195C63.1504 77.3306 26.6748 58.9052 31.4901 17.899" stroke="white" stroke-width="2" stroke-miterlimit="10" stroke-linecap="round" stroke-linejoin="round"/>
<path d="M82.4642 52.9087C71.6428 54.9903 59.2696 52.8998 50.0032 46.8374C42.0437 41.5829 39.6121 33.059 43.9027 24.6299C46.3158 19.9402 50.1386 15.6889 55.7032 15.0411" stroke="white" stroke-width="2" stroke-miterlimit="10" stroke-linecap="round" stroke-linejoin="round"/>
<path d="M27.0055 75.8708C30.5763 70.9765 33.6626 62.3174 31.7968 56.291C29.7631 49.836 21.2686 43.6371 14.2598 44.6014" stroke="white" stroke-width="2" stroke-miterlimit="10" stroke-linecap="round" stroke-linejoin="round"/>
</svg>
