<svg width="112" height="111" viewBox="0 0 112 111" fill="none" xmlns="http://www.w3.org/2000/svg">
<path d="M84.4841 90.0776C77.6256 85.2507 76.6796 76.694 77.1526 69.2343C77.8621 58.4835 78.8081 45.7581 73.6052 35.6656C70.5307 29.5223 64.8547 25.1342 57.7597 23.5984C40.4953 19.8685 25.8324 34.1298 20.8659 47.9522C18.2644 54.9731 17.5549 62.4328 15.4264 69.4537C13.0614 76.9134 7.38547 81.9596 1 86.7865" stroke="#FF798A" stroke-width="2" stroke-miterlimit="10" stroke-linecap="round"/>
<path d="M78.5703 22.7207C85.1923 28.2058 89.2128 36.5431 89.2128 44.6611" stroke="#FF798A" stroke-width="2" stroke-miterlimit="10" stroke-linecap="round"/>
<path d="M28.4331 16.1387C23.4666 20.0879 18.7366 24.476 14.2432 29.0834" stroke="#FF798A" stroke-width="2" stroke-miterlimit="10" stroke-linecap="round"/>
<path d="M52.5558 20.3074C51.1368 17.894 49.7178 15.0417 49.7178 12.1895C49.7178 9.33721 51.6098 6.26555 54.6842 5.82674C57.2857 5.38793 60.1237 6.70436 61.5427 8.67899C62.9617 10.6536 63.1982 13.5059 62.4887 15.9193C61.7792 18.3328 60.8332 20.5268 59.6507 22.7209" stroke="#FF798A" stroke-width="2" stroke-miterlimit="10" stroke-linecap="round"/>
<path d="M3.83887 90.0781C16.8463 99.5125 34.5837 100.609 51.1387 101.048C61.3081 101.487 71.2411 101.707 81.4105 100.609C83.066 100.39 85.1945 99.7319 85.1945 98.1961" stroke="#FF798A" stroke-width="2" stroke-miterlimit="10" stroke-linecap="round"/>
<path d="M32.9277 102.363C34.3467 106.093 38.1307 109.165 42.3877 109.823C46.6447 110.481 51.3747 109.165 54.2126 106.093" stroke="#FF798A" stroke-width="2" stroke-miterlimit="10" stroke-linecap="round"/>
<path d="M25.8315 1C16.1351 6.70446 7.85761 14.603 2.18164 23.8179" stroke="#FF798A" stroke-width="2" stroke-miterlimit="10" stroke-linecap="round"/>
<path d="M79.5186 8.67871C98.675 16.7966 111.682 36.1041 110.973 55.8503" stroke="#FF798A" stroke-width="2" stroke-miterlimit="10" stroke-linecap="round"/>
<path d="M37.8921 36.5443C34.3446 38.7383 31.9796 42.4681 31.2701 46.1979C31.0336 47.2949 31.0336 48.3919 31.2701 49.2695C33.3986 55.1933 40.2571 47.9531 42.1491 45.5397C43.3316 44.0039 46.8791 32.8144 42.1491 34.1308" stroke="#FF798A" stroke-width="2" stroke-miterlimit="10" stroke-linecap="round"/>
</svg>
