<svg width="85" height="92" viewBox="0 0 85 92" fill="none" xmlns="http://www.w3.org/2000/svg">
<path d="M61.263 76.5C62.063 77.5 62.063 78.9 61.863 80.1C61.063 85.4 57.063 89.2 51.663 89.2C46.963 89.2 43.663 86.7 40.563 83.4C39.063 81.8 37.863 80.3 37.463 78.1C36.463 72.6 38.863 66.1 36.163 61C35.663 60 35.063 59.1 34.863 58C34.563 56.2 35.563 55.4 36.663 54.2C37.863 52.8 38.363 51 38.363 49.1C38.363 45.3 37.763 41.6 37.063 37.9C36.663 35.9 36.263 33.5 37.163 31.6C38.063 29.6 38.963 27.8 39.663 25.7C40.063 24.4 40.663 23.1 41.463 22C44.463 17.9 51.363 17.1 55.863 18.3C61.063 19.6 66.163 23.4 66.863 29C67.063 30.8 65.463 32.3 64.163 33.6" stroke="#FFFFFF" stroke-width="2" stroke-miterlimit="10" stroke-linecap="round"/>
<path d="M64.7627 33.2C67.9627 34.9 71.6627 36.5999 73.8627 39.5999C76.3627 42.9999 77.5627 47.5999 77.5627 51.7999" stroke="#FFFFFF" stroke-width="2" stroke-miterlimit="10" stroke-linecap="round"/>
<path d="M39.563 84.6001C37.563 87.8001 33.863 89.5001 30.163 89.9001C25.563 90.4001 17.863 90.8001 14.863 86.4001C12.863 83.5001 13.663 79.4001 15.463 76.6001" stroke="#FFFFFF" stroke-width="2" stroke-miterlimit="10" stroke-linecap="round"/>
<path d="M11.363 80.4C7.76303 78.2 4.86303 74.4999 4.16303 70.1999C3.36303 65.2999 6.56303 61.9 9.66303 58.7" stroke="#FFFFFF" stroke-width="2" stroke-miterlimit="10" stroke-linecap="round"/>
<path d="M4.86264 59.2C1.46264 56.8 0.762643 52.2 1.06264 48.4C1.36264 43.9 2.66264 40.1 7.36264 38.7C6.96264 38.8 5.66264 36.1 5.56264 35.8C5.16264 34.6 5.26264 33.3 5.56264 32.1C6.26264 29.5 7.86264 26.9 9.86264 25.1C12.9626 22.3 17.0626 20.4 21.0626 19.5C25.0626 18.5 29.4626 18.3 33.3626 19.8C35.1626 20.5 37.0626 21.9 37.4626 23.8" stroke="#FFFFFF" stroke-width="2" stroke-miterlimit="10" stroke-linecap="round"/>
<path d="M63.4629 82.3C66.3629 81.1 68.8629 79 70.6629 76.5C72.0629 74.5 73.1629 72.2 74.2629 70C75.3629 67.8 76.5629 65.7 76.5629 63.2C76.6629 60.4 75.4629 57.6 74.4629 55" stroke="#FFFFFF" stroke-width="2" stroke-miterlimit="10" stroke-linecap="round"/>
<path d="M27.763 24.7C26.663 26.4 26.163 28.5 26.363 30.6C26.563 32.6 27.563 34.6 29.063 36" stroke="#FFFFFF" stroke-width="2" stroke-miterlimit="10" stroke-linecap="round"/>
<path d="M14.7627 38.2C16.4627 38.8 17.7627 40.3 18.3627 42C18.9627 43.7 18.8627 45.5999 18.2627 47.2999" stroke="#FFFFFF" stroke-width="2" stroke-miterlimit="10" stroke-linecap="round"/>
<path d="M25.6629 48.9999C25.3629 48.5999 25.6629 47.9999 26.0629 47.4999C26.8629 46.4999 27.7629 45.5999 28.9629 45.1999C30.1629 44.6999 31.5629 44.7999 32.4629 45.5999" stroke="#FFFFFF" stroke-width="2" stroke-miterlimit="10" stroke-linecap="round"/>
<path d="M15.8628 60.1001C18.2628 61.0001 19.9628 63.2001 20.7628 65.6001C21.4628 68.0001 21.3628 70.6001 20.7628 73.1001" stroke="#FFFFFF" stroke-width="2" stroke-miterlimit="10" stroke-linecap="round"/>
<path d="M26.9626 81.2001C26.8626 79.3001 25.9626 77.4001 26.9626 75.6001C27.8626 73.9001 30.4626 72.8001 32.2626 72.6001" stroke="#FFFFFF" stroke-width="2" stroke-miterlimit="10" stroke-linecap="round"/>
<path d="M44.3628 76.3C45.5628 73.7 48.4628 72 51.3628 72.2" stroke="#FFFFFF" stroke-width="2" stroke-miterlimit="10" stroke-linecap="round"/>
<path d="M42.4629 55.5C44.7629 57.6 46.0629 60.9 45.7629 64" stroke="#FFFFFF" stroke-width="2" stroke-miterlimit="10" stroke-linecap="round"/>
<path d="M61.063 66.0999C61.363 64.7999 61.963 63.5999 62.863 62.5999C63.763 61.5999 65.063 60.9999 66.363 61.0999" stroke="#FFFFFF" stroke-width="2" stroke-miterlimit="10" stroke-linecap="round"/>
<path d="M59.3628 44.8C62.4628 45.2 65.4628 46.8001 67.4628 49.2001" stroke="#FFFFFF" stroke-width="2" stroke-miterlimit="10" stroke-linecap="round"/>
<path d="M46.063 36.8999C47.363 37.0999 48.163 38.3999 48.763 39.5999C49.663 41.4999 50.463 43.3999 50.363 45.4999" stroke="#FFFFFF" stroke-width="2" stroke-miterlimit="10" stroke-linecap="round"/>
<path d="M55.3631 24.8999C54.3631 25.0999 53.6631 26.0999 53.2631 27.0999C52.5631 28.4999 52.2631 30.0999 52.1631 31.6999C52.1631 32.8999 52.3631 34.2999 53.2631 35.0999" stroke="#FFFFFF" stroke-width="2" stroke-miterlimit="10" stroke-linecap="round"/>
<path d="M83.2629 15.3C80.9629 17.2 78.7629 19.2 76.4629 21.1C77.6629 21.3 78.8629 21.7 79.8629 22.3C78.3629 23.9 76.6629 25.3 74.9629 26.6" stroke="#FFFFFF" stroke-width="2" stroke-miterlimit="10" stroke-linecap="round"/>
<path d="M58.6628 1C56.8628 2.6 55.1628 4.2 53.3628 5.9C55.1628 5.9 56.9628 5.9 58.6628 5.9C57.0628 7.4 55.5628 9.1 54.1628 10.8" stroke="#FFFFFF" stroke-width="2" stroke-miterlimit="10" stroke-linecap="round"/>
<path d="M24.9629 2.30005C24.6629 4.00005 24.2629 5.70005 23.9629 7.50005C24.8629 6.80005 25.8629 6.30005 26.9629 5.90005C26.7629 7.60005 26.9629 9.30005 27.3629 11" stroke="#FFFFFF" stroke-width="2" stroke-miterlimit="10" stroke-linecap="round"/>
<path d="M6.3627 7.69995C6.2627 9.49995 6.3627 11.4 6.6627 13.2C7.1627 12.5 8.1627 12 9.0627 12C9.2627 13.7 9.3627 15.4 9.5627 17.1" stroke="#FFFFFF" stroke-width="2" stroke-miterlimit="10" stroke-linecap="round"/>
</svg>
