<svg width="98" height="99" viewBox="0 0 98 99" fill="none" xmlns="http://www.w3.org/2000/svg">
<path d="M28.8126 28.6666C25.8473 32.224 23.3221 32.8536 20.3567 36.4111C18.898 38.165 17.4393 39.919 15.9806 41.6729C15.1677 42.6609 13.8882 43.4383 13.7393 44.7793C13.3781 48.0707 18.6753 47.0017 20.4493 46.6533C24.7268 45.846 29.0555 45.1838 33.357 44.3517C40.3563 43.0086 47.3261 41.3497 54.1944 39.4493C57.641 38.5111 61.1858 37.6197 64.5054 36.3674C68.5762 34.8339 73.4315 30.561 73.1114 25.8463C72.5751 16.8044 71.9678 16.937 64.361 12.3784C57.0499 8.00905 48.5797 8.84344 44.7575 13.6817C43.5393 15.2366 42.2229 16.7447 40.9313 18.2766C37.3201 22.6 32.423 24.2945 28.8126 28.6666Z" stroke="white" stroke-width="2" stroke-miterlimit="10" stroke-linecap="round" stroke-linejoin="round"/>
<path d="M49.0448 72.218C55.9305 71.3879 70.5018 69.4456 75.4058 65.1718C79.0359 62.016 79.2689 56.829 79.27 52.3762C79.253 46.8044 75.7863 25.406 72.1179 18.6593" stroke="white" stroke-width="2" stroke-miterlimit="10" stroke-linecap="round" stroke-linejoin="round"/>
<path d="M16.7747 65.1391C16.8726 66.6702 16.9929 68.0793 17.0613 69.2946C17.2174 71.4087 16.8173 73.8004 18.6707 75.3485C20.3013 76.6816 24.15 74.9818 25.9471 74.56C30.2703 73.5573 35.7024 73.2888 40.8164 72.953" stroke="white" stroke-width="2" stroke-miterlimit="10" stroke-linecap="round" stroke-linejoin="round"/>
<path d="M14.4265 46.5412C15.3079 49.7863 15.8757 54.7406 16.2941 59.5029" stroke="white" stroke-width="2" stroke-miterlimit="10" stroke-linecap="round" stroke-linejoin="round"/>
<path d="M27.2452 59.8127C28.2249 60.087 29.2966 60.0189 30.1407 59.444C30.9847 58.8691 31.4549 57.7899 31.1954 56.8212C31.0413 56.3373 30.7417 55.9047 30.4182 55.4969C29.7966 54.7538 29.151 54.0355 28.3624 53.5144C27.5242 52.9455 25.7326 52.2236 24.8701 53.1639C24.2953 53.8069 23.7948 54.5216 23.662 55.3514C23.2811 57.4266 25.4815 59.3092 27.2452 59.8127Z" stroke="white" stroke-width="2" stroke-miterlimit="10" stroke-linecap="round" stroke-linejoin="round"/>
<path d="M53.4142 54.4546C50.6411 54.8454 48.0912 53.9668 48.4788 50.7963C48.8216 47.87 53.2517 48.9336 54.9009 49.9015C55.3196 50.1616 55.7391 50.4704 55.9899 50.9039C56.4164 51.6505 56.2132 52.6519 55.6632 53.3189C55.1133 53.9858 54.2413 54.3423 53.4142 54.4546Z" stroke="white" stroke-width="2" stroke-miterlimit="10" stroke-linecap="round" stroke-linejoin="round"/>
<path d="M40.8157 72.9545C38.8205 71.7008 40.0801 68.1738 41.5739 67.076C44.1293 65.2777 48.083 67.0313 49.1029 69.7871C49.3576 70.4639 49.4677 71.2406 49.3325 71.9245" stroke="white" stroke-width="2" stroke-miterlimit="10" stroke-linecap="round" stroke-linejoin="round"/>
<path d="M68.4614 59.3398C69.1879 59.0346 69.7139 58.3924 70.1424 57.752C70.3327 57.4565 70.499 57.1858 70.567 56.8682C70.6574 56.4286 70.5289 56.0172 70.3515 55.6067C69.8963 54.5929 69.0773 53.7074 68.0705 53.2632C67.7021 53.0995 67.3105 53.0093 66.9213 53.065C62.9053 53.5026 64.0519 61.0742 68.4614 59.3398Z" stroke="white" stroke-width="2" stroke-miterlimit="10" stroke-linecap="round" stroke-linejoin="round"/>
<path d="M32.382 68.4084C31.9421 69.8524 30.1359 69.739 29.3393 68.7312C28.4676 67.6029 29.029 66.1324 30.5954 66.4935C31.1828 66.6289 31.7022 67.082 32.1241 67.5368C32.248 67.6563 32.3726 67.8244 32.4237 67.9695C32.4748 68.1146 32.4284 68.2615 32.382 68.4084Z" stroke="white" stroke-width="2" stroke-miterlimit="10" stroke-linecap="round" stroke-linejoin="round"/>
<path d="M69.5571 36.7383C70.4322 36.5765 71.3871 36.8269 72.1029 37.3737C72.2268 37.4932 72.3506 37.6126 72.3777 37.7825C72.4041 37.9037 72.3329 38.0266 72.2618 38.1496C71.906 38.7645 71.3297 39.3103 70.6256 39.4934C69.9208 39.6278 69.0874 39.3508 68.7839 38.6749C68.5052 38.0228 68.9049 37.1152 69.6346 37.0046" stroke="white" stroke-width="2" stroke-miterlimit="10" stroke-linecap="round" stroke-linejoin="round"/>
<path d="M16.7518 65.1651C17.8019 65.2678 18.8698 64.9564 19.638 64.2124C19.9745 63.9142 20.236 63.4958 20.3264 63.056C20.4168 62.6163 20.2635 62.181 20.0862 61.7704C19.4799 60.4671 18.1231 59.4938 16.6597 59.4716C16.5622 59.4733 16.4647 59.4751 16.3432 59.5016" stroke="white" stroke-width="2" stroke-miterlimit="10" stroke-linecap="round" stroke-linejoin="round"/>
</svg>
