<svg width="171" height="143" viewBox="0 0 171 143" fill="none" xmlns="http://www.w3.org/2000/svg">
<path d="M49.9361 67.2518C48.5923 69.824 46.6375 72.0163 44.0717 73.8289C37.2903 78.6393 27.3574 79.4714 19.8168 74.2692C7.87786 66.0091 4.36913 49.3593 14.9159 40.1077C17.102 38.217 19.6446 36.7474 22.4866 35.8876C28.1705 34.1682 34.5618 34.9078 39.9401 37.9266C45.4626 41.0018 49.6115 46.2151 51.3023 52.0863C52.872 57.558 52.3227 62.8346 49.9361 67.2518Z" stroke="#FF6072" stroke-width="2" stroke-miterlimit="10" stroke-linecap="round" stroke-linejoin="round"/>
<path d="M98.7916 94.9733C97.4478 97.5455 95.493 99.7378 92.9272 101.55C86.1458 106.361 76.2129 107.193 68.6723 101.991C56.7333 93.7306 53.2246 77.0808 63.7713 67.8293C65.9575 65.9387 68.5001 64.469 71.3421 63.6093C77.026 61.8898 83.4172 62.6295 88.7955 65.6483C94.3181 68.7235 98.467 73.9368 100.158 79.8079C101.747 85.2167 101.178 90.5562 98.7916 94.9733Z" stroke="#FF6072" stroke-width="2" stroke-miterlimit="10" stroke-linecap="round" stroke-linejoin="round"/>
<path d="M49.026 64.864C54.1332 63.4858 61.1774 64.1953 63.1512 71.6946" stroke="#FF6072" stroke-width="2" stroke-miterlimit="10" stroke-linecap="round" stroke-linejoin="round"/>
<path d="M50.4646 60.8957C56.3613 60.1545 62.5724 60.8272 65.5519 68.7615" stroke="#FF6072" stroke-width="2" stroke-miterlimit="10" stroke-linecap="round" stroke-linejoin="round"/>
<path d="M99.5007 84.7352C100.98 85.7161 102.755 85.7554 104.203 85.1087C106.653 83.9977 109.281 83.3057 111.81 82.4355C114.607 81.4559 117.384 80.5391 120.181 79.5594C124.634 78.0119 129.088 76.4644 133.61 74.9431C135.534 74.2657 137.439 73.651 139.293 72.9474C139.72 72.8276 140.166 72.6452 140.593 72.5254C145.224 70.9049 151.107 71.233 155.623 73.4326C159.066 75.0863 161.598 77.6596 162.82 80.9322C163.774 83.3305 164.262 85.974 164.403 88.9781C164.433 90.1138 163.452 91.0072 162.192 90.8116C161.001 90.6424 160.137 89.6834 160.087 88.6105C159.966 86.0355 159.568 83.8474 158.773 81.9309C157.968 79.7997 156.32 78.1226 154.018 77.0411C150.644 75.4137 146.13 75.1818 142.48 76.4009C140.219 77.1615 137.938 77.9849 135.676 78.7456C130.975 80.3398 126.254 81.9968 121.622 83.6174C117.437 85.0554 113.321 86.5197 109.155 87.895C105.843 89.0308 102.322 91.0717 98.5906 88.6065" stroke="#FF6072" stroke-width="2" stroke-miterlimit="10" stroke-linecap="round" stroke-linejoin="round"/>
<path d="M18.1152 35.7007C17.8596 35.2637 17.8499 34.7858 18.0491 34.3883C18.6695 32.8659 20.9575 33.2722 22.6929 33.195C24.6556 33.1374 26.7065 33.0461 28.7389 33.0154C32.7341 32.9271 36.7989 32.8657 40.7614 32.6294C46.826 32.3892 52.4587 31.7796 58.3046 30.9812C63.5196 30.2108 69.2175 29.8972 74.7278 32.4918C77.527 33.7722 79.5471 35.5656 80.737 37.7846C81.7735 39.7413 82.4901 41.9814 82.7986 44.5386C82.9388 45.6085 84.0952 46.6631 85.4921 46.9297C86.9772 47.1625 88.0577 46.4268 87.9361 45.2963C87.5297 42.295 86.7152 39.6109 85.4416 37.1565C83.6568 33.828 80.5499 31.0068 76.3952 29.0694C71.3538 26.723 65.4831 25.8186 60.5837 26.5749C54.7192 27.4339 48.8547 28.293 42.8228 28.6812C36.9486 29.0624 31.0929 29.383 25.2372 29.7036C21.1169 29.9469 14.4116 29.7373 13.919 34.1537C13.7719 35.655 14.2188 37.2494 15.0182 38.7085" stroke="#FF6072" stroke-width="2" stroke-miterlimit="10" stroke-linecap="round" stroke-linejoin="round"/>
<path d="M34.7682 39.4992C31.0041 38.4286 27.0337 38.7459 23.8743 40.4161" stroke="#FF6072" stroke-width="2" stroke-miterlimit="10" stroke-linecap="round" stroke-linejoin="round"/>
<path d="M82.4807 67.3364C79.6436 66.547 76.6694 66.6785 74.1195 67.6643" stroke="#FF6072" stroke-width="2" stroke-miterlimit="10" stroke-linecap="round" stroke-linejoin="round"/>
<path d="M23.5541 73.0321C25.7807 74.3679 28.573 74.6503 30.9177 74.1296C33.2624 73.6088 35.3881 72.3009 37.0465 70.7458" stroke="#FF6072" stroke-width="2" stroke-miterlimit="10" stroke-linecap="round" stroke-linejoin="round"/>
<path d="M72.1698 99.5434C74.8197 101.248 78.203 101.615 81.0598 100.938C83.9663 100.351 86.4654 98.837 88.776 97.1812" stroke="#FF6072" stroke-width="2" stroke-miterlimit="10" stroke-linecap="round" stroke-linejoin="round"/>
</svg>
