<svg width="79" height="76" viewBox="0 0 79 76" fill="none" xmlns="http://www.w3.org/2000/svg">
<path d="M67.9678 35.871C69.0086 57.0442 44.5259 70.1269 34.4999 75C24.4738 70.1269 -0.00857711 57.0442 1.03218 35.871C2.30007 10.0768 34.5 18.8233 34.5 40.0326C34.5 18.8233 66.6999 10.0768 67.9678 35.871Z" stroke="white" stroke-width="2" stroke-linecap="round" stroke-linejoin="round"/>
<path d="M10.7239 26.375C8.30343 26.8473 6.74805 28.673 6.74805 31.2545" stroke="white" stroke-width="2" stroke-linecap="round" stroke-linejoin="round"/>
<path d="M65.5982 15.4654C68.5693 10.5846 71.4939 5.8373 74.375 1" stroke="white" stroke-width="2" stroke-miterlimit="10" stroke-linecap="round" stroke-linejoin="round"/>
<path d="M59.8809 4.56641C60.2464 7.38888 60.4784 10.1649 60.4403 13.0715" stroke="white" stroke-width="2" stroke-miterlimit="10" stroke-linecap="round" stroke-linejoin="round"/>
<path d="M75.0107 13.7969C73.2392 15.8757 71.4242 17.8646 69.3884 19.6269" stroke="white" stroke-width="2" stroke-miterlimit="10" stroke-linecap="round" stroke-linejoin="round"/>
</svg>
