<svg width="87" height="106" viewBox="0 0 87 106" fill="none" xmlns="http://www.w3.org/2000/svg">
<path d="M27.3065 67.4684C27.0782 67.4684 27.3065 66.8358 27.5348 67.0467C27.7632 67.2576 27.9915 67.4684 27.9915 67.6793C28.9049 74.6384 29.3615 85.1825 28.9049 92.1416L64.2973 92.5634C63.3839 83.7064 62.6989 71.4752 61.7855 62.6182" stroke="#FFFFFF" stroke-width="2" stroke-miterlimit="10" stroke-linecap="round"/>
<path d="M64.0683 66.4137C80.9654 59.0328 91.9257 37.9446 82.5638 21.9175C73.8869 6.94484 52.423 -1.06869 34.6126 1.4619C16.3455 4.20337 4.92857 18.3325 1.50349 34.3596C-1.92159 49.9649 12.6921 66.6246 28.2191 70.8422" stroke="#FFFFFF" stroke-width="2" stroke-miterlimit="10" stroke-linecap="round"/>
<path d="M32.7865 56.7125C31.4165 53.1275 30.7315 49.3316 30.7315 45.5357C30.7315 42.1615 31.6448 39.2092 30.7315 35.8351C29.8181 32.0392 22.5113 21.7059 19.0862 29.7194C17.7162 33.0936 22.5113 38.5765 26.1647 39.2092C30.5031 39.8418 34.6132 35.8351 37.125 33.0936C39.4084 30.563 41.9201 28.0324 42.8334 24.8691C43.5185 22.1276 42.6051 18.9644 40.0934 17.6991C38.7233 17.0664 37.3533 17.0664 36.4399 17.6991C35.5266 18.5426 35.5266 20.0188 35.7549 21.0732C36.6683 26.1344 40.5501 33.3045 46.4869 34.148C50.597 34.7806 53.1087 32.0392 55.8488 29.9303C56.0771 29.7194 56.5338 29.2977 56.7621 29.0868C56.9905 28.665 56.9905 28.0324 56.7621 27.3997C56.7621 26.978 56.5338 26.7671 56.3054 26.5562C56.0771 26.5562 55.8488 26.7671 55.6204 26.978C49.4553 33.9371 55.8488 42.7942 53.337 50.386" stroke="#FFFFFF" stroke-width="2" stroke-miterlimit="10" stroke-linecap="round"/>
<path d="M41.6904 77.1676C47.6272 76.535 53.7924 75.9023 59.7291 75.9023" stroke="#FFFFFF" stroke-width="2" stroke-miterlimit="10" stroke-linecap="round"/>
<path d="M44.2041 83.9167C50.8259 83.9167 57.2194 83.4949 63.6128 82.6514" stroke="#FFFFFF" stroke-width="2" stroke-miterlimit="10" stroke-linecap="round"/>
<path d="M36.8955 92.5625C37.3522 96.1475 38.0372 99.3108 41.234 101.631C44.4307 103.95 49.6825 105.848 53.5643 103.739C57.9028 101.42 56.7611 97.202 57.6744 93.406" stroke="#FFFFFF" stroke-width="2" stroke-miterlimit="10" stroke-linecap="round"/>
</svg>
