<svg width="82" height="116" viewBox="0 0 82 116" fill="none" xmlns="http://www.w3.org/2000/svg">
<path d="M39.7448 19.7812C36.7751 24.279 33.8688 28.8867 30.6624 33.2282C27.9883 36.9694 25.6948 41.3697 23.1476 45.3306C19.5759 50.6887 16.0909 56.07 12.5827 61.5379C11.9343 62.5714 12.5856 63.9532 13.7816 63.9951L32.716 65.0752C33.9121 65.1171 34.5866 66.4123 34.0249 67.469C32.7683 69.7327 31.6849 72.0427 30.3649 74.1965C29.3807 75.7901 28.1829 77.1408 27.3488 78.8676C26.4914 80.6809 25.8073 82.5408 24.8633 84.3309C23.421 87.2877 21.7419 90.0882 20.1494 92.9119C18.4874 95.9956 16.7154 99.1427 15.0533 102.226C14.179 103.757 16.1764 105.313 17.501 104.182C20.3932 101.707 23.3952 99.168 26.2873 96.6926C29.0464 94.3672 32.019 92.2847 34.778 89.9594C38.8617 86.503 42.3683 82.4277 46.3885 78.8615C51.9531 74.0374 57.7946 69.5662 63.3359 64.8287C65.0133 63.4208 66.6041 61.9897 68.2583 60.6684C69.2069 59.901 68.9486 58.4388 67.782 57.9405L57.4493 53.8717C56.5194 53.5297 56.1048 52.3041 56.7068 51.4439C59.4041 47.6161 61.9916 43.8517 64.6889 40.0238C67.722 35.6359 70.7319 31.3346 73.765 26.9467C75.8603 23.9791 77.9789 20.9249 79.9875 17.9341C80.9423 16.7969 80.0543 15.2588 78.7251 15.367C68.5251 16.3487 58.3252 17.3303 48.0153 18.3754C45.6401 18.5748 43.2418 18.8609 40.9533 19.0835C40.4736 19.1407 40.0341 19.3944 39.7448 19.7812Z" stroke="#FF6072" stroke-width="2" stroke-linecap="round" stroke-linejoin="round"/>
<path d="M30.5 42.5L21 57.5" stroke="#FF6072" stroke-width="2" stroke-linecap="round"/>
<path d="M71.5 21L60.5 36" stroke="#FF6072" stroke-width="2" stroke-linecap="round"/>
<path d="M71.5 21L60 22.5" stroke="#FF6072" stroke-width="2" stroke-linecap="round"/>
</svg>
