<svg width="104" height="148" viewBox="0 0 104 148" fill="none" xmlns="http://www.w3.org/2000/svg">
<path d="M38.9642 84.9864C28.8266 54.7277 47.3978 20.3626 78.1429 12.301C79.5268 11.9767 81.8109 12.8371 80.9373 13.965C93.5709 40.032 82.2898 74.8148 59.4291 91.4205" stroke="#FF798A"  stroke-width="2" stroke-miterlimit="10" stroke-linecap="round"/>
<path d="M45.6529 103.644C44.199 104.586 43.2288 104.019 43.1518 100.666C43.1405 96.3104 44.0072 91.2123 45.347 87.0339C45.9797 85.0608 47.5056 80.302 50.2035 80.2711C55.0978 80.1765 54.6386 87.1973 54.1352 90.3639C53.6647 93.029 48.677 101.798 45.6529 103.644Z" stroke="#FF798A" stroke-width="2" stroke-miterlimit="10" stroke-linecap="round"/>
<path d="M34.3564 69.8129C30.417 72.5178 26.7143 75.6825 23.7912 79.6092C22.2344 81.67 20.1149 85.0864 21.0327 87.8127C21.9877 90.4229 25.0162 88.962 26.7023 88.0947C29.3081 86.7542 31.6818 85.3393 34.4869 84.5748" stroke="#FF798A" stroke-width="2" stroke-miterlimit="10" stroke-linecap="round"/>
<path d="M74.7382 81.9932C76.4072 86.3684 77.115 90.9474 77.0147 95.6512C76.9712 98.5813 77.3705 106.517 73.4463 107.179C70.7528 107.595 69.5612 104.525 69.1121 102.333C68.6258 100.257 68.2927 98.1025 67.6903 95.9893C67.0879 93.8762 65.9512 92.2317 65.0422 90.2762" stroke="#FF798A" stroke-width="2" stroke-miterlimit="10" stroke-linecap="round"/>
<path d="M40.6294 65.4242C50.8717 67.8124 61.1644 71.2407 68.845 78.8235" stroke="#FF798A" stroke-width="2" stroke-miterlimit="10" stroke-linecap="round"/>
<path d="M62.2676 23.083C67.8413 28.4542 75.5105 31.6814 83.2233 31.9785" stroke="#FF798A"
      stroke-width="2" stroke-miterlimit="10" stroke-linecap="round"/>
<path d="M64.4726 50.5412C66.6318 50.5935 68.6945 48.9509 69.6754 47.0894C70.6191 45.344 70.8619 42.9899 69.572 41.4242C67.2658 38.6368 62.7985 38.9963 60.9067 42.1017C59.5076 44.4691 59.8211 48.2816 62.2301 49.9501C63.0054 50.3267 63.8179 50.5872 64.4726 50.5412Z" stroke="#FF798A" stroke-width="2" stroke-miterlimit="10" stroke-linecap="round"/>
<path d="M63.8746 55.5985C67.9609 55.6288 72.0119 52.5757 73.8992 49.0849C75.5961 45.789 76.1606 41.234 73.6595 38.256C69.2421 32.8715 60.8462 33.5074 57.2531 39.5233C54.5294 44.0259 55.2308 51.4189 59.8912 54.4492C61.0562 55.2068 62.4863 55.5373 63.8746 55.5985Z" stroke="#FF798A" stroke-width="2" stroke-miterlimit="10" stroke-linecap="round"/>
<path d="M28.0483 128.207L27.9695 128.053C27.6497 127.055 27.0233 126.214 26.513 125.41C27.7285 127.208 31.565 125.622 32.397 124.225C33.8378 122.127 34.0674 118.617 33.7299 116.076C33.4801 114.46 32.8821 112.733 31.4849 111.901C29.8928 110.878 27.8496 110.863 26.0386 110.922C26.0405 107.723 23.7299 104.55 20.5216 103.777C17.4295 103.042 14.2477 104.581 12.2771 107.534C10.8427 106.818 9.03168 106.877 7.73098 107.74C6.54635 108.64 6.02531 110.265 5.57871 111.658C4.83437 113.979 4.78644 116.524 5.54655 118.943C6.22781 121.21 7.37334 123.625 9.35531 125.029C9.47137 125.066 9.55022 125.219 9.66629 125.256C10.7153 125.977 12.4979 126.804 13.8447 126.596C14.806 126.393 15.4192 126.077 16.0651 125.26C15.117 126.62 14.4755 127.823 14.8413 129.476C15.2488 131.399 16.576 132.848 18.3959 133.56C20.5639 134.383 23.2246 134.468 25.4122 133.633C27.521 132.646 28.8084 130.626 28.0483 128.207Z" stroke="#FF798A" stroke-width="2" stroke-miterlimit="10" stroke-linecap="round"/>
<path d="M51.6315 124.12C53.3113 126.067 55.5954 126.927 58.5122 125.814C59.548 125.378 60.5793 124.557 61.0304 123.55C61.593 122.194 61.1155 120.889 60.7913 119.505C62.7095 118.712 63.997 116.693 63.78 114.575C63.5258 112.574 61.8504 111.013 59.6867 110.575C60.004 107.989 57.5294 107.323 55.4491 107.424C53.2154 107.604 51.2644 108.898 50.1302 110.839C47.9779 114.756 48.7405 120.761 51.6315 124.12Z" stroke="#FF798A" stroke-width="2" stroke-miterlimit="10" stroke-linecap="round"/>
</svg>
