<svg width="94" height="92" viewBox="0 0 94 92" fill="none" xmlns="http://www.w3.org/2000/svg">
<path d="M39 27.3701C38 30 37 34.3701 34.5 36.3701C32.1212 38.2731 29.3333 38.3335 28 38.5002" stroke="#FF6072" stroke-width="2" stroke-linecap="round"/>
<path d="M44.322 7.80877C45.555 9.67371 46.8188 11.7871 48.0518 13.652C49.2539 15.2685 50.2404 17.1641 51.4425 18.7806C52.9529 20.8634 54.2168 22.9767 55.4806 25.0901C56.4362 26.7372 57.1453 28.415 58.717 28.9765C61.3364 29.9124 65.2496 29.1738 68.0229 29.3338C73.2921 29.4358 78.3148 29.5685 83.584 29.6705C85.8334 29.6433 86.9125 32.2841 85.6187 33.9585L69.8157 53.8334C69.1688 54.6706 72.4061 62.5932 73.0843 64.0225C75.1499 68.5589 75.7673 73.5276 77.3708 78.3737C77.8951 80.579 75.8618 82.3453 74.0128 81.566C68.2501 79.5071 62.4565 77.1998 56.9403 75.1103C55.3687 74.5488 53.7971 73.9873 52.2254 73.4258C49.3595 72.5205 48.0966 74.4433 45.5703 76.2709C40.302 80.205 34.7254 83.673 29.4263 87.3587C27.5777 88.5975 25.1431 87.1341 25.3891 85.0854C25.696 79.4973 26.0029 73.9093 26.0632 68.3519C26.2166 65.5578 27.2017 61.3991 25.6914 59.3164C23.4719 55.5559 19.25 53.8101 15.9215 51.1964C12.3465 48.6134 9.3262 46.4661 5.99769 43.8524C4.33344 42.5456 4.73337 39.721 6.92105 39.1969C10.0639 38.3018 13.4532 37.3761 16.596 36.481C19.2458 35.6472 21.9265 35.0618 24.5763 34.228C28.2121 33.2717 30.9854 33.4316 32.4944 29.46C33.3873 26.5741 34.5577 23.906 35.4506 21.0201C36.9287 16.8001 38.3759 12.3317 39.854 8.1117C40.3775 6.28078 43.3355 5.9132 44.322 7.80877Z" stroke="#FF6072" stroke-width="2" stroke-miterlimit="10" stroke-linecap="round"/>
</svg>
