<svg width="142" height="99" viewBox="0 0 142 99" fill="none" xmlns="http://www.w3.org/2000/svg">
<path d="M43.3887 16.5049C44.6191 21.0978 46.0477 25.56 47.7179 29.9574" stroke="#FF6072" stroke-width="2" stroke-miterlimit="10" stroke-linecap="round"/>
<path d="M56.1191 9C58.0994 15.2316 59.4754 21.625 60.2034 28.1143" stroke="#FF6072" stroke-width="2" stroke-miterlimit="10" stroke-linecap="round"/>
<path d="M103.158 18.6288C98.9236 23.1313 94.7327 27.6999 90.4981 32.2024" stroke="#FF6072" stroke-width="2" stroke-miterlimit="10" stroke-linecap="round"/>
<path d="M111.188 31.2963C107.66 34.8581 103.596 37.9676 99.2386 40.56" stroke="#FF6072" stroke-width="2" stroke-miterlimit="10" stroke-linecap="round"/>
<path d="M99.8581 69.0757C98.5984 68.5323 99.3218 63.8823 99.2721 62.7297C99.1513 52.9947 95.0358 43.2416 86.2347 38.2414C71.9927 30.2425 51.31 31.6639 40.5726 44.7741C38.3656 47.464 36.6394 50.595 35.5599 53.9154L3.66216 62.4088C3.59612 62.4524 3.57368 62.5621 3.6285 62.5733C5.63064 63.9541 24.4399 76.4293 67.9718 84.7686C114.135 93.6465 130.023 87.1881 129.2 87.0198C128.422 86.9175 99.9677 69.0982 99.8581 69.0757Z" stroke="#FF6072" stroke-width="2" stroke-miterlimit="10" stroke-linecap="round"/>
<path d="M46.8519 56.5123C43.5907 59.3291 41.0311 52.5791 44.9649 51.4993C48.1074 50.6575 48.7361 54.8417 46.8519 56.5123Z" stroke="#FF6072" stroke-width="2" stroke-miterlimit="10" stroke-linecap="round"/>
<path d="M70.8616 61.9976C67.6005 64.8144 65.0408 58.0644 68.9746 56.9847C72.1172 56.1428 72.7458 60.327 70.8616 61.9976Z" stroke="#FF6072" stroke-width="2" stroke-miterlimit="10" stroke-linecap="round"/>
<path d="M93.0159 65.3902C89.7548 68.207 87.1951 61.457 91.1289 60.3773C94.2715 59.5354 94.9001 63.7196 93.0159 65.3902Z" stroke="#FF6072" stroke-width="2" stroke-miterlimit="10" stroke-linecap="round"/>
<path d="M35.9366 52.9066C35.9366 52.9066 36.2446 60.0525 68.4805 66.6508C100.716 73.2492 99.1499 65.2745 99.1499 65.2745" stroke="#FF6072" stroke-width="2" stroke-miterlimit="10" stroke-linecap="round"/>
<path d="M42.1256 43.3215C42.1256 43.3215 42.3938 49.5454 70.4631 55.2909C98.5324 61.0363 98.1458 54.2742 98.1458 54.2742" stroke="#FF6072" stroke-width="2" stroke-miterlimit="10" stroke-linecap="round"/>
</svg>
