<svg width="1280" height="247" viewBox="0 0 1280 247" fill="none" xmlns="http://www.w3.org/2000/svg">
<path d="M173.73 10.5952V67.8753H116.482V242.365H57.2481V67.8753H0V10.5952H173.73Z" fill="#FAF8F8"/>
<path d="M242.534 53.9692C236.357 60.1497 228.966 63.24 220.363 63.24C211.759 63.24 204.258 60.1497 197.861 53.9692C191.683 47.5679 188.595 40.063 188.595 31.4544C188.595 22.8458 191.683 15.4513 197.861 9.27077C204.258 3.09026 211.759 0 220.363 0C228.966 0 236.357 3.09026 242.534 9.27077C248.932 15.4513 252.13 22.8458 252.13 31.4544C252.13 40.063 248.932 47.5679 242.534 53.9692ZM192.897 242.365V76.815H247.829V242.365H192.897Z" fill="#FAF8F8"/>
<path d="M469.448 72.1796C488.641 72.1796 503.752 78.3602 514.783 90.7212C526.034 102.861 531.659 119.637 531.659 141.048V242.365H476.397V147.339C476.397 131.888 469.558 124.162 455.88 124.162C448.379 124.162 442.644 126.701 438.673 131.777C434.922 136.634 433.047 143.366 433.047 151.975V242.365H378.115V147.339C378.115 131.888 371.166 124.162 357.268 124.162C349.767 124.162 344.031 126.701 340.06 131.777C336.31 136.634 334.435 143.366 334.435 151.975V242.365H279.503V76.815H334.435V92.3767C344.583 78.912 359.474 72.1796 379.108 72.1796C398.081 72.1796 412.2 79.2431 421.465 93.37C432.937 79.2431 448.931 72.1796 469.448 72.1796Z" fill="#FAF8F8"/>
<path d="M609.949 179.787C615.464 193.252 627.818 199.984 647.011 199.984C658.924 199.984 668.962 196.121 677.124 188.395L716.834 216.208C700.509 236.736 676.793 247 645.688 247C617.67 247 595.168 238.833 578.181 222.499C561.415 205.944 553.032 185.084 553.032 159.921C553.032 134.978 561.305 114.119 577.85 97.3432C594.396 80.5675 615.464 72.1796 641.055 72.1796C665.763 72.1796 686.169 80.4571 702.274 97.0121C718.378 113.567 726.431 134.316 726.431 159.259C726.431 166.543 725.658 173.386 724.114 179.787H609.949ZM609.287 141.71H672.823C668.41 126.259 658.042 118.534 641.717 118.534C624.73 118.534 613.92 126.259 609.287 141.71Z" fill="#FAF8F8"/>
<path d="M750.021 242.365V0.662208H804.953V242.365H750.021Z" fill="#FAF8F8"/>
<path d="M886.264 53.9692C880.087 60.1497 872.697 63.24 864.093 63.24C855.489 63.24 847.989 60.1497 841.591 53.9692C835.414 47.5679 832.326 40.063 832.326 31.4544C832.326 22.8458 835.414 15.4513 841.591 9.27077C847.989 3.09026 855.489 0 864.093 0C872.697 0 880.087 3.09026 886.264 9.27077C892.662 15.4513 895.861 22.8458 895.861 31.4544C895.861 40.063 892.662 47.5679 886.264 53.9692ZM836.627 242.365V76.815H891.559V242.365H836.627Z" fill="#FAF8F8"/>
<path d="M1024.16 72.1796C1042.03 72.1796 1056.59 78.3602 1067.84 90.7212C1079.31 102.861 1085.05 120.41 1085.05 143.366V242.365H1030.12V150.319C1030.12 141.71 1027.8 135.199 1023.17 130.784C1018.76 126.37 1012.8 124.162 1005.3 124.162C996.696 124.162 989.968 126.811 985.115 132.109C980.482 137.185 978.165 144.58 978.165 154.292V242.365H923.234V76.815H978.165V93.37C988.093 79.2431 1003.43 72.1796 1024.16 72.1796Z" fill="#FAF8F8"/>
<path d="M1163.52 179.787C1169.03 193.252 1181.39 199.984 1200.58 199.984C1212.49 199.984 1222.53 196.121 1230.69 188.395L1270.4 216.208C1254.08 236.736 1230.36 247 1199.26 247C1171.24 247 1148.74 238.833 1131.75 222.499C1114.98 205.944 1106.6 185.084 1106.6 159.921C1106.6 134.978 1114.87 114.119 1131.42 97.3432C1147.97 80.5675 1169.03 72.1796 1194.62 72.1796C1219.33 72.1796 1239.74 80.4571 1255.84 97.0121C1271.95 113.567 1280 134.316 1280 159.259C1280 166.543 1279.23 173.386 1277.68 179.787H1163.52ZM1162.86 141.71H1226.39C1221.98 126.259 1211.61 118.534 1195.29 118.534C1178.3 118.534 1167.49 126.259 1162.86 141.71Z" fill="#FAF8F8"/>
</svg>
