<svg width="1426" height="168" viewBox="0 0 1426 168" fill="none" xmlns="http://www.w3.org/2000/svg">
<path d="M42.2699 124H99.1808V164.706H0V0H42.2699V124Z" fill="#FBF8F9"/>
<path d="M169.19 168C151.716 168 136.838 162.039 124.559 150.118C112.279 138.039 106.14 123.294 106.14 105.882C106.14 88.4706 112.279 73.8039 124.559 61.8824C136.838 49.8039 151.716 43.7647 169.19 43.7647C186.822 43.7647 201.7 49.8039 213.822 61.8824C226.101 73.8039 232.241 88.4706 232.241 105.882C232.241 123.294 226.101 138.039 213.822 150.118C201.7 162.039 186.822 168 169.19 168ZM169.19 130.353C176.117 130.353 181.785 128.078 186.193 123.529C190.758 118.98 193.041 113.098 193.041 105.882C193.041 98.6667 190.758 92.7843 186.193 88.2353C181.785 83.6863 176.117 81.4118 169.19 81.4118C162.421 81.4118 156.753 83.6863 152.188 88.2353C147.78 92.7843 145.576 98.6667 145.576 105.882C145.576 113.098 147.78 118.98 152.188 123.529C156.753 128.078 162.421 130.353 169.19 130.353Z" fill="#FBF8F9"/>
<path d="M321.505 43.7647C334.257 43.7647 344.648 48.1569 352.676 56.9412C360.863 65.5686 364.956 78.0392 364.956 94.3529V164.706H325.756V99.2941C325.756 93.1765 324.103 88.549 320.797 85.4118C317.648 82.2745 313.398 80.7059 308.045 80.7059C301.905 80.7059 297.104 82.5882 293.64 86.3529C290.334 89.9608 288.681 95.2157 288.681 102.118V164.706H249.481V47.0588H288.681V58.8235C295.766 48.7843 306.707 43.7647 321.505 43.7647Z" fill="#FBF8F9"/>
<path d="M469.361 0H508.561V164.706H469.361V153.882C461.333 163.294 450.155 168 435.829 168C420.086 168 406.862 162.118 396.157 150.353C385.609 138.431 380.335 123.608 380.335 105.882C380.335 88.1569 385.609 73.4118 396.157 61.6471C406.862 49.7255 420.086 43.7647 435.829 43.7647C450.155 43.7647 461.333 48.4706 469.361 57.8824V0ZM426.619 124.471C431.185 129.176 437.167 131.529 444.566 131.529C451.965 131.529 457.948 129.176 462.513 124.471C467.079 119.765 469.361 113.569 469.361 105.882C469.361 98.1961 467.079 92 462.513 87.2941C457.948 82.5882 451.965 80.2353 444.566 80.2353C437.167 80.2353 431.185 82.5882 426.619 87.2941C422.054 92 419.771 98.1961 419.771 105.882C419.771 113.569 422.054 119.765 426.619 124.471Z" fill="#FBF8F9"/>
<path d="M588.439 168C570.965 168 556.087 162.039 543.808 150.118C531.528 138.039 525.389 123.294 525.389 105.882C525.389 88.4706 531.528 73.8039 543.808 61.8824C556.087 49.8039 570.965 43.7647 588.439 43.7647C606.071 43.7647 620.948 49.8039 633.071 61.8824C645.35 73.8039 651.49 88.4706 651.49 105.882C651.49 123.294 645.35 138.039 633.071 150.118C620.948 162.039 606.071 168 588.439 168ZM588.439 130.353C595.366 130.353 601.034 128.078 605.442 123.529C610.007 118.98 612.29 113.098 612.29 105.882C612.29 98.6667 610.007 92.7843 605.442 88.2353C601.034 83.6863 595.366 81.4118 588.439 81.4118C581.67 81.4118 576.002 83.6863 571.437 88.2353C567.029 92.7843 564.825 98.6667 564.825 105.882C564.825 113.098 567.029 118.98 571.437 123.529C576.002 128.078 581.67 130.353 588.439 130.353Z" fill="#FBF8F9"/>
<path d="M740.754 43.7647C753.506 43.7647 763.897 48.1569 771.925 56.9412C780.112 65.5686 784.205 78.0392 784.205 94.3529V164.706H745.005V99.2941C745.005 93.1765 743.352 88.549 740.046 85.4118C736.897 82.2745 732.647 80.7059 727.294 80.7059C721.154 80.7059 716.353 82.5882 712.889 86.3529C709.583 89.9608 707.93 95.2157 707.93 102.118V164.706H668.73V47.0588H707.93V58.8235C715.015 48.7843 725.956 43.7647 740.754 43.7647Z" fill="#FBF8F9"/>
<path d="M951.788 0H993.822V164.706H961.234L902.906 81.8823V164.706H860.637V0H893.461L951.788 82.8235V0Z" fill="#FBF8F9"/>
<path d="M1053.28 120.235C1057.22 129.804 1066.04 134.588 1079.73 134.588C1088.23 134.588 1095.4 131.843 1101.22 126.353L1129.56 146.118C1117.91 160.706 1100.99 168 1078.79 168C1058.79 168 1042.74 162.196 1030.61 150.588C1018.65 138.824 1012.67 124 1012.67 106.118C1012.67 88.3922 1018.57 73.5686 1030.38 61.6471C1042.19 49.7255 1057.22 43.7647 1075.48 43.7647C1093.11 43.7647 1107.68 49.6471 1119.17 61.4118C1130.66 73.1765 1136.41 87.9216 1136.41 105.647C1136.41 110.824 1135.86 115.686 1134.75 120.235H1053.28ZM1052.81 93.1765H1098.15C1095 82.1961 1087.6 76.7059 1075.95 76.7059C1063.83 76.7059 1056.12 82.1961 1052.81 93.1765Z" fill="#FBF8F9"/>
<path d="M1281.34 47.0588H1322.9L1286.77 164.706H1248.52L1231.52 104.941L1214.51 164.706H1176.26L1140.13 47.0588H1181.69L1197.28 111.059L1214.99 47.0588H1248.05L1265.76 111.059L1281.34 47.0588Z" fill="#FBF8F9"/>
<path d="M1367.44 81.4118C1367.44 83.6078 1369.4 85.4118 1373.34 86.8235C1377.43 88.2353 1382.31 89.5686 1387.98 90.8235C1393.81 92.0784 1399.55 93.8824 1405.22 96.2353C1411.04 98.4314 1415.92 102.275 1419.86 107.765C1423.95 113.255 1426 120.157 1426 128.471C1426 141.961 1420.96 151.922 1410.89 158.353C1400.81 164.784 1388.85 168 1374.99 168C1348.54 168 1330.91 158.667 1322.1 140L1356.34 122.824C1359.33 131.451 1365.47 135.765 1374.76 135.765C1381.84 135.765 1385.38 133.647 1385.38 129.412C1385.38 127.216 1383.42 125.412 1379.48 124C1375.54 122.588 1370.74 121.176 1365.07 119.765C1359.41 118.353 1353.74 116.471 1348.07 114.118C1342.4 111.765 1337.6 108 1333.67 102.824C1329.73 97.4902 1327.76 90.9804 1327.76 83.2941C1327.76 70.7451 1332.41 61.0196 1341.7 54.1177C1350.98 47.2157 1362.16 43.7647 1375.23 43.7647C1398.53 43.7647 1414.74 52.8628 1423.87 71.0588L1390.81 85.8824C1387.35 79.1373 1382.47 75.7647 1376.17 75.7647C1370.35 75.7647 1367.44 77.6471 1367.44 81.4118Z" fill="#FBF8F9"/>
</svg>
