<svg width="37" height="41" viewBox="0 0 37 41" fill="none" xmlns="http://www.w3.org/2000/svg">
<path opacity="0.66" fill-rule="evenodd" clip-rule="evenodd" d="M0.121965 29.2722L3.87554 39.5223C4.17761 40.3472 4.98259 40.8784 5.85981 40.8318L19.8852 40.0857C20.5235 40.0518 21.1071 39.7148 21.4556 39.1789L36.1663 16.5592C36.7629 15.6418 36.5115 14.4153 35.6021 13.8067L16.7672 1.20063C15.7824 0.541555 14.4438 0.878332 13.8882 1.92493L0.233489 27.6467C-0.0327128 28.1481 -0.0732575 28.7391 0.121965 29.2722ZM10.6458 36.2312C12.6838 36.2312 14.3359 34.5791 14.3359 32.5412C14.3359 30.5033 12.6838 28.8512 10.6458 28.8512C8.60791 28.8512 6.95584 30.5033 6.95584 32.5412C6.95584 34.5791 8.60791 36.2312 10.6458 36.2312Z" fill="#E01F26"/>
</svg>
