<svg width="30" height="40" viewBox="0 0 30 40" fill="none" xmlns="http://www.w3.org/2000/svg">
<g opacity="0.66">
<path d="M8.95105 0H12.3077V2.22222H8.95105V0Z" fill="black"/>
<path d="M8.95105 0H12.3077V2.22222H8.95105V0Z" fill="url(#paint0_linear)"/>
<path d="M14.1725 8.51852H17.5291V10.7407H14.1725V8.51852Z" fill="black"/>
<path d="M14.1725 8.51852H17.5291V10.7407H14.1725V8.51852Z" fill="url(#paint1_linear)"/>
<path d="M17.1562 11.8519H19.3939V18.1481H17.1562V11.8519Z" fill="black"/>
<path d="M17.1562 11.8519H19.3939V18.1481H17.1562V11.8519Z" fill="url(#paint2_linear)"/>
<path d="M17.1562 9.62963H22.7506V11.8519H17.1562V9.62963Z" fill="black"/>
<path d="M17.1562 9.62963H22.7506V11.8519H17.1562V9.62963Z" fill="url(#paint3_linear)"/>
<path d="M22.0047 11.1111H25.7343V13.3333H22.0047V11.1111Z" fill="black"/>
<path d="M22.0047 11.1111H25.7343V13.3333H22.0047V11.1111Z" fill="url(#paint4_linear)"/>
<path d="M25.3613 12.5926H27.2261V14.8148H25.3613V12.5926Z" fill="black"/>
<path d="M25.3613 12.5926H27.2261V14.8148H25.3613V12.5926Z" fill="url(#paint5_linear)"/>
<path d="M25.3613 25.5556H27.2261V31.8519H25.3613V25.5556Z" fill="black"/>
<path d="M25.3613 25.5556H27.2261V31.8519H25.3613V25.5556Z" fill="url(#paint6_linear)"/>
<path d="M24.2424 31.4815H26.1072V40H24.2424V31.4815Z" fill="black"/>
<path d="M24.2424 31.4815H26.1072V40H24.2424V31.4815Z" fill="url(#paint7_linear)"/>
<path d="M8.95105 34.0741H10.8159V40H8.95105V34.0741Z" fill="black"/>
<path d="M8.95105 34.0741H10.8159V40H8.95105V34.0741Z" fill="url(#paint8_linear)"/>
<path d="M7.08625 30.7407H9.32401V34.8148H7.08625V30.7407Z" fill="black"/>
<path d="M7.08625 30.7407H9.32401V34.8148H7.08625V30.7407Z" fill="url(#paint9_linear)"/>
<path d="M5.22145 27.4074H7.45921V31.4815H5.22145V27.4074Z" fill="black"/>
<path d="M5.22145 27.4074H7.45921V31.4815H5.22145V27.4074Z" fill="url(#paint10_linear)"/>
<path d="M3.35664 24.0741H5.59441V28.5185H3.35664V24.0741Z" fill="black"/>
<path d="M3.35664 24.0741H5.59441V28.5185H3.35664V24.0741Z" fill="url(#paint11_linear)"/>
<path d="M1.8648 22.2222H4.10256V25.1852H1.8648V22.2222Z" fill="black"/>
<path d="M1.8648 22.2222H4.10256V25.1852H1.8648V22.2222Z" fill="url(#paint12_linear)"/>
<path d="M5.22145 17.7778H7.08625V20.7407H5.22145V17.7778Z" fill="black"/>
<path d="M5.22145 17.7778H7.08625V20.7407H5.22145V17.7778Z" fill="url(#paint13_linear)"/>
<path d="M0 17.037H5.59441V19.2593H0V17.037Z" fill="black"/>
<path d="M0 17.037H5.59441V19.2593H0V17.037Z" fill="url(#paint14_linear)"/>
<path d="M0 19.2593H2.23776V22.963H0V19.2593Z" fill="black"/>
<path d="M0 19.2593H2.23776V22.963H0V19.2593Z" fill="url(#paint15_linear)"/>
<path d="M10.8159 37.7778H24.2424V40H10.8159V37.7778Z" fill="black"/>
<path d="M10.8159 37.7778H24.2424V40H10.8159V37.7778Z" fill="url(#paint16_linear)"/>
<path d="M26.8531 13.7037H29.0909V26.2963H26.8531V13.7037Z" fill="black"/>
<path d="M26.8531 13.7037H29.0909V26.2963H26.8531V13.7037Z" fill="url(#paint17_linear)"/>
<path d="M11.9347 1.11111H14.1725V18.1481H11.9347V1.11111Z" fill="black"/>
<path d="M11.9347 1.11111H14.1725V18.1481H11.9347V1.11111Z" fill="url(#paint18_linear)"/>
<path d="M7.08625 1.11111H9.32401V25.5556H7.08625V1.11111Z" fill="black"/>
<path d="M7.08625 1.11111H9.32401V25.5556H7.08625V1.11111Z" fill="url(#paint19_linear)"/>
</g>
<defs>
<linearGradient id="paint0_linear" x1="14.5455" y1="0" x2="14.5455" y2="40" gradientUnits="userSpaceOnUse">
<stop stop-color="#A35935"/>
<stop offset="1" stop-color="#ECB477"/>
</linearGradient>
<linearGradient id="paint1_linear" x1="14.5455" y1="0" x2="14.5455" y2="40" gradientUnits="userSpaceOnUse">
<stop stop-color="#A35935"/>
<stop offset="1" stop-color="#ECB477"/>
</linearGradient>
<linearGradient id="paint2_linear" x1="14.5455" y1="0" x2="14.5455" y2="40" gradientUnits="userSpaceOnUse">
<stop stop-color="#A35935"/>
<stop offset="1" stop-color="#ECB477"/>
</linearGradient>
<linearGradient id="paint3_linear" x1="14.5455" y1="0" x2="14.5455" y2="40" gradientUnits="userSpaceOnUse">
<stop stop-color="#A35935"/>
<stop offset="1" stop-color="#ECB477"/>
</linearGradient>
<linearGradient id="paint4_linear" x1="14.5455" y1="0" x2="14.5455" y2="40" gradientUnits="userSpaceOnUse">
<stop stop-color="#A35935"/>
<stop offset="1" stop-color="#ECB477"/>
</linearGradient>
<linearGradient id="paint5_linear" x1="14.5455" y1="0" x2="14.5455" y2="40" gradientUnits="userSpaceOnUse">
<stop stop-color="#A35935"/>
<stop offset="1" stop-color="#ECB477"/>
</linearGradient>
<linearGradient id="paint6_linear" x1="14.5455" y1="0" x2="14.5455" y2="40" gradientUnits="userSpaceOnUse">
<stop stop-color="#A35935"/>
<stop offset="1" stop-color="#ECB477"/>
</linearGradient>
<linearGradient id="paint7_linear" x1="14.5455" y1="0" x2="14.5455" y2="40" gradientUnits="userSpaceOnUse">
<stop stop-color="#A35935"/>
<stop offset="1" stop-color="#ECB477"/>
</linearGradient>
<linearGradient id="paint8_linear" x1="14.5455" y1="0" x2="14.5455" y2="40" gradientUnits="userSpaceOnUse">
<stop stop-color="#A35935"/>
<stop offset="1" stop-color="#ECB477"/>
</linearGradient>
<linearGradient id="paint9_linear" x1="14.5455" y1="0" x2="14.5455" y2="40" gradientUnits="userSpaceOnUse">
<stop stop-color="#A35935"/>
<stop offset="1" stop-color="#ECB477"/>
</linearGradient>
<linearGradient id="paint10_linear" x1="14.5455" y1="0" x2="14.5455" y2="40" gradientUnits="userSpaceOnUse">
<stop stop-color="#A35935"/>
<stop offset="1" stop-color="#ECB477"/>
</linearGradient>
<linearGradient id="paint11_linear" x1="14.5455" y1="0" x2="14.5455" y2="40" gradientUnits="userSpaceOnUse">
<stop stop-color="#A35935"/>
<stop offset="1" stop-color="#ECB477"/>
</linearGradient>
<linearGradient id="paint12_linear" x1="14.5455" y1="0" x2="14.5455" y2="40" gradientUnits="userSpaceOnUse">
<stop stop-color="#A35935"/>
<stop offset="1" stop-color="#ECB477"/>
</linearGradient>
<linearGradient id="paint13_linear" x1="14.5455" y1="0" x2="14.5455" y2="40" gradientUnits="userSpaceOnUse">
<stop stop-color="#A35935"/>
<stop offset="1" stop-color="#ECB477"/>
</linearGradient>
<linearGradient id="paint14_linear" x1="14.5455" y1="0" x2="14.5455" y2="40" gradientUnits="userSpaceOnUse">
<stop stop-color="#A35935"/>
<stop offset="1" stop-color="#ECB477"/>
</linearGradient>
<linearGradient id="paint15_linear" x1="14.5455" y1="0" x2="14.5455" y2="40" gradientUnits="userSpaceOnUse">
<stop stop-color="#A35935"/>
<stop offset="1" stop-color="#ECB477"/>
</linearGradient>
<linearGradient id="paint16_linear" x1="14.5455" y1="0" x2="14.5455" y2="40" gradientUnits="userSpaceOnUse">
<stop stop-color="#A35935"/>
<stop offset="1" stop-color="#ECB477"/>
</linearGradient>
<linearGradient id="paint17_linear" x1="14.5455" y1="0" x2="14.5455" y2="40" gradientUnits="userSpaceOnUse">
<stop stop-color="#A35935"/>
<stop offset="1" stop-color="#ECB477"/>
</linearGradient>
<linearGradient id="paint18_linear" x1="14.5455" y1="0" x2="14.5455" y2="40" gradientUnits="userSpaceOnUse">
<stop stop-color="#A35935"/>
<stop offset="1" stop-color="#ECB477"/>
</linearGradient>
<linearGradient id="paint19_linear" x1="14.5455" y1="0" x2="14.5455" y2="40" gradientUnits="userSpaceOnUse">
<stop stop-color="#A35935"/>
<stop offset="1" stop-color="#ECB477"/>
</linearGradient>
</defs>
</svg>
