<svg width="17" height="17" viewBox="0 0 17 17" xmlns="http://www.w3.org/2000/svg">
<path d="M8.50001 0C10.7594 0 12.8865 0.807865 14.4892 2.27481C16.1083 3.7567 17 5.73169 17 7.83594C17 11.6758 15.4362 12.922 15.1868 13.2051C13.1659 15.4991 9.93296 15.6719 8.50001 15.6719C7.3552 15.6719 6.24768 15.4663 5.20374 15.0605L0.931966 16.9436C0.845837 16.9815 0.754662 17 0.66425 17C0.49498 17 0.328367 16.9353 0.201864 16.8127C0.00779167 16.6246 -0.0528704 16.3376 0.0484322 16.087L1.55625 12.3573C0.53665 11.0318 2.21351e-05 9.477 2.21351e-05 7.83594C2.21351e-05 5.73169 0.891724 3.7567 2.51084 2.27481C4.11358 0.807865 6.24061 0 8.50001 0Z"/>
</svg>
