<svg width="1920" height="1080" viewBox="0 0 1920 1080" fill="none" xmlns="http://www.w3.org/2000/svg">
    <path d="M1114.73 294.576C1112.28 295.278 1110.03 295.051 1107.97 293.895C1105.9 292.739 1104.54 290.993 1103.86 288.655C1103.19 286.317 1103.43 284.112 1104.56 282.038C1105.7 279.964 1107.49 278.576 1109.93 277.874C1111.43 277.446 1112.9 277.414 1114.35 277.78C1115.8 278.13 1117.04 278.815 1118.06 279.836L1116.87 281.077C1116.08 280.238 1115.1 279.67 1113.93 279.372C1112.77 279.075 1111.58 279.098 1110.38 279.443C1108.37 280.021 1106.91 281.147 1106.01 282.821C1105.11 284.494 1104.93 286.284 1105.48 288.191C1106.03 290.098 1107.13 291.522 1108.78 292.463C1110.43 293.404 1112.26 293.585 1114.28 293.007C1115.48 292.663 1116.49 292.055 1117.32 291.184C1118.16 290.312 1118.68 289.312 1118.91 288.182L1120.57 288.578C1120.26 289.983 1119.58 291.228 1118.52 292.313C1117.48 293.393 1116.22 294.147 1114.73 294.576ZM1122.82 281.54C1123.13 279.937 1124.14 278.889 1125.87 278.394L1126.29 279.871C1125.24 280.171 1124.46 280.728 1123.95 281.542C1123.43 282.356 1123.36 283.424 1123.74 284.746L1125.59 291.159L1124.06 291.596L1120.75 280.062L1122.27 279.625L1122.82 281.54ZM1128.76 274.768C1128.6 275.045 1128.37 275.228 1128.07 275.316C1127.76 275.405 1127.47 275.372 1127.19 275.218C1126.91 275.065 1126.73 274.834 1126.64 274.527C1126.55 274.219 1126.58 273.927 1126.74 273.65C1126.89 273.373 1127.12 273.19 1127.43 273.102C1127.74 273.013 1128.03 273.046 1128.31 273.2C1128.58 273.353 1128.77 273.584 1128.85 273.891C1128.94 274.199 1128.91 274.491 1128.76 274.768ZM1131.32 289.514L1128.01 277.98L1129.53 277.543L1132.84 289.077L1131.32 289.514ZM1145.39 285.475L1143.36 286.058L1136 282.153L1137.59 287.713L1136.07 288.15L1131.43 272.002L1132.96 271.565L1135.75 281.277L1139.77 274.603L1141.85 274.007L1137.49 281.252L1145.39 285.475ZM1148.26 271.867C1149.97 271.377 1151.52 271.59 1152.91 272.504C1154.32 273.399 1155.26 274.67 1155.73 276.315C1155.78 276.484 1155.83 276.727 1155.89 277.043L1145.76 279.95C1146.25 281.075 1147.01 281.864 1148.04 282.318C1149.08 282.752 1150.21 282.792 1151.44 282.439C1152.32 282.187 1153.02 281.794 1153.55 281.259C1154.09 280.705 1154.44 280.089 1154.59 279.412L1156.16 279.812C1155.88 280.773 1155.38 281.618 1154.64 282.346C1153.9 283.074 1152.97 283.6 1151.84 283.922C1150.03 284.443 1148.39 284.298 1146.92 283.486C1145.46 282.675 1144.48 281.393 1143.97 279.639C1143.48 277.917 1143.63 276.318 1144.42 274.842C1145.21 273.366 1146.49 272.375 1148.26 271.867ZM1148.68 273.344C1147.48 273.688 1146.58 274.338 1145.97 275.295C1145.38 276.232 1145.16 277.292 1145.34 278.474L1153.94 276.004C1153.44 274.833 1152.7 274.022 1151.72 273.571C1150.74 273.119 1149.73 273.043 1148.68 273.344ZM1164.34 267.552L1165.95 267.089L1164.63 281.101C1164.51 282.367 1164.13 283.442 1163.48 284.327C1162.86 285.222 1162.03 285.777 1160.99 285.991L1160.58 284.561C1162.01 284.318 1162.83 283.215 1163.05 281.255L1163.14 280.454L1154.65 270.333L1156.26 269.87L1163.37 278.291L1164.34 267.552ZM1170.3 273.579L1167.91 266.528L1166.58 261.914L1168.43 261.384L1169.75 265.998L1171.46 273.248L1170.3 273.579ZM1173 277.4C1172.82 277.717 1172.56 277.926 1172.21 278.028C1171.85 278.129 1171.52 278.092 1171.2 277.917C1170.88 277.741 1170.67 277.477 1170.57 277.123C1170.47 276.769 1170.51 276.434 1170.68 276.117C1170.86 275.801 1171.12 275.592 1171.48 275.49C1171.83 275.389 1172.17 275.425 1172.48 275.601C1172.8 275.776 1173.01 276.041 1173.11 276.395C1173.21 276.748 1173.17 277.084 1173 277.4ZM1177.78 258.699L1179.39 258.236L1184.03 274.384L1182.42 274.847L1177.78 258.699ZM1190.73 261.575L1187.41 262.528L1189.41 269.518C1189.59 270.149 1189.85 270.567 1190.17 270.773C1190.49 270.964 1190.9 270.997 1191.4 270.871C1191.89 270.729 1192.5 270.537 1193.23 270.295L1193.61 271.633C1192.07 272.342 1190.82 272.576 1189.87 272.333C1188.93 272.086 1188.27 271.293 1187.89 269.955L1185.88 262.965L1183.46 263.661L1183.04 262.184L1185.46 261.489L1184.66 258.721L1186.05 257.822L1186.98 261.052L1190.3 260.098L1190.73 261.575ZM1194.28 253.963L1194.39 259.551L1193 259.948L1192.43 254.493L1194.28 253.963ZM1198.83 260.923C1198.98 261.446 1199.33 261.795 1199.88 261.97C1200.43 262.145 1201.06 262.222 1201.77 262.201C1202.48 262.181 1203.19 262.183 1203.92 262.209C1204.63 262.219 1205.3 262.404 1205.9 262.763C1206.5 263.108 1206.91 263.672 1207.13 264.456C1207.42 265.441 1207.25 266.353 1206.65 267.193C1206.05 268.029 1205.14 268.624 1203.91 268.977C1202.8 269.295 1201.79 269.32 1200.86 269.053C1199.95 268.782 1199.23 268.298 1198.7 267.602L1199.77 266.47C1200.16 267.008 1200.68 267.374 1201.33 267.569C1202 267.744 1202.72 267.721 1203.49 267.5C1204.24 267.284 1204.83 266.957 1205.25 266.519C1205.67 266.066 1205.79 265.524 1205.61 264.893C1205.46 264.371 1205.11 264.022 1204.56 263.846C1204.01 263.671 1203.38 263.594 1202.67 263.615C1201.96 263.635 1201.25 263.641 1200.53 263.63C1199.81 263.605 1199.15 263.42 1198.55 263.076C1197.94 262.716 1197.53 262.144 1197.31 261.36C1197.04 260.422 1197.18 259.531 1197.74 258.689C1198.31 257.842 1199.17 257.255 1200.3 256.929C1201.24 256.659 1202.13 256.638 1202.96 256.866C1203.78 257.078 1204.47 257.497 1205.02 258.123L1203.96 259.225C1203.2 258.277 1202.13 258.003 1200.73 258.405C1200.07 258.595 1199.54 258.92 1199.16 259.379C1198.77 259.824 1198.66 260.338 1198.83 260.923ZM1212.29 249.094C1212.44 248.817 1212.67 248.634 1212.98 248.546C1213.29 248.457 1213.58 248.49 1213.86 248.643C1214.13 248.797 1214.32 249.027 1214.41 249.335C1214.49 249.643 1214.46 249.935 1214.31 250.212C1214.15 250.489 1213.92 250.672 1213.62 250.76C1213.31 250.848 1213.02 250.816 1212.74 250.662C1212.46 250.509 1212.28 250.278 1212.19 249.971C1212.1 249.663 1212.14 249.371 1212.29 249.094ZM1217.13 265.881L1213.56 253.424L1215.08 252.987L1218.66 265.444C1219.05 266.828 1218.99 267.97 1218.46 268.869C1217.94 269.769 1217 270.347 1215.64 270.604L1215.22 269.127C1216.15 268.959 1216.77 268.623 1217.08 268.119C1217.4 267.611 1217.42 266.865 1217.13 265.881ZM1226.44 249.726L1227.96 249.289L1231.27 260.823L1229.75 261.26L1229.23 259.461C1228.77 261.092 1227.68 262.155 1225.95 262.649C1224.56 263.051 1223.33 262.946 1222.27 262.334C1221.22 261.703 1220.49 260.664 1220.08 259.218L1218.04 252.136L1219.57 251.699L1221.6 258.781C1221.89 259.812 1222.39 260.534 1223.09 260.949C1223.81 261.359 1224.67 261.42 1225.67 261.133C1226.78 260.816 1227.58 260.211 1228.07 259.321C1228.56 258.414 1228.59 257.231 1228.17 255.77L1226.44 249.726ZM1233.25 251.042C1233.4 251.565 1233.75 251.914 1234.3 252.089C1234.85 252.264 1235.48 252.342 1236.19 252.321C1236.9 252.3 1237.62 252.303 1238.34 252.328C1239.06 252.338 1239.72 252.523 1240.32 252.883C1240.92 253.227 1241.33 253.792 1241.56 254.576C1241.84 255.56 1241.68 256.472 1241.07 257.313C1240.48 258.149 1239.56 258.743 1238.33 259.096C1237.23 259.414 1236.21 259.44 1235.28 259.173C1234.37 258.901 1233.65 258.417 1233.12 257.721L1234.19 256.589C1234.58 257.127 1235.1 257.494 1235.76 257.688C1236.42 257.863 1237.14 257.841 1237.91 257.62C1238.66 257.404 1239.25 257.077 1239.68 256.639C1240.09 256.185 1240.21 255.643 1240.03 255.013C1239.88 254.49 1239.53 254.141 1238.98 253.966C1238.43 253.791 1237.8 253.713 1237.09 253.734C1236.38 253.755 1235.67 253.76 1234.95 253.75C1234.23 253.724 1233.57 253.54 1232.97 253.195C1232.37 252.836 1231.95 252.264 1231.73 251.479C1231.46 250.541 1231.6 249.651 1232.16 248.808C1232.73 247.962 1233.59 247.375 1234.73 247.048C1235.66 246.779 1236.55 246.758 1237.38 246.986C1238.21 247.198 1238.89 247.617 1239.44 248.242L1238.38 249.345C1237.63 248.396 1236.55 248.123 1235.15 248.525C1234.49 248.714 1233.97 249.039 1233.58 249.499C1233.19 249.943 1233.08 250.458 1233.25 251.042ZM1247.75 245.209L1244.42 246.162L1246.43 253.152C1246.61 253.782 1246.86 254.201 1247.19 254.407C1247.51 254.598 1247.92 254.63 1248.42 254.504C1248.91 254.363 1249.52 254.171 1250.25 253.929L1250.63 255.267C1249.09 255.976 1247.84 256.21 1246.89 255.967C1245.95 255.72 1245.29 254.927 1244.91 253.589L1242.9 246.599L1240.48 247.294L1240.05 245.818L1242.48 245.123L1241.68 242.355L1243.07 241.456L1244 244.686L1247.32 243.732L1247.75 245.209ZM1157.59 299.66L1159.11 299.223L1162.42 310.757L1160.9 311.194L1160.38 309.395C1159.92 311.026 1158.82 312.089 1157.1 312.584C1155.7 312.985 1154.47 312.88 1153.42 312.268C1152.37 311.637 1151.64 310.598 1151.22 309.152L1149.19 302.07L1150.71 301.633L1152.75 308.715C1153.04 309.746 1153.54 310.468 1154.24 310.883C1154.96 311.293 1155.82 311.354 1156.82 311.068C1157.92 310.75 1158.72 310.145 1159.22 309.255C1159.71 308.349 1159.74 307.165 1159.32 305.704L1157.59 299.66ZM1167.65 296.472C1169.05 296.071 1170.27 296.186 1171.32 296.817C1172.38 297.429 1173.11 298.458 1173.53 299.904L1175.56 306.986L1174.04 307.423L1172.01 300.341C1171.71 299.31 1171.2 298.59 1170.49 298.18C1169.78 297.765 1168.93 297.702 1167.93 297.989C1166.83 298.306 1166.03 298.918 1165.54 299.824C1165.05 300.715 1165.01 301.891 1165.43 303.352L1167.16 309.396L1165.64 309.833L1162.33 298.299L1163.85 297.862L1164.37 299.661C1164.83 298.03 1165.93 296.967 1167.65 296.472ZM1177.27 296.084C1177.57 294.482 1178.59 293.433 1180.31 292.939L1180.73 294.415C1179.69 294.715 1178.91 295.272 1178.39 296.086C1177.87 296.9 1177.81 297.968 1178.19 299.291L1180.03 305.704L1178.5 306.141L1175.19 294.606L1176.72 294.169L1177.27 296.084ZM1187 290.918C1188.71 290.428 1190.26 290.641 1191.65 291.556C1193.06 292.451 1194 293.721 1194.47 295.366C1194.52 295.535 1194.57 295.778 1194.63 296.095L1184.5 299.002C1184.99 300.126 1185.75 300.915 1186.78 301.369C1187.82 301.803 1188.95 301.843 1190.18 301.49C1191.06 301.239 1191.76 300.845 1192.29 300.311C1192.83 299.756 1193.18 299.14 1193.33 298.463L1194.9 298.864C1194.62 299.824 1194.12 300.669 1193.38 301.397C1192.64 302.126 1191.71 302.651 1190.58 302.973C1188.77 303.494 1187.13 303.349 1185.66 302.537C1184.2 301.726 1183.22 300.444 1182.71 298.691C1182.22 296.968 1182.37 295.369 1183.16 293.893C1183.95 292.418 1185.23 291.426 1187 290.918ZM1187.42 292.395C1186.22 292.739 1185.32 293.39 1184.71 294.346C1184.12 295.283 1183.9 296.343 1184.08 297.525L1192.68 295.055C1192.18 293.885 1191.44 293.073 1190.46 292.622C1189.48 292.17 1188.47 292.095 1187.42 292.395ZM1205.14 286.011L1206.66 285.574L1209.97 297.108L1208.45 297.545L1207.8 295.284C1207.23 297.28 1205.92 298.572 1203.87 299.159C1202.23 299.632 1200.65 299.451 1199.15 298.618C1197.66 297.78 1196.67 296.515 1196.18 294.824C1195.7 293.132 1195.87 291.536 1196.68 290.036C1197.52 288.532 1198.76 287.544 1200.4 287.071C1202.45 286.484 1204.24 286.884 1205.79 288.271L1205.14 286.011ZM1199.96 297.262C1201.08 297.887 1202.29 298.016 1203.56 297.65C1204.84 297.283 1205.79 296.536 1206.41 295.408C1207.04 294.264 1207.16 293.054 1206.8 291.778C1206.43 290.501 1205.68 289.551 1204.55 288.926C1203.42 288.285 1202.22 288.148 1200.94 288.515C1199.66 288.881 1198.72 289.636 1198.09 290.78C1197.47 291.908 1197.34 293.11 1197.71 294.387C1198.07 295.663 1198.82 296.622 1199.96 297.262ZM1213.2 296.183L1208.36 279.343L1209.89 278.906L1214.72 295.746L1213.2 296.183ZM1217.15 290.303L1214.76 283.251L1213.43 278.637L1215.28 278.107L1216.6 282.721L1218.31 289.972L1217.15 290.303ZM1219.85 294.124C1219.67 294.44 1219.41 294.649 1219.06 294.751C1218.7 294.852 1218.37 294.816 1218.05 294.64C1217.73 294.465 1217.52 294.2 1217.42 293.846C1217.32 293.493 1217.36 293.157 1217.53 292.841C1217.71 292.524 1217.97 292.315 1218.33 292.213C1218.68 292.112 1219.02 292.149 1219.33 292.324C1219.65 292.5 1219.86 292.764 1219.96 293.118C1220.06 293.472 1220.02 293.807 1219.85 294.124Z" fill="white"/>
</svg>
