<svg width="1920" height="1080" viewBox="0 0 1920 1080" fill="none" xmlns="http://www.w3.org/2000/svg">
    <path d="M1068.07 253.662L1075.09 267.164L1081.9 263.623L1082.63 265.029L1074.33 269.345L1066.58 254.437L1068.07 253.662ZM1092.24 258.333C1091.7 259.966 1090.66 261.184 1089.11 261.989C1087.53 262.807 1085.93 262.965 1084.3 262.461C1082.66 261.942 1081.43 260.895 1080.61 259.319C1079.79 257.743 1079.65 256.142 1080.17 254.517C1080.69 252.877 1081.74 251.648 1083.31 250.829C1084.87 250.018 1086.47 249.871 1088.11 250.389C1089.76 250.886 1090.99 251.923 1091.81 253.498C1092.62 255.06 1092.77 256.672 1092.24 258.333ZM1084.79 260.961C1086.02 261.35 1087.22 261.238 1088.4 260.626C1089.58 260.013 1090.36 259.092 1090.75 257.862C1091.13 256.604 1091.01 255.393 1090.41 254.229C1089.79 253.05 1088.87 252.267 1087.64 251.878C1086.41 251.475 1085.2 251.58 1084.02 252.192C1082.84 252.804 1082.06 253.733 1081.68 254.977C1081.29 256.206 1081.4 257.41 1082.02 258.589C1082.62 259.753 1083.55 260.544 1084.79 260.961ZM1096.25 244.107C1097.53 243.443 1098.75 243.313 1099.91 243.717C1101.07 244.107 1102 244.97 1102.69 246.304L1106.09 252.842L1104.68 253.573L1101.29 247.034C1100.79 246.083 1100.15 245.478 1099.37 245.218C1098.6 244.951 1097.75 245.057 1096.83 245.537C1095.76 246.09 1095.09 246.862 1094.82 247.854C1094.55 248.839 1094.76 249.984 1095.44 251.29L1098.34 256.87L1096.93 257.6L1091.4 246.952L1092.8 246.222L1093.67 247.883C1093.8 246.192 1094.66 244.933 1096.25 244.107ZM1113.52 238.11L1110.22 231.764L1111.62 231.034L1119.37 245.941L1117.96 246.672L1116.88 244.585C1116.71 246.655 1115.68 248.181 1113.79 249.163C1112.28 249.952 1110.7 250.087 1109.06 249.569C1107.43 249.043 1106.21 248 1105.4 246.438C1104.59 244.876 1104.44 243.279 1104.94 241.647C1105.46 240.007 1106.48 238.792 1108 238.003C1109.88 237.022 1111.72 237.058 1113.52 238.11ZM1109.58 248.08C1110.81 248.468 1112.01 248.357 1113.19 247.744C1114.37 247.132 1115.16 246.211 1115.54 244.981C1115.92 243.723 1115.8 242.512 1115.2 241.348C1114.59 240.169 1113.66 239.385 1112.43 238.997C1111.2 238.594 1109.99 238.698 1108.81 239.311C1107.63 239.923 1106.85 240.851 1106.47 242.095C1106.08 243.325 1106.19 244.529 1106.81 245.707C1107.41 246.872 1108.34 247.662 1109.58 248.08ZM1130.57 238.417C1130.03 240.05 1128.99 241.268 1127.44 242.072C1125.86 242.891 1124.26 243.048 1122.63 242.544C1120.99 242.026 1119.76 240.979 1118.94 239.403C1118.12 237.827 1117.97 236.226 1118.5 234.601C1119.02 232.961 1120.07 231.732 1121.64 230.913C1123.2 230.101 1124.8 229.955 1126.44 230.473C1128.09 230.97 1129.32 232.006 1130.14 233.582C1130.95 235.144 1131.1 236.755 1130.57 238.417ZM1123.12 241.044C1124.35 241.433 1125.55 241.321 1126.73 240.709C1127.91 240.097 1128.69 239.176 1129.08 237.946C1129.46 236.688 1129.34 235.477 1128.74 234.312C1128.12 233.134 1127.2 232.35 1125.97 231.962C1124.74 231.559 1123.53 231.663 1122.35 232.276C1121.17 232.888 1120.39 233.816 1120.01 235.06C1119.62 236.29 1119.73 237.494 1120.35 238.672C1120.95 239.837 1121.88 240.627 1123.12 241.044ZM1134.58 224.191C1135.86 223.527 1137.08 223.397 1138.24 223.801C1139.4 224.191 1140.33 225.053 1141.02 226.388L1144.42 232.926L1143.01 233.656L1139.62 227.118C1139.12 226.167 1138.48 225.561 1137.7 225.302C1136.93 225.034 1136.08 225.141 1135.16 225.62C1134.09 226.174 1133.42 226.946 1133.14 227.938C1132.88 228.923 1133.09 230.068 1133.77 231.374L1136.67 236.954L1135.26 237.684L1129.73 227.036L1131.13 226.305L1132 227.967C1132.13 226.276 1132.99 225.017 1134.58 224.191ZM1146.95 213.923C1147.1 214.207 1147.12 214.5 1147.03 214.802C1146.93 215.104 1146.74 215.329 1146.46 215.476C1146.17 215.624 1145.88 215.65 1145.58 215.554C1145.28 215.459 1145.05 215.269 1144.9 214.985C1144.76 214.701 1144.73 214.408 1144.83 214.106C1144.92 213.804 1145.11 213.579 1145.4 213.432C1145.68 213.284 1145.97 213.258 1146.27 213.354C1146.58 213.449 1146.8 213.639 1146.95 213.923ZM1153.87 228.017L1152.46 228.747L1146.93 218.099L1148.33 217.368L1153.87 228.017ZM1153.87 218.033C1154.3 218.857 1155.35 219.08 1157.01 218.704C1157.47 218.589 1157.78 218.52 1157.93 218.496C1158.07 218.458 1158.36 218.407 1158.79 218.343C1159.24 218.257 1159.55 218.22 1159.74 218.232C1159.94 218.236 1160.22 218.26 1160.59 218.304C1160.94 218.335 1161.23 218.412 1161.44 218.538C1161.64 218.649 1161.86 218.821 1162.11 219.053C1162.35 219.272 1162.55 219.537 1162.71 219.849C1163.19 220.758 1163.21 221.684 1162.78 222.628C1162.38 223.558 1161.6 224.321 1160.45 224.919C1159.46 225.435 1158.49 225.661 1157.53 225.598C1156.57 225.519 1155.75 225.189 1155.07 224.605L1155.9 223.283C1156.38 223.733 1156.97 223.989 1157.65 224.05C1158.34 224.089 1159.03 223.925 1159.74 223.556C1160.47 223.18 1160.98 222.731 1161.29 222.211C1161.6 221.691 1161.6 221.147 1161.31 220.58C1160.88 219.756 1159.84 219.533 1158.17 219.909C1157.71 220.024 1157.41 220.1 1157.27 220.138C1157.12 220.162 1156.82 220.216 1156.38 220.302C1155.94 220.366 1155.62 220.396 1155.42 220.392C1155.24 220.381 1154.96 220.36 1154.61 220.33C1154.24 220.285 1153.96 220.207 1153.75 220.096C1153.55 219.97 1153.32 219.799 1153.08 219.58C1152.83 219.348 1152.63 219.076 1152.47 218.763C1152.02 217.897 1151.98 216.996 1152.36 216.06C1152.77 215.109 1153.49 214.364 1154.53 213.826C1155.38 213.383 1156.23 213.184 1157.08 213.228C1157.95 213.264 1158.72 213.542 1159.38 214.062L1158.57 215.352C1157.65 214.564 1156.54 214.51 1155.23 215.189C1154.6 215.521 1154.14 215.946 1153.87 216.466C1153.6 216.985 1153.6 217.508 1153.87 218.033ZM1174.25 205.091L1172.67 216.516L1178.8 213.329L1179.51 214.692L1171.42 218.897L1170.93 217.96L1172.51 206.535L1166.81 209.501L1166.1 208.138L1173.76 204.154L1174.25 205.091ZM1180.46 200.352C1182.05 199.526 1183.61 199.427 1185.14 200.054C1186.7 200.653 1187.87 201.711 1188.66 203.23C1188.7 203.301 1188.8 203.529 1188.96 203.913L1179.61 208.771C1180.31 209.762 1181.2 210.378 1182.3 210.618C1183.4 210.859 1184.52 210.68 1185.67 210.083C1187.29 209.242 1188.12 208.044 1188.16 206.491L1189.77 206.573C1189.7 207.583 1189.37 208.522 1188.78 209.39C1188.19 210.237 1187.38 210.925 1186.36 211.457C1184.69 212.327 1183.05 212.51 1181.45 212.005C1179.86 211.501 1178.64 210.439 1177.8 208.82C1176.96 207.216 1176.79 205.619 1177.28 204.03C1177.77 202.427 1178.82 201.201 1180.46 200.352ZM1181.16 201.715C1180.06 202.291 1179.3 203.101 1178.88 204.145C1178.48 205.181 1178.49 206.269 1178.9 207.408L1186.85 203.28C1186.1 202.225 1185.21 201.577 1184.19 201.336C1183.12 201.095 1182.12 201.221 1181.16 201.715ZM1071.89 303.618C1070.28 304.452 1068.67 304.613 1067.06 304.101C1065.42 303.562 1064.2 302.511 1063.39 300.949C1062.57 299.373 1062.42 297.776 1062.93 296.158C1063.43 294.525 1064.49 293.293 1066.09 292.459C1067.14 291.913 1068.22 291.678 1069.32 291.754C1070.42 291.815 1071.38 292.173 1072.2 292.825L1071.4 294.083C1070.78 293.592 1070.06 293.327 1069.23 293.29C1068.4 293.232 1067.59 293.409 1066.8 293.822C1065.62 294.434 1064.84 295.362 1064.46 296.606C1064.07 297.836 1064.18 299.04 1064.79 300.219C1065.4 301.383 1066.32 302.173 1067.57 302.591C1068.8 302.979 1070 302.868 1071.18 302.255C1071.96 301.85 1072.57 301.3 1073 300.606C1073.45 299.905 1073.68 299.136 1073.7 298.298L1075.22 298.371C1075.22 299.452 1074.93 300.462 1074.33 301.401C1073.74 302.341 1072.93 303.08 1071.89 303.618ZM1083.15 286.57L1082.07 284.483L1083.47 283.752L1089 294.401L1087.6 295.131L1086.51 293.044C1086.35 295.115 1085.32 296.641 1083.43 297.622C1081.91 298.411 1080.33 298.547 1078.69 298.029C1077.07 297.503 1075.85 296.459 1075.04 294.897C1074.22 293.336 1074.07 291.738 1074.57 290.106C1075.09 288.466 1076.11 287.252 1077.63 286.463C1079.52 285.481 1081.36 285.517 1083.15 286.57ZM1079.22 296.539C1080.44 296.928 1081.65 296.816 1082.83 296.204C1084.01 295.591 1084.79 294.67 1085.18 293.441C1085.55 292.182 1085.44 290.971 1084.83 289.807C1084.22 288.629 1083.3 287.845 1082.07 287.456C1080.83 287.053 1079.62 287.158 1078.45 287.77C1077.27 288.383 1076.49 289.311 1076.11 290.555C1075.72 291.784 1075.83 292.989 1076.44 294.167C1077.05 295.331 1077.97 296.122 1079.22 296.539ZM1092.02 278.985C1093.54 278.196 1095.11 278.064 1096.74 278.589C1098.38 279.108 1099.6 280.148 1100.42 281.71C1101.23 283.271 1101.37 284.872 1100.86 286.512C1100.35 288.144 1099.34 289.355 1097.82 290.144C1095.93 291.126 1094.09 291.09 1092.3 290.037L1095.6 296.383L1094.19 297.114L1086.45 282.206L1087.85 281.476L1088.94 283.563C1089.11 281.492 1090.13 279.966 1092.02 278.985ZM1093.39 289.172C1094.62 289.561 1095.83 289.449 1097.01 288.837C1098.18 288.224 1098.97 287.303 1099.36 286.074C1099.73 284.815 1099.61 283.604 1099.01 282.44C1098.4 281.262 1097.48 280.478 1096.25 280.089C1095.01 279.686 1093.8 279.791 1092.62 280.403C1091.44 281.016 1090.66 281.944 1090.28 283.188C1089.89 284.417 1090.01 285.622 1090.62 286.8C1091.22 287.964 1092.15 288.755 1093.39 289.172ZM1100.01 270.995C1100.15 271.279 1100.18 271.572 1100.09 271.874C1099.99 272.176 1099.8 272.401 1099.52 272.548C1099.23 272.696 1098.94 272.722 1098.64 272.627C1098.33 272.531 1098.11 272.341 1097.96 272.057C1097.81 271.773 1097.79 271.48 1097.88 271.178C1097.98 270.876 1098.17 270.652 1098.45 270.504C1098.74 270.356 1099.03 270.33 1099.33 270.426C1099.63 270.521 1099.86 270.711 1100.01 270.995ZM1106.92 285.089L1105.52 285.819L1099.99 275.171L1101.39 274.441L1106.92 285.089ZM1110.02 269.958L1110.73 271.321L1107.66 272.915L1111.01 279.368C1111.31 279.95 1111.65 280.31 1112.01 280.447C1112.36 280.571 1112.77 280.521 1113.23 280.299C1113.68 280.063 1114.24 279.754 1114.91 279.372L1115.55 280.607C1114.15 281.623 1112.97 282.103 1112 282.047C1111.04 281.969 1110.24 281.319 1109.61 280.098L1106.25 273.645L1104.02 274.807L1103.31 273.444L1105.55 272.282L1104.22 269.727L1105.4 268.57L1106.95 271.552L1110.02 269.958ZM1121.96 266.405L1120.87 264.318L1122.28 263.588L1127.81 274.236L1126.41 274.966L1125.32 272.879C1125.15 274.95 1124.13 276.476 1122.24 277.457C1120.72 278.246 1119.14 278.382 1117.5 277.864C1115.87 277.338 1114.65 276.294 1113.84 274.732C1113.03 273.171 1112.88 271.574 1113.38 269.941C1113.9 268.302 1114.92 267.087 1116.44 266.298C1118.33 265.316 1120.17 265.352 1121.96 266.405ZM1118.02 276.374C1119.25 276.763 1120.46 276.651 1121.64 276.039C1122.81 275.426 1123.6 274.505 1123.99 273.276C1124.36 272.017 1124.24 270.806 1123.64 269.642C1123.03 268.464 1122.11 267.68 1120.88 267.291C1119.64 266.888 1118.43 266.993 1117.25 267.605C1116.07 268.218 1115.3 269.146 1114.91 270.39C1114.52 271.62 1114.64 272.824 1115.25 274.002C1115.85 275.166 1116.78 275.957 1118.02 276.374ZM1132.19 271.959L1130.79 272.69L1122.71 257.143L1124.12 256.413L1132.19 271.959ZM1148.73 261.665C1148.19 263.298 1147.14 264.516 1145.6 265.32C1144.02 266.139 1142.42 266.296 1140.78 265.792C1139.14 265.274 1137.91 264.227 1137.1 262.651C1136.28 261.075 1136.13 259.474 1136.66 257.849C1137.17 256.209 1138.22 254.98 1139.8 254.161C1141.36 253.349 1142.96 253.203 1144.6 253.721C1146.25 254.218 1147.48 255.254 1148.3 256.83C1149.11 258.392 1149.25 260.003 1148.73 261.665ZM1141.27 264.292C1142.5 264.681 1143.71 264.569 1144.89 263.957C1146.07 263.345 1146.85 262.424 1147.24 261.194C1147.61 259.936 1147.5 258.725 1146.89 257.56C1146.28 256.382 1145.36 255.598 1144.13 255.21C1142.89 254.807 1141.68 254.911 1140.5 255.524C1139.33 256.136 1138.55 257.064 1138.17 258.308C1137.78 259.538 1137.89 260.742 1138.5 261.92C1139.11 263.085 1140.03 263.875 1141.27 264.292ZM1156.08 240.018L1156.79 241.381C1155.71 241.834 1155.03 242.414 1154.75 243.119C1154.48 243.818 1154.61 244.678 1155.14 245.7L1155.47 246.339L1158.54 244.746L1159.25 246.109L1156.18 247.702L1161.01 256.987L1159.6 257.718L1154.78 248.432L1150.43 250.69L1155.26 259.975L1153.85 260.706L1149.03 251.42L1147.22 252.361L1146.51 250.998L1148.32 250.057L1148.1 249.631C1147.37 248.226 1147.2 246.969 1147.6 245.861C1148.01 244.745 1148.96 243.864 1150.44 243.219L1151.15 244.582C1150.07 245.035 1149.39 245.614 1149.11 246.32C1148.84 247.018 1148.97 247.879 1149.5 248.901L1149.72 249.327L1154.07 247.069L1153.74 246.431C1153.01 245.025 1152.84 243.768 1153.24 242.66C1153.65 241.544 1154.6 240.664 1156.08 240.018ZM1174.21 241.122L1181.66 237.249L1182.06 238.016C1183.02 239.862 1183.17 241.766 1182.51 243.73C1181.84 245.687 1180.4 247.238 1178.2 248.381C1175.92 249.561 1173.67 249.786 1171.43 249.055C1169.17 248.317 1167.49 246.877 1166.37 244.733C1165.26 242.589 1165.05 240.381 1165.74 238.109C1166.43 235.858 1167.91 234.143 1170.18 232.962C1171.55 232.254 1172.98 231.931 1174.49 231.993C1175.99 232.063 1177.34 232.489 1178.54 233.272L1177.62 234.725C1176.68 234.06 1175.61 233.697 1174.4 233.637C1173.2 233.577 1172.04 233.835 1170.94 234.41C1169.06 235.384 1167.86 236.777 1167.32 238.589C1166.78 240.422 1166.96 242.212 1167.86 243.958C1168.77 245.704 1170.13 246.882 1171.94 247.491C1173.74 248.093 1175.57 247.907 1177.44 246.933C1179.12 246.062 1180.24 244.946 1180.81 243.585C1181.37 242.217 1181.38 240.839 1180.86 239.451L1174.94 242.528L1174.21 241.122ZM1183.56 231.744L1184.48 233.512C1184.46 231.881 1185.25 230.652 1186.84 229.826L1187.55 231.189C1186.52 231.72 1185.86 232.442 1185.56 233.356C1185.25 234.255 1185.41 235.294 1186.02 236.472L1189.1 242.393L1187.69 243.123L1182.16 232.475L1183.56 231.744ZM1193 226.518C1194.59 225.692 1196.15 225.592 1197.68 226.22C1199.24 226.818 1200.41 227.877 1201.2 229.396C1201.24 229.467 1201.34 229.695 1201.5 230.079L1192.15 234.936C1192.85 235.927 1193.74 236.543 1194.84 236.784C1195.94 237.024 1197.06 236.846 1198.21 236.248C1199.83 235.407 1200.66 234.21 1200.7 232.656L1202.31 232.739C1202.24 233.749 1201.91 234.688 1201.32 235.556C1200.73 236.402 1199.92 237.091 1198.9 237.622C1197.23 238.493 1195.59 238.676 1193.99 238.171C1192.4 237.666 1191.18 236.605 1190.34 234.986C1189.5 233.382 1189.33 231.785 1189.82 230.196C1190.31 228.592 1191.36 227.367 1193 226.518ZM1193.7 227.881C1192.6 228.457 1191.84 229.266 1191.42 230.31C1191.02 231.347 1191.03 232.435 1191.44 233.573L1199.39 229.446C1198.64 228.391 1197.75 227.743 1196.73 227.501C1195.66 227.26 1194.66 227.387 1193.7 227.881ZM1210.89 220.196L1209.8 218.109L1211.21 217.379L1216.74 228.027L1215.34 228.758L1214.25 226.671C1214.08 228.741 1213.06 230.267 1211.17 231.249C1209.65 232.038 1208.07 232.173 1206.43 231.655C1204.8 231.129 1203.59 230.086 1202.77 228.524C1201.96 226.962 1201.81 225.365 1202.31 223.733C1202.83 222.093 1203.85 220.878 1205.37 220.089C1207.26 219.108 1209.1 219.144 1210.89 220.196ZM1206.95 230.166C1208.18 230.554 1209.39 230.443 1210.57 229.83C1211.74 229.218 1212.53 228.297 1212.92 227.067C1213.29 225.809 1213.17 224.598 1212.57 223.434C1211.96 222.255 1211.04 221.472 1209.81 221.083C1208.57 220.68 1207.36 220.784 1206.18 221.397C1205.01 222.009 1204.23 222.937 1203.84 224.181C1203.46 225.411 1203.57 226.615 1204.18 227.793C1204.78 228.958 1205.71 229.748 1206.95 230.166ZM1219.83 212.9L1220.54 214.263L1217.47 215.857L1220.82 222.31C1221.13 222.892 1221.46 223.251 1221.82 223.389C1222.17 223.512 1222.58 223.463 1223.04 223.241C1223.49 223.005 1224.05 222.696 1224.72 222.313L1225.36 223.549C1223.96 224.565 1222.78 225.045 1221.81 224.989C1220.85 224.91 1220.05 224.261 1219.42 223.04L1216.06 216.587L1213.83 217.749L1213.12 216.386L1215.36 215.224L1214.03 212.668L1215.21 211.512L1216.76 214.494L1219.83 212.9ZM1136.56 292.556C1137.46 292.485 1138.29 292.658 1139.04 293.075C1139.8 293.493 1140.39 294.099 1140.8 294.894C1141.4 296.044 1141.5 297.234 1141.11 298.464C1140.72 299.694 1139.96 300.607 1138.81 301.205L1132.31 304.58L1124.56 289.672L1130.57 286.552C1131.66 285.984 1132.81 285.891 1134.02 286.273C1135.21 286.648 1136.09 287.382 1136.65 288.475C1137.38 289.867 1137.34 291.227 1136.56 292.556ZM1131.3 287.957L1126.78 290.303L1129.48 295.5L1134 293.154C1134.68 292.8 1135.14 292.245 1135.38 291.49C1135.6 290.706 1135.53 289.96 1135.16 289.25C1134.8 288.554 1134.24 288.073 1133.47 287.806C1132.7 287.553 1131.98 287.603 1131.3 287.957ZM1133.07 302.4L1138.07 299.799C1138.81 299.416 1139.3 298.829 1139.54 298.038C1139.79 297.239 1139.72 296.45 1139.31 295.669C1138.91 294.902 1138.31 294.393 1137.51 294.14C1136.72 293.866 1135.96 293.921 1135.22 294.305L1130.22 296.905L1133.07 302.4ZM1141.18 286.45L1142.09 288.218C1142.08 286.586 1142.86 285.357 1144.45 284.531L1145.16 285.894C1144.14 286.425 1143.48 287.148 1143.18 288.061C1142.87 288.961 1143.02 289.999 1143.63 291.178L1146.71 297.098L1145.3 297.829L1139.77 287.18L1141.18 286.45ZM1146.49 279.525C1146.64 279.809 1146.66 280.102 1146.57 280.404C1146.47 280.706 1146.28 280.93 1146 281.078C1145.71 281.226 1145.42 281.252 1145.12 281.156C1144.82 281.061 1144.59 280.871 1144.44 280.587C1144.3 280.303 1144.27 280.01 1144.37 279.708C1144.46 279.406 1144.65 279.181 1144.93 279.034C1145.22 278.886 1145.51 278.86 1145.81 278.955C1146.12 279.051 1146.34 279.241 1146.49 279.525ZM1153.41 293.619L1152 294.349L1146.47 283.701L1147.87 282.97L1153.41 293.619ZM1156.5 278.488L1157.21 279.851L1154.14 281.444L1157.49 287.897C1157.8 288.479 1158.13 288.839 1158.49 288.977C1158.84 289.1 1159.25 289.051 1159.71 288.829C1160.16 288.593 1160.72 288.284 1161.39 287.901L1162.03 289.136C1160.63 290.153 1159.45 290.633 1158.48 290.576C1157.52 290.498 1156.72 289.849 1156.09 288.628L1152.73 282.175L1150.5 283.337L1149.79 281.974L1152.03 280.812L1150.7 278.256L1151.88 277.1L1153.43 280.081L1156.5 278.488ZM1168.44 274.935L1167.35 272.847L1168.76 272.117L1174.29 282.765L1172.89 283.496L1171.8 281.409C1171.63 283.479 1170.61 285.005 1168.72 285.987C1167.2 286.776 1165.62 286.911 1163.98 286.393C1162.35 285.867 1161.14 284.824 1160.32 283.262C1159.51 281.7 1159.36 280.103 1159.86 278.471C1160.38 276.831 1161.4 275.617 1162.92 274.827C1164.81 273.846 1166.65 273.882 1168.44 274.935ZM1164.5 284.904C1165.73 285.292 1166.94 285.181 1168.12 284.568C1169.29 283.956 1170.08 283.035 1170.47 281.805C1170.84 280.547 1170.73 279.336 1170.12 278.172C1169.51 276.993 1168.59 276.21 1167.36 275.821C1166.12 275.418 1164.91 275.523 1163.73 276.135C1162.56 276.747 1161.78 277.675 1161.39 278.919C1161.01 280.149 1161.12 281.353 1161.73 282.532C1162.33 283.696 1163.26 284.486 1164.5 284.904ZM1176.59 267.726C1177.86 267.062 1179.09 266.932 1180.25 267.336C1181.41 267.726 1182.34 268.588 1183.03 269.923L1186.43 276.461L1185.02 277.191L1181.62 270.653C1181.13 269.702 1180.49 269.096 1179.71 268.837C1178.94 268.569 1178.09 268.676 1177.17 269.155C1176.1 269.708 1175.43 270.481 1175.15 271.473C1174.89 272.457 1175.1 273.603 1175.78 274.909L1178.67 280.489L1177.27 281.219L1171.74 270.571L1173.14 269.84L1174 271.502C1174.14 269.811 1175 268.552 1176.59 267.726Z" fill="white"/>
</svg>
