<svg width="1920" height="1080" viewBox="0 0 1920 1080" fill="none" xmlns="http://www.w3.org/2000/svg">
    <path d="M1115.01 246.127C1115.89 246.24 1116.66 246.577 1117.32 247.136C1117.99 247.676 1118.45 248.384 1118.7 249.261C1119.06 250.507 1118.93 251.694 1118.3 252.822C1117.68 253.95 1116.74 254.693 1115.5 255.051L1108.46 257.07L1103.82 240.922L1110.33 239.055C1111.53 238.711 1112.68 238.848 1113.77 239.466C1114.86 240.069 1115.57 240.963 1115.91 242.147C1116.34 243.654 1116.04 244.981 1115.01 246.127ZM1110.77 240.577L1105.88 241.981L1107.49 247.61L1112.38 246.206C1113.14 245.99 1113.7 245.538 1114.07 244.849C1114.45 244.141 1114.52 243.395 1114.3 242.61C1114.08 241.842 1113.62 241.257 1112.92 240.858C1112.24 240.455 1111.52 240.361 1110.77 240.577ZM1115.06 253.528C1115.86 253.299 1116.45 252.82 1116.84 252.092C1117.25 251.344 1117.33 250.555 1117.09 249.725C1116.85 248.909 1116.37 248.291 1115.63 247.87C1114.91 247.445 1114.15 247.347 1113.35 247.576L1107.93 249.132L1109.64 255.084L1115.06 253.528ZM1124.47 239.69C1126.18 239.2 1127.73 239.412 1129.13 240.327C1130.53 241.222 1131.47 242.492 1131.94 244.138C1131.99 244.307 1132.04 244.55 1132.1 244.866L1121.97 247.773C1122.46 248.897 1123.22 249.687 1124.25 250.14C1125.29 250.574 1126.43 250.615 1127.66 250.261C1128.53 250.01 1129.24 249.617 1129.77 249.082C1130.31 248.527 1130.65 247.912 1130.81 247.235L1132.37 247.635C1132.1 248.596 1131.59 249.44 1130.85 250.168C1130.11 250.897 1129.18 251.422 1128.06 251.744C1126.24 252.265 1124.6 252.12 1123.14 251.309C1121.67 250.497 1120.69 249.215 1120.19 247.462C1119.69 245.739 1119.84 244.14 1120.63 242.665C1121.42 241.189 1122.7 240.197 1124.47 239.69ZM1124.9 241.166C1123.7 241.51 1122.79 242.161 1122.19 243.118C1121.59 244.055 1121.38 245.114 1121.55 246.296L1130.15 243.827C1129.65 242.656 1128.91 241.845 1127.93 241.393C1126.95 240.942 1125.94 240.866 1124.9 241.166ZM1146.77 233.59L1148.38 233.127L1147.06 247.139C1146.94 248.405 1146.56 249.48 1145.91 250.364C1145.29 251.26 1144.46 251.815 1143.42 252.029L1143.01 250.599C1144.44 250.355 1145.26 249.253 1145.48 247.293L1145.58 246.491L1137.08 236.371L1138.69 235.908L1145.8 244.328L1146.77 233.59ZM1162.33 240.034C1161.49 241.523 1160.23 242.51 1158.54 242.996C1156.84 243.482 1155.24 243.318 1153.73 242.504C1152.22 241.671 1151.22 240.401 1150.73 238.693C1150.24 236.986 1150.42 235.388 1151.26 233.9C1152.11 232.391 1153.38 231.394 1155.07 230.908C1156.76 230.423 1158.36 230.596 1159.86 231.43C1161.38 232.243 1162.38 233.504 1162.87 235.211C1163.36 236.918 1163.18 238.526 1162.33 240.034ZM1154.51 241.132C1155.63 241.757 1156.84 241.886 1158.11 241.52C1159.39 241.153 1160.34 240.406 1160.96 239.278C1161.59 238.134 1161.71 236.924 1161.35 235.648C1160.98 234.371 1160.23 233.42 1159.1 232.795C1157.97 232.155 1156.77 232.018 1155.49 232.384C1154.21 232.751 1153.27 233.506 1152.65 234.649C1152.02 235.778 1151.89 236.98 1152.26 238.256C1152.62 239.533 1153.37 240.491 1154.51 241.132ZM1171.88 226.381L1173.4 225.944L1176.71 237.479L1175.19 237.916L1174.68 236.116C1174.21 237.748 1173.12 238.81 1171.4 239.305C1170 239.707 1168.77 239.601 1167.71 238.99C1166.66 238.358 1165.93 237.319 1165.52 235.874L1163.48 228.792L1165.01 228.355L1167.04 235.437C1167.34 236.467 1167.83 237.189 1168.54 237.604C1169.25 238.014 1170.11 238.076 1171.11 237.789C1172.22 237.471 1173.02 236.867 1173.51 235.976C1174 235.07 1174.04 233.886 1173.62 232.425L1171.88 226.381ZM1178.7 226.498C1179 224.895 1180.02 223.847 1181.74 223.352L1182.16 224.829C1181.12 225.129 1180.34 225.686 1179.82 226.499C1179.31 227.313 1179.24 228.381 1179.62 229.704L1181.46 236.117L1179.94 236.554L1176.62 225.02L1178.15 224.583L1178.7 226.498ZM1185.49 225.745C1185.65 226.268 1185.99 226.617 1186.54 226.792C1187.09 226.967 1187.72 227.044 1188.43 227.024C1189.14 227.003 1189.86 227.005 1190.58 227.031C1191.3 227.041 1191.96 227.226 1192.57 227.586C1193.16 227.93 1193.58 228.494 1193.8 229.279C1194.08 230.263 1193.92 231.175 1193.31 232.015C1192.72 232.851 1191.81 233.446 1190.58 233.799C1189.47 234.117 1188.45 234.142 1187.53 233.875C1186.62 233.604 1185.9 233.12 1185.36 232.424L1186.44 231.292C1186.83 231.83 1187.35 232.196 1188 232.391C1188.67 232.566 1189.39 232.543 1190.15 232.322C1190.91 232.106 1191.5 231.779 1191.92 231.341C1192.34 230.888 1192.46 230.346 1192.28 229.716C1192.13 229.193 1191.78 228.844 1191.23 228.668C1190.68 228.493 1190.05 228.416 1189.34 228.437C1188.63 228.457 1187.91 228.463 1187.2 228.453C1186.47 228.427 1185.81 228.242 1185.21 227.898C1184.61 227.538 1184.2 226.966 1183.97 226.182C1183.7 225.244 1183.85 224.353 1184.4 223.511C1184.98 222.664 1185.83 222.077 1186.97 221.751C1187.91 221.481 1188.79 221.461 1189.62 221.688C1190.45 221.9 1191.14 222.319 1191.68 222.945L1190.63 224.047C1189.87 223.099 1188.79 222.825 1187.39 223.227C1186.73 223.417 1186.21 223.742 1185.83 224.202C1185.44 224.646 1185.33 225.16 1185.49 225.745ZM1198.81 218.351C1200.52 217.861 1202.07 218.073 1203.47 218.988C1204.87 219.883 1205.81 221.153 1206.28 222.799C1206.33 222.968 1206.39 223.211 1206.44 223.527L1196.32 226.434C1196.81 227.559 1197.56 228.348 1198.59 228.802C1199.63 229.235 1200.77 229.276 1202 228.923C1202.88 228.671 1203.58 228.278 1204.11 227.743C1204.65 227.189 1205 226.573 1205.15 225.896L1206.71 226.296C1206.44 227.257 1205.93 228.101 1205.19 228.83C1204.45 229.558 1203.52 230.083 1202.4 230.406C1200.59 230.927 1198.95 230.781 1197.48 229.97C1196.02 229.159 1195.03 227.876 1194.53 226.123C1194.03 224.401 1194.18 222.802 1194.97 221.326C1195.77 219.85 1197.05 218.859 1198.81 218.351ZM1199.24 219.827C1198.04 220.172 1197.14 220.822 1196.53 221.779C1195.93 222.716 1195.72 223.775 1195.89 224.958L1204.5 222.488C1203.99 221.317 1203.25 220.506 1202.28 220.054C1201.3 219.603 1200.28 219.527 1199.24 219.827ZM1210.35 227.825L1205.51 210.985L1207.04 210.548L1211.87 227.388L1210.35 227.825ZM1216.58 209.857C1215.43 210.086 1214.65 210.519 1214.23 211.155C1213.83 211.786 1213.79 212.655 1214.1 213.763L1214.24 214.224L1217.56 213.271L1217.98 214.747L1214.66 215.701L1217.55 225.758L1216.02 226.195L1213.14 216.138L1211.18 216.7L1210.75 215.224L1212.71 214.661L1212.58 214.2C1212.15 212.693 1212.24 211.435 1212.85 210.428C1213.47 209.401 1214.57 208.718 1216.15 208.38L1216.58 209.857ZM1223.09 222.045L1223.2 227.632L1221.81 228.03L1221.25 222.574L1223.09 222.045ZM1105.13 275.414C1106.83 274.924 1108.38 275.137 1109.78 276.051C1111.18 276.946 1112.12 278.217 1112.59 279.862C1112.64 280.031 1112.7 280.274 1112.75 280.59L1102.63 283.497C1103.12 284.622 1103.87 285.411 1104.9 285.865C1105.94 286.299 1107.08 286.339 1108.31 285.986C1109.19 285.734 1109.89 285.341 1110.42 284.806C1110.96 284.252 1111.31 283.636 1111.46 282.959L1113.02 283.359C1112.75 284.32 1112.24 285.165 1111.5 285.893C1110.76 286.621 1109.83 287.147 1108.71 287.469C1106.9 287.99 1105.26 287.845 1103.79 287.033C1102.33 286.222 1101.34 284.939 1100.84 283.186C1100.34 281.464 1100.49 279.865 1101.28 278.389C1102.08 276.913 1103.36 275.922 1105.13 275.414ZM1105.55 276.891C1104.35 277.235 1103.45 277.885 1102.84 278.842C1102.24 279.779 1102.03 280.839 1102.2 282.021L1110.81 279.551C1110.3 278.38 1109.56 277.569 1108.59 277.118C1107.61 276.666 1106.59 276.59 1105.55 276.891ZM1121.2 271.099L1122.82 270.636L1121.4 283.527L1119.55 284.057L1111.51 273.88L1113.13 273.417L1120.02 282.201L1121.2 271.099ZM1129.46 268.431C1131.16 267.941 1132.71 268.153 1134.11 269.068C1135.51 269.963 1136.45 271.233 1136.92 272.879C1136.97 273.048 1137.03 273.29 1137.08 273.607L1126.96 276.514C1127.45 277.638 1128.2 278.428 1129.23 278.881C1130.27 279.315 1131.41 279.355 1132.64 279.002C1133.52 278.751 1134.22 278.358 1134.75 277.823C1135.29 277.268 1135.64 276.653 1135.79 275.975L1137.35 276.376C1137.08 277.336 1136.57 278.181 1135.83 278.909C1135.09 279.638 1134.16 280.163 1133.04 280.485C1131.23 281.006 1129.59 280.861 1128.12 280.05C1126.66 279.238 1125.67 277.956 1125.17 276.203C1124.67 274.48 1124.82 272.881 1125.61 271.406C1126.41 269.93 1127.69 268.938 1129.46 268.431ZM1129.88 269.907C1128.68 270.251 1127.78 270.902 1127.17 271.859C1126.57 272.796 1126.36 273.855 1126.53 275.037L1135.14 272.568C1134.63 271.397 1133.89 270.586 1132.92 270.134C1131.94 269.682 1130.92 269.607 1129.88 269.907ZM1139.75 267.848C1140.06 266.245 1141.07 265.197 1142.79 264.702L1143.22 266.179C1142.17 266.479 1141.39 267.036 1140.87 267.85C1140.36 268.663 1140.29 269.732 1140.67 271.054L1142.51 277.467L1140.99 277.904L1137.68 266.37L1139.2 265.933L1139.75 267.848ZM1153.46 261.84L1155.08 261.376L1153.75 275.388C1153.64 276.655 1153.25 277.73 1152.61 278.614C1151.98 279.509 1151.15 280.064 1150.11 280.279L1149.7 278.848C1151.13 278.605 1151.96 277.503 1152.18 275.542L1152.27 274.741L1143.77 264.621L1145.39 264.157L1152.5 272.578L1153.46 261.84ZM1169.03 268.284C1168.19 269.773 1166.92 270.76 1165.23 271.245C1163.54 271.731 1161.94 271.567 1160.42 270.754C1158.92 269.92 1157.92 268.65 1157.43 266.943C1156.94 265.236 1157.11 263.638 1157.95 262.149C1158.8 260.64 1160.07 259.643 1161.76 259.158C1163.45 258.672 1165.05 258.846 1166.56 259.679C1168.07 260.493 1169.07 261.753 1169.56 263.46C1170.05 265.167 1169.87 266.775 1169.03 268.284ZM1161.2 269.381C1162.33 270.006 1163.53 270.135 1164.81 269.769C1166.08 269.403 1167.03 268.655 1167.66 267.527C1168.28 266.384 1168.41 265.174 1168.04 263.897C1167.67 262.621 1166.93 261.67 1165.8 261.045C1164.67 260.405 1163.46 260.268 1162.19 260.634C1160.91 261 1159.96 261.755 1159.34 262.899C1158.71 264.027 1158.59 265.23 1158.95 266.506C1159.32 267.782 1160.07 268.741 1161.2 269.381ZM1175.77 255.135C1177.17 254.734 1178.4 254.849 1179.44 255.48C1180.5 256.092 1181.24 257.121 1181.65 258.567L1183.69 265.649L1182.16 266.086L1180.13 259.004C1179.83 257.973 1179.33 257.253 1178.61 256.843C1177.91 256.428 1177.06 256.365 1176.06 256.652C1174.95 256.969 1174.15 257.581 1173.67 258.487C1173.17 259.378 1173.13 260.554 1173.55 262.015L1175.29 268.059L1173.77 268.496L1170.46 256.962L1171.98 256.525L1172.49 258.324C1172.96 256.693 1174.05 255.63 1175.77 255.135ZM1188.57 251.463C1190.28 250.973 1191.83 251.185 1193.22 252.1C1194.63 252.995 1195.57 254.265 1196.04 255.911C1196.09 256.08 1196.14 256.323 1196.2 256.639L1186.07 259.546C1186.56 260.671 1187.32 261.46 1188.35 261.914C1189.39 262.348 1190.52 262.388 1191.75 262.035C1192.63 261.783 1193.33 261.39 1193.86 260.855C1194.4 260.301 1194.75 259.685 1194.9 259.008L1196.47 259.408C1196.19 260.369 1195.69 261.214 1194.95 261.942C1194.21 262.67 1193.28 263.196 1192.15 263.518C1190.34 264.039 1188.7 263.893 1187.23 263.082C1185.77 262.271 1184.79 260.988 1184.28 259.235C1183.79 257.513 1183.94 255.914 1184.73 254.438C1185.52 252.962 1186.8 251.971 1188.57 251.463ZM1188.99 252.939C1187.79 253.284 1186.89 253.934 1186.28 254.891C1185.68 255.828 1185.47 256.888 1185.65 258.07L1194.25 255.6C1193.75 254.429 1193.01 253.618 1192.03 253.166C1191.05 252.715 1190.04 252.639 1188.99 252.939ZM1207.81 245.941C1209.51 245.451 1211.06 245.663 1212.46 246.578C1213.86 247.473 1214.8 248.743 1215.28 250.389C1215.32 250.558 1215.38 250.801 1215.44 251.117L1205.31 254.024C1205.8 255.149 1206.56 255.938 1207.59 256.391C1208.63 256.825 1209.76 256.866 1210.99 256.513C1211.87 256.261 1212.57 255.868 1213.1 255.333C1213.64 254.779 1213.99 254.163 1214.14 253.486L1215.71 253.886C1215.43 254.847 1214.93 255.691 1214.19 256.42C1213.45 257.148 1212.51 257.673 1211.39 257.996C1209.58 258.516 1207.94 258.371 1206.47 257.56C1205.01 256.748 1204.02 255.466 1203.52 253.713C1203.03 251.991 1203.18 250.391 1203.97 248.916C1204.76 247.44 1206.04 246.448 1207.81 245.941ZM1208.23 247.417C1207.03 247.762 1206.13 248.412 1205.52 249.369C1204.92 250.306 1204.71 251.365 1204.88 252.548L1213.49 250.078C1212.99 248.907 1212.25 248.096 1211.27 247.644C1210.29 247.193 1209.28 247.117 1208.23 247.417ZM1219.34 255.415L1214.51 238.575L1216.03 238.138L1220.86 254.978L1219.34 255.415ZM1222.85 245.194C1223 245.717 1223.35 246.066 1223.9 246.241C1224.45 246.416 1225.08 246.493 1225.79 246.472C1226.5 246.452 1227.21 246.454 1227.94 246.48C1228.66 246.49 1229.32 246.675 1229.92 247.034C1230.52 247.379 1230.93 247.943 1231.15 248.727C1231.44 249.712 1231.27 250.624 1230.67 251.464C1230.07 252.3 1229.16 252.895 1227.93 253.248C1226.83 253.566 1225.81 253.591 1224.88 253.324C1223.97 253.053 1223.25 252.569 1222.72 251.873L1223.79 250.741C1224.18 251.279 1224.7 251.645 1225.36 251.84C1226.02 252.015 1226.74 251.992 1227.51 251.771C1228.26 251.555 1228.85 251.228 1229.28 250.79C1229.69 250.337 1229.81 249.795 1229.63 249.164C1229.48 248.642 1229.13 248.292 1228.58 248.117C1228.03 247.942 1227.4 247.865 1226.69 247.886C1225.98 247.906 1225.27 247.912 1224.55 247.901C1223.83 247.876 1223.17 247.691 1222.57 247.347C1221.97 246.987 1221.55 246.415 1221.33 245.631C1221.06 244.693 1221.2 243.802 1221.76 242.96C1222.33 242.113 1223.19 241.526 1224.33 241.2C1225.26 240.93 1226.15 240.909 1226.98 241.137C1227.81 241.349 1228.49 241.768 1229.04 242.394L1227.98 243.496C1227.23 242.548 1226.15 242.274 1224.75 242.676C1224.09 242.866 1223.56 243.191 1223.18 243.65C1222.79 244.095 1222.68 244.609 1222.85 245.194ZM1236.17 237.8C1237.88 237.31 1239.43 237.522 1240.82 238.437C1242.23 239.332 1243.17 240.602 1243.64 242.248C1243.69 242.417 1243.74 242.66 1243.8 242.976L1233.67 245.883C1234.16 247.008 1234.92 247.797 1235.95 248.25C1236.99 248.684 1238.12 248.725 1239.35 248.372C1240.23 248.12 1240.93 247.727 1241.46 247.192C1242 246.638 1242.35 246.022 1242.51 245.345L1244.07 245.745C1243.79 246.706 1243.29 247.55 1242.55 248.279C1241.81 249.007 1240.88 249.532 1239.75 249.855C1237.94 250.375 1236.3 250.23 1234.84 249.419C1233.37 248.607 1232.39 247.325 1231.88 245.572C1231.39 243.849 1231.54 242.25 1232.33 240.775C1233.12 239.299 1234.4 238.307 1236.17 237.8ZM1236.59 239.276C1235.39 239.62 1234.49 240.271 1233.88 241.228C1233.29 242.165 1233.07 243.224 1233.25 244.407L1241.85 241.937C1241.35 240.766 1240.61 239.955 1239.63 239.503C1238.65 239.052 1237.64 238.976 1236.59 239.276ZM1130.12 295.714C1129.97 295.991 1129.74 296.174 1129.43 296.262C1129.12 296.351 1128.83 296.318 1128.55 296.165C1128.27 296.011 1128.09 295.78 1128 295.473C1127.91 295.165 1127.95 294.873 1128.1 294.596C1128.25 294.319 1128.48 294.136 1128.79 294.048C1129.1 293.959 1129.39 293.992 1129.67 294.146C1129.95 294.299 1130.13 294.53 1130.22 294.837C1130.31 295.145 1130.27 295.437 1130.12 295.714ZM1132.68 310.46L1129.37 298.926L1130.89 298.489L1134.2 310.023L1132.68 310.46ZM1136.19 300.239C1136.34 300.762 1136.69 301.111 1137.24 301.286C1137.79 301.462 1138.42 301.539 1139.13 301.518C1139.84 301.498 1140.55 301.5 1141.28 301.525C1142 301.536 1142.66 301.72 1143.26 302.08C1143.86 302.425 1144.27 302.989 1144.49 303.773C1144.78 304.757 1144.61 305.67 1144.01 306.51C1143.41 307.346 1142.5 307.94 1141.27 308.294C1140.16 308.611 1139.15 308.637 1138.22 308.37C1137.31 308.098 1136.59 307.615 1136.06 306.919L1137.13 305.787C1137.52 306.324 1138.04 306.691 1138.7 306.886C1139.36 307.061 1140.08 307.038 1140.85 306.817C1141.6 306.601 1142.19 306.274 1142.61 305.836C1143.03 305.383 1143.15 304.841 1142.97 304.21C1142.82 303.687 1142.47 303.338 1141.92 303.163C1141.37 302.988 1140.74 302.911 1140.03 302.931C1139.32 302.952 1138.61 302.957 1137.89 302.947C1137.17 302.922 1136.51 302.737 1135.91 302.392C1135.31 302.033 1134.89 301.461 1134.67 300.676C1134.4 299.738 1134.54 298.848 1135.1 298.006C1135.67 297.159 1136.53 296.572 1137.66 296.245C1138.6 295.976 1139.49 295.955 1140.32 296.183C1141.14 296.395 1141.83 296.814 1142.38 297.44L1141.32 298.542C1140.56 297.593 1139.49 297.32 1138.09 297.722C1137.43 297.912 1136.9 298.236 1136.52 298.696C1136.13 299.141 1136.02 299.655 1136.19 300.239ZM1160.28 290.052L1161.81 289.615L1165.12 301.15L1163.59 301.587L1162.95 299.326C1162.37 301.322 1161.06 302.614 1159.01 303.201C1157.37 303.673 1155.79 303.493 1154.29 302.659C1152.8 301.822 1151.81 300.557 1151.33 298.865C1150.84 297.174 1151.01 295.578 1151.83 294.078C1152.66 292.574 1153.9 291.585 1155.54 291.113C1157.59 290.526 1159.39 290.926 1160.93 292.313L1160.28 290.052ZM1155.1 301.304C1156.23 301.929 1157.43 302.058 1158.71 301.691C1159.98 301.325 1160.93 300.578 1161.56 299.45C1162.18 298.306 1162.31 297.096 1161.94 295.819C1161.57 294.543 1160.83 293.592 1159.7 292.967C1158.56 292.327 1157.36 292.19 1156.08 292.556C1154.81 292.923 1153.86 293.678 1153.24 294.821C1152.61 295.95 1152.48 297.152 1152.85 298.428C1153.22 299.705 1153.97 300.663 1155.1 301.304ZM1168.34 300.224L1163.51 283.384L1165.03 282.947L1169.86 299.787L1168.34 300.224ZM1171.86 288.803C1172.16 287.201 1173.18 286.152 1174.9 285.658L1175.32 287.134C1174.28 287.434 1173.5 287.991 1172.98 288.805C1172.46 289.619 1172.4 290.687 1172.78 292.01L1174.62 298.423L1173.09 298.86L1169.78 287.326L1171.31 286.889L1171.86 288.803ZM1181.59 283.638C1183.3 283.148 1184.85 283.36 1186.24 284.275C1187.65 285.17 1188.58 286.44 1189.06 288.085C1189.11 288.255 1189.16 288.497 1189.22 288.814L1179.09 291.721C1179.58 292.845 1180.34 293.635 1181.37 294.088C1182.41 294.522 1183.54 294.562 1184.77 294.209C1185.65 293.958 1186.35 293.565 1186.88 293.03C1187.42 292.475 1187.77 291.86 1187.92 291.182L1189.49 291.583C1189.21 292.543 1188.71 293.388 1187.97 294.116C1187.23 294.845 1186.3 295.37 1185.17 295.692C1183.36 296.213 1181.72 296.068 1180.25 295.257C1178.79 294.445 1177.81 293.163 1177.3 291.41C1176.81 289.687 1176.96 288.088 1177.75 286.613C1178.54 285.137 1179.82 284.145 1181.59 283.638ZM1182.01 285.114C1180.81 285.458 1179.91 286.109 1179.3 287.066C1178.7 288.003 1178.49 289.062 1178.67 290.244L1187.27 287.774C1186.77 286.604 1186.03 285.793 1185.05 285.341C1184.07 284.889 1183.06 284.814 1182.01 285.114ZM1199.73 278.73L1201.25 278.293L1204.56 289.827L1203.04 290.264L1202.39 288.003C1201.82 290 1200.51 291.291 1198.46 291.878C1196.81 292.351 1195.24 292.17 1193.74 291.337C1192.25 290.499 1191.26 289.235 1190.77 287.543C1190.29 285.851 1190.45 284.255 1191.27 282.755C1192.11 281.251 1193.35 280.263 1194.99 279.791C1197.04 279.203 1198.83 279.603 1200.38 280.991L1199.73 278.73ZM1194.54 289.981C1195.67 290.606 1196.88 290.735 1198.15 290.369C1199.43 290.003 1200.38 289.255 1201 288.127C1201.62 286.983 1201.75 285.773 1201.39 284.497C1201.02 283.221 1200.27 282.27 1199.14 281.645C1198.01 281.004 1196.81 280.867 1195.53 281.234C1194.25 281.6 1193.3 282.355 1192.68 283.499C1192.06 284.627 1191.93 285.829 1192.3 287.106C1192.66 288.382 1193.41 289.341 1194.54 289.981ZM1213.07 269.907L1214.59 269.47L1219.23 285.618L1217.71 286.055L1217.06 283.794C1216.48 285.79 1215.17 287.082 1213.13 287.669C1211.48 288.141 1209.91 287.961 1208.4 287.127C1206.91 286.29 1205.93 285.025 1205.44 283.333C1204.95 281.642 1205.12 280.046 1205.94 278.546C1206.77 277.042 1208.01 276.053 1209.66 275.581C1211.7 274.994 1213.5 275.394 1215.04 276.781L1213.07 269.907ZM1209.21 285.772C1210.34 286.397 1211.54 286.526 1212.82 286.159C1214.09 285.793 1215.04 285.046 1215.67 283.918C1216.29 282.774 1216.42 281.564 1216.05 280.287C1215.68 279.011 1214.94 278.06 1213.81 277.435C1212.68 276.795 1211.47 276.658 1210.2 277.024C1208.92 277.391 1207.97 278.146 1207.35 279.289C1206.72 280.417 1206.6 281.62 1206.96 282.896C1207.33 284.173 1208.08 285.131 1209.21 285.772ZM1227.45 270.774L1229.06 270.311L1227.74 284.323C1227.62 285.589 1227.24 286.664 1226.59 287.549C1225.97 288.444 1225.14 288.999 1224.1 289.213L1223.69 287.783C1225.12 287.539 1225.94 286.437 1226.16 284.477L1226.26 283.676L1217.76 273.555L1219.37 273.092L1226.48 281.513L1227.45 270.774ZM1165.07 320.447L1161.75 321.401L1163.76 328.39C1163.94 329.021 1164.19 329.439 1164.52 329.646C1164.84 329.836 1165.25 329.869 1165.74 329.743C1166.23 329.602 1166.84 329.41 1167.57 329.167L1167.96 330.505C1166.41 331.215 1165.17 331.448 1164.21 331.205C1163.28 330.958 1162.62 330.165 1162.23 328.827L1160.23 321.838L1157.8 322.533L1157.38 321.057L1159.8 320.361L1159.01 317.593L1160.4 316.695L1161.33 319.924L1164.65 318.971L1165.07 320.447ZM1176.41 315.596L1177.93 315.159L1181.24 326.693L1179.72 327.13L1179.07 324.869C1178.49 326.865 1177.18 328.157 1175.14 328.744C1173.49 329.217 1171.92 329.036 1170.41 328.203C1168.92 327.365 1167.94 326.1 1167.45 324.409C1166.96 322.717 1167.13 321.121 1167.95 319.621C1168.78 318.117 1170.02 317.129 1171.67 316.656C1173.71 316.069 1175.51 316.469 1177.05 317.856L1176.41 315.596ZM1171.22 326.847C1172.35 327.472 1173.55 327.601 1174.83 327.235C1176.1 326.868 1177.06 326.121 1177.68 324.993C1178.3 323.849 1178.43 322.639 1178.06 321.363C1177.69 320.086 1176.95 319.136 1175.82 318.511C1174.69 317.87 1173.48 317.733 1172.21 318.1C1170.93 318.466 1169.98 319.221 1169.36 320.365C1168.74 321.493 1168.61 322.695 1168.97 323.972C1169.34 325.248 1170.09 326.207 1171.22 326.847ZM1193.78 323.093L1191.75 323.675L1184.39 319.771L1185.99 325.331L1184.46 325.768L1179.83 309.62L1181.35 309.183L1184.14 318.894L1188.16 312.22L1190.24 311.624L1185.88 318.869L1193.78 323.093ZM1196.65 309.485C1198.36 308.995 1199.91 309.207 1201.3 310.122C1202.71 311.017 1203.65 312.287 1204.12 313.933C1204.17 314.102 1204.22 314.345 1204.28 314.661L1194.15 317.568C1194.64 318.693 1195.4 319.482 1196.43 319.935C1197.47 320.369 1198.61 320.41 1199.84 320.057C1200.71 319.805 1201.42 319.412 1201.94 318.877C1202.48 318.323 1202.83 317.707 1202.99 317.03L1204.55 317.43C1204.28 318.391 1203.77 319.235 1203.03 319.964C1202.29 320.692 1201.36 321.217 1200.24 321.54C1198.42 322.06 1196.78 321.915 1195.32 321.104C1193.85 320.292 1192.87 319.01 1192.37 317.257C1191.87 315.535 1192.02 313.935 1192.81 312.46C1193.6 310.984 1194.88 309.992 1196.65 309.485ZM1197.08 310.961C1195.88 311.306 1194.97 311.956 1194.36 312.913C1193.77 313.85 1193.56 314.909 1193.73 316.092L1202.33 313.622C1201.83 312.451 1201.09 311.64 1200.11 311.188C1199.13 310.737 1198.12 310.661 1197.08 310.961ZM1210.19 305.598C1211.59 305.196 1212.82 305.311 1213.86 305.943C1214.92 306.555 1215.66 307.584 1216.07 309.029L1218.1 316.111L1216.58 316.548L1214.55 309.466C1214.25 308.436 1213.75 307.716 1213.03 307.306C1212.33 306.891 1211.48 306.827 1210.48 307.114C1209.37 307.432 1208.57 308.044 1208.08 308.95C1207.59 309.841 1207.55 311.017 1207.97 312.478L1209.71 318.522L1208.18 318.959L1204.87 307.424L1206.4 306.987L1206.91 308.787C1207.38 307.155 1208.47 306.093 1210.19 305.598Z" fill="white"/>
</svg>
