<svg width="1920" height="1080" viewBox="0 0 1920 1080" fill="none" xmlns="http://www.w3.org/2000/svg">
    <path d="M1068.34 274.713L1067.65 273.393C1068.76 272.996 1069.37 272.275 1069.47 271.228C1069.58 270.16 1069.09 268.575 1068 266.474L1063.7 258.19L1073.37 253.166L1081.11 268.074L1079.62 268.848L1072.61 255.346L1065.92 258.821L1069.52 265.742C1070.22 267.091 1070.7 268.275 1070.96 269.294C1071.21 270.314 1071.26 271.175 1071.08 271.879C1070.91 272.562 1070.6 273.128 1070.15 273.579C1069.71 274.008 1069.1 274.386 1068.34 274.713ZM1092.54 260.432C1092.01 262.057 1090.97 263.276 1089.41 264.087C1087.85 264.899 1086.24 265.056 1084.6 264.56C1082.96 264.041 1081.73 262.994 1080.91 261.418C1080.09 259.842 1079.94 258.241 1080.47 256.616C1081 254.969 1082.05 253.74 1083.61 252.928C1085.17 252.117 1086.77 251.97 1088.41 252.488C1090.06 252.985 1091.29 254.021 1092.11 255.597C1092.93 257.173 1093.07 258.785 1092.54 260.432ZM1085.09 263.06C1086.32 263.449 1087.52 263.337 1088.7 262.724C1089.88 262.112 1090.66 261.191 1091.05 259.961C1091.43 258.717 1091.32 257.506 1090.71 256.328C1090.09 255.149 1089.17 254.366 1087.94 253.977C1086.7 253.574 1085.5 253.679 1084.32 254.291C1083.14 254.903 1082.36 255.831 1081.98 257.075C1081.59 258.305 1081.7 259.509 1082.31 260.688C1082.93 261.866 1083.85 262.657 1085.09 263.06ZM1099.24 245.134L1100.64 244.403L1106.17 255.052L1104.77 255.782L1102.36 251.139L1096.22 254.326L1098.63 258.969L1097.23 259.699L1091.7 249.051L1093.1 248.321L1095.51 252.963L1101.65 249.776L1099.24 245.134ZM1117.38 247.497L1118.87 246.722L1121.06 250.939L1119.66 251.669L1118.18 248.815L1109.49 253.33L1110.97 256.184L1109.56 256.914L1107.37 252.698L1108.67 252.023C1108.9 250.695 1108.57 249.165 1107.67 247.433L1104.93 242.173L1112.56 238.211L1117.38 247.497ZM1110.38 251.137L1115.98 248.227L1111.86 240.305L1107.05 242.806L1109.07 246.703C1109.92 248.336 1110.36 249.814 1110.38 251.137ZM1129.52 241.218C1128.99 242.844 1127.95 244.062 1126.39 244.874C1124.83 245.685 1123.22 245.842 1121.57 245.346C1119.93 244.827 1118.71 243.78 1117.89 242.204C1117.07 240.628 1116.92 239.027 1117.45 237.402C1117.98 235.755 1119.03 234.526 1120.59 233.714C1122.15 232.903 1123.75 232.756 1125.39 233.274C1127.04 233.771 1128.27 234.808 1129.09 236.383C1129.91 237.959 1130.05 239.571 1129.52 241.218ZM1122.07 243.846C1123.3 244.235 1124.5 244.123 1125.68 243.511C1126.86 242.898 1127.64 241.977 1128.03 240.747C1128.41 239.503 1128.3 238.292 1127.68 237.114C1127.07 235.935 1126.15 235.152 1124.92 234.763C1123.68 234.36 1122.48 234.465 1121.3 235.077C1120.12 235.689 1119.34 236.618 1118.96 237.861C1118.57 239.091 1118.68 240.295 1119.29 241.474C1119.9 242.652 1120.83 243.443 1122.07 243.846ZM1136.21 225.92L1137.62 225.189L1143.15 235.838L1141.75 236.568L1139.33 231.925L1133.2 235.112L1135.61 239.755L1134.21 240.485L1128.67 229.837L1130.08 229.107L1132.49 233.749L1138.63 230.562L1136.21 225.92ZM1153.67 216.851L1154.86 216.231L1160.39 226.879L1158.99 227.61L1154.73 219.41L1152.64 230.907L1151.45 231.527L1145.92 220.879L1147.32 220.148L1151.58 228.347L1153.67 216.851ZM1166.02 217.007C1167.49 216.833 1168.55 217.364 1169.2 218.599C1169.65 219.48 1169.7 220.413 1169.33 221.399C1168.96 222.364 1168.14 223.178 1166.86 223.842C1164.72 224.956 1162.87 224.834 1161.32 223.477L1162.15 222.155C1163.24 223.19 1164.58 223.298 1166.15 222.479C1166.98 222.051 1167.52 221.545 1167.77 220.962C1168.04 220.371 1168.03 219.798 1167.75 219.245C1167.49 218.748 1167.09 218.439 1166.56 218.318C1166.03 218.198 1165.45 218.3 1164.83 218.624L1163.27 219.432L1162.57 218.069L1163.69 217.483C1164.3 217.166 1164.7 216.769 1164.89 216.294C1165.08 215.797 1165.04 215.279 1164.76 214.74C1164.49 214.229 1164.07 213.917 1163.49 213.804C1162.9 213.677 1162.26 213.795 1161.56 214.156C1160.23 214.85 1159.61 215.843 1159.73 217.137L1158.2 217.064C1158.12 215.176 1159.01 213.752 1160.85 212.793C1161.97 212.21 1163.02 212.044 1164 212.293C1164.97 212.529 1165.68 213.072 1166.12 213.924C1166.69 215.017 1166.65 216.045 1166.02 217.007ZM1180.82 209.312C1182.3 209.139 1183.36 209.67 1184 210.905C1184.46 211.785 1184.51 212.719 1184.13 213.705C1183.77 214.669 1182.95 215.484 1181.67 216.148C1179.53 217.262 1177.68 217.14 1176.13 215.783L1176.95 214.461C1178.05 215.496 1179.39 215.604 1180.96 214.785C1181.79 214.357 1182.33 213.851 1182.58 213.267C1182.85 212.676 1182.84 212.104 1182.55 211.55C1182.3 211.053 1181.9 210.745 1181.37 210.624C1180.84 210.504 1180.26 210.606 1179.64 210.93L1178.08 211.738L1177.37 210.375L1178.5 209.789C1179.11 209.471 1179.51 209.075 1179.7 208.6C1179.89 208.103 1179.85 207.585 1179.56 207.045C1179.3 206.534 1178.88 206.222 1178.29 206.11C1177.71 205.983 1177.06 206.1 1176.37 206.462C1175.03 207.155 1174.42 208.149 1174.54 209.442L1173.01 209.37C1172.93 207.481 1173.81 206.058 1175.66 205.099C1176.78 204.516 1177.83 204.349 1178.81 204.599C1179.78 204.834 1180.48 205.378 1180.93 206.23C1181.49 207.323 1181.46 208.351 1180.82 209.312ZM1186.91 199.253C1188.49 198.434 1190.05 198.334 1191.6 198.954C1193.15 199.553 1194.32 200.612 1195.11 202.131C1195.19 202.287 1195.3 202.514 1195.41 202.813L1186.06 207.671C1186.77 208.676 1187.67 209.299 1188.77 209.54C1189.87 209.759 1190.99 209.573 1192.13 208.983C1192.94 208.562 1193.55 208.037 1193.96 207.408C1194.38 206.758 1194.6 206.085 1194.62 205.391L1196.23 205.473C1196.15 206.469 1195.82 207.397 1195.24 208.258C1194.66 209.119 1193.85 209.818 1192.82 210.357C1191.14 211.227 1189.5 211.41 1187.91 210.905C1186.31 210.401 1185.09 209.339 1184.25 207.721C1183.43 206.13 1183.25 204.534 1183.74 202.93C1184.22 201.327 1185.28 200.101 1186.91 199.253ZM1187.62 200.616C1186.51 201.191 1185.75 202.008 1185.35 203.066C1184.95 204.103 1184.95 205.184 1185.36 206.308L1193.3 202.18C1192.58 201.133 1191.69 200.484 1190.64 200.236C1189.59 199.987 1188.58 200.114 1187.62 200.616ZM1100.55 290.656L1098.67 291.629L1090.68 289.263L1093.35 294.396L1091.95 295.126L1086.41 284.478L1087.82 283.748L1090.26 288.454L1092.89 281.114L1094.8 280.118L1091.96 288.084L1100.55 290.656ZM1100.66 276.749C1102.24 275.93 1103.8 275.831 1105.35 276.451C1106.9 277.049 1108.08 278.108 1108.86 279.627C1108.95 279.783 1109.05 280.011 1109.17 280.31L1099.82 285.167C1100.52 286.173 1101.42 286.796 1102.52 287.036C1103.62 287.255 1104.74 287.069 1105.88 286.479C1106.69 286.059 1107.3 285.534 1107.71 284.905C1108.13 284.254 1108.35 283.582 1108.37 282.887L1109.98 282.97C1109.9 283.966 1109.57 284.894 1108.99 285.755C1108.41 286.615 1107.6 287.315 1106.57 287.853C1104.89 288.724 1103.26 288.907 1101.66 288.402C1100.06 287.897 1098.84 286.836 1098 285.217C1097.18 283.627 1097 282.03 1097.49 280.427C1097.97 278.823 1099.03 277.598 1100.66 276.749ZM1101.37 278.112C1100.26 278.688 1099.51 279.504 1099.1 280.563C1098.7 281.599 1098.7 282.68 1099.11 283.804L1107.05 279.677C1106.33 278.629 1105.44 277.981 1104.39 277.732C1103.34 277.484 1102.34 277.611 1101.37 278.112ZM1117.26 268.451L1122.79 279.099L1121.38 279.83L1116.56 270.544L1110.43 273.731L1115.25 283.017L1113.85 283.747L1108.31 273.099L1117.26 268.451ZM1127.98 262.879L1129.17 262.259L1134.71 272.907L1133.3 273.638L1129.04 265.438L1126.95 276.935L1125.76 277.555L1120.23 266.907L1121.63 266.176L1125.9 274.375L1127.98 262.879ZM1139.81 256.731L1140.52 258.094L1136.75 260.052L1141.58 269.338L1140.17 270.068L1135.35 260.783L1131.58 262.741L1130.87 261.378L1139.81 256.731ZM1150.27 251.299L1151.67 250.568L1157.21 261.217L1155.8 261.947L1154.72 259.86C1154.55 261.931 1153.52 263.457 1151.63 264.438C1150.11 265.227 1148.53 265.363 1146.89 264.844C1145.27 264.319 1144.05 263.275 1143.24 261.713C1142.43 260.151 1142.27 258.554 1142.78 256.922C1143.29 255.282 1144.31 254.068 1145.83 253.278C1147.72 252.297 1149.56 252.333 1151.35 253.386L1150.27 251.299ZM1147.42 263.355C1148.65 263.744 1149.85 263.632 1151.03 263.019C1152.21 262.407 1152.99 261.486 1153.38 260.256C1153.76 259.012 1153.65 257.801 1153.03 256.623C1152.42 255.444 1151.5 254.661 1150.27 254.272C1149.03 253.869 1147.83 253.974 1146.65 254.586C1145.47 255.198 1144.69 256.126 1144.31 257.37C1143.92 258.6 1144.03 259.804 1144.64 260.983C1145.26 262.161 1146.18 262.952 1147.42 263.355ZM1163.38 244.485L1168.91 255.133L1167.51 255.864L1162.68 246.578L1157.87 249.079L1160.34 253.828C1161.26 255.603 1161.55 257.001 1161.22 258.022C1160.9 259.036 1160.13 259.807 1158.9 260.334L1158.22 259.014C1159.07 258.678 1159.57 258.177 1159.71 257.509C1159.86 256.834 1159.6 255.851 1158.93 254.559L1155.76 248.446L1163.38 244.485ZM1185.44 244.841C1184.92 246.467 1183.87 247.685 1182.31 248.497C1180.75 249.308 1179.14 249.466 1177.5 248.969C1175.86 248.451 1174.63 247.403 1173.81 245.827C1172.99 244.252 1172.84 242.651 1173.37 241.025C1173.9 239.378 1174.95 238.149 1176.51 237.337C1178.07 236.526 1179.67 236.379 1181.31 236.898C1182.96 237.395 1184.19 238.431 1185.01 240.007C1185.83 241.583 1185.97 243.194 1185.44 244.841ZM1177.99 247.469C1179.22 247.858 1180.42 247.746 1181.6 247.134C1182.78 246.522 1183.56 245.601 1183.95 244.371C1184.33 243.127 1184.22 241.916 1183.61 240.737C1182.99 239.559 1182.07 238.775 1180.84 238.386C1179.61 237.983 1178.4 238.088 1177.22 238.7C1176.04 239.313 1175.26 240.241 1174.88 241.485C1174.49 242.715 1174.6 243.919 1175.22 245.097C1175.83 246.276 1176.75 247.066 1177.99 247.469ZM1195.79 229.594C1197.35 230.099 1198.52 231.097 1199.29 232.588C1200.06 234.079 1200.21 235.608 1199.73 237.175C1199.24 238.743 1198.2 240.033 1196.6 241.045L1198.69 245.071L1197.28 245.801L1195.19 241.776C1193.44 242.504 1191.79 242.616 1190.23 242.111C1188.67 241.605 1187.5 240.607 1186.72 239.117C1185.95 237.626 1185.8 236.097 1186.29 234.529C1186.77 232.961 1187.81 231.671 1189.42 230.659L1187.33 226.634L1188.73 225.904L1190.82 229.929C1192.57 229.2 1194.23 229.088 1195.79 229.594ZM1187.8 234.989C1187.44 236.146 1187.56 237.279 1188.13 238.386C1188.71 239.494 1189.57 240.242 1190.73 240.632C1191.88 241.008 1193.13 240.928 1194.47 240.392L1190.14 232.043C1188.92 232.835 1188.15 233.817 1187.8 234.989ZM1195.88 239.661C1197.09 238.869 1197.87 237.895 1198.23 236.737C1198.57 235.565 1198.46 234.426 1197.88 233.318C1197.31 232.211 1196.45 231.469 1195.29 231.093C1194.14 230.704 1192.89 230.777 1191.54 231.313L1195.88 239.661ZM1096.1 312.128L1096.8 313.491L1091.39 316.301L1096.22 325.587L1094.81 326.317L1089.28 315.669L1096.1 312.128ZM1103.38 308.017C1104.9 307.227 1106.47 307.096 1108.1 307.621C1109.74 308.14 1110.96 309.18 1111.78 310.742C1112.59 312.303 1112.73 313.904 1112.22 315.544C1111.71 317.176 1110.7 318.387 1109.18 319.176C1107.29 320.157 1105.45 320.122 1103.66 319.069L1106.96 325.415L1105.55 326.146L1097.81 311.238L1099.21 310.508L1100.3 312.595C1100.47 310.524 1101.49 308.998 1103.38 308.017ZM1104.75 318.204C1105.98 318.593 1107.19 318.481 1108.37 317.869C1109.54 317.256 1110.33 316.335 1110.72 315.105C1111.1 313.861 1110.98 312.65 1110.37 311.472C1109.76 310.293 1108.84 309.51 1107.61 309.121C1106.37 308.718 1105.16 308.823 1103.98 309.435C1102.81 310.047 1102.03 310.976 1101.64 312.22C1101.26 313.449 1101.37 314.653 1101.98 315.832C1102.59 317.01 1103.52 317.801 1104.75 318.204ZM1116.13 301.391C1117.71 300.572 1119.27 300.473 1120.82 301.093C1122.38 301.691 1123.55 302.75 1124.34 304.269C1124.42 304.425 1124.52 304.653 1124.64 304.952L1115.29 309.809C1115.99 310.815 1116.89 311.438 1117.99 311.678C1119.1 311.897 1120.22 311.711 1121.35 311.121C1122.16 310.701 1122.77 310.176 1123.18 309.547C1123.6 308.896 1123.82 308.224 1123.84 307.529L1125.45 307.612C1125.37 308.608 1125.04 309.536 1124.46 310.397C1123.88 311.257 1123.08 311.957 1122.04 312.495C1120.36 313.366 1118.73 313.549 1117.13 313.044C1115.53 312.539 1114.32 311.478 1113.47 309.859C1112.65 308.269 1112.48 306.672 1112.96 305.069C1113.44 303.465 1114.5 302.24 1116.13 301.391ZM1116.84 302.754C1115.73 303.33 1114.98 304.146 1114.57 305.205C1114.17 306.241 1114.18 307.322 1114.58 308.446L1122.52 304.319C1121.8 303.271 1120.91 302.623 1119.86 302.374C1118.81 302.126 1117.81 302.253 1116.84 302.754ZM1124.6 295.152L1123.96 293.916L1129.5 291.039L1130.14 292.275L1124.6 295.152ZM1131.54 293.713L1132.73 293.093L1138.26 303.741L1136.86 304.472L1132.6 296.273L1130.51 307.769L1129.32 308.389L1123.78 297.741L1125.19 297.01L1129.45 305.21L1131.54 293.713ZM1143.37 287.565L1144.08 288.928L1140.31 290.887L1145.13 300.172L1143.73 300.902L1138.9 291.617L1135.13 293.576L1134.42 292.213L1143.37 287.565ZM1157.04 282.624C1158.28 281.983 1159.55 281.877 1160.88 282.307C1162.22 282.73 1163.2 283.552 1163.84 284.773C1164.48 286.008 1164.59 287.294 1164.16 288.632C1163.75 289.948 1162.92 290.927 1161.69 291.569L1156.15 294.446L1148.4 279.538L1157.14 275.001L1157.87 276.407L1150.63 280.169L1152.99 284.727L1157.04 282.624ZM1160.96 290.163C1161.78 289.735 1162.33 289.072 1162.6 288.173C1162.87 287.275 1162.79 286.399 1162.35 285.547C1161.91 284.71 1161.25 284.144 1160.35 283.85C1159.46 283.542 1158.59 283.602 1157.77 284.03L1153.72 286.132L1156.91 292.266L1160.96 290.163ZM1168.44 274.214C1169.96 273.425 1171.53 273.293 1173.15 273.819C1174.79 274.337 1176.02 275.377 1176.83 276.939C1177.64 278.501 1177.79 280.101 1177.27 281.741C1176.77 283.373 1175.75 284.584 1174.24 285.374C1172.35 286.355 1170.51 286.319 1168.72 285.266L1172.01 291.613L1170.61 292.343L1162.86 277.435L1164.27 276.705L1165.35 278.792C1165.52 276.721 1166.55 275.195 1168.44 274.214ZM1169.81 284.401C1171.04 284.79 1172.24 284.678 1173.42 284.066C1174.6 283.454 1175.38 282.533 1175.77 281.303C1176.15 280.059 1176.04 278.848 1175.43 277.669C1174.81 276.491 1173.89 275.707 1172.66 275.318C1171.43 274.915 1170.22 275.02 1169.04 275.632C1167.86 276.245 1167.08 277.173 1166.7 278.417C1166.31 279.647 1166.42 280.851 1167.03 282.029C1167.65 283.208 1168.57 283.998 1169.81 284.401ZM1184.15 266.372L1185.35 265.753L1190.88 276.401L1189.47 277.131L1185.21 268.932L1183.13 280.429L1181.93 281.049L1176.4 270.4L1177.81 269.67L1182.07 277.869L1184.15 266.372ZM1195.99 260.224L1196.69 261.587L1192.92 263.546L1197.75 272.831L1196.34 273.562L1191.52 264.276L1187.75 266.235L1187.04 264.872L1195.99 260.224ZM1206.44 254.792L1207.85 254.062L1213.38 264.71L1211.97 265.441L1210.89 263.353C1210.72 265.424 1209.69 266.95 1207.8 267.931C1206.28 268.721 1204.71 268.856 1203.07 268.338C1201.44 267.812 1200.22 266.768 1199.41 265.207C1198.6 263.645 1198.44 262.048 1198.95 260.416C1199.47 258.776 1200.49 257.561 1202.01 256.772C1203.89 255.791 1205.73 255.827 1207.52 256.879L1206.44 254.792ZM1203.59 266.848C1204.82 267.237 1206.02 267.125 1207.2 266.513C1208.38 265.901 1209.16 264.98 1209.55 263.75C1209.93 262.506 1209.82 261.295 1209.21 260.116C1208.59 258.938 1207.67 258.154 1206.44 257.766C1205.21 257.363 1204 257.467 1202.82 258.08C1201.64 258.692 1200.86 259.62 1200.48 260.864C1200.09 262.094 1200.2 263.298 1200.82 264.476C1201.43 265.655 1202.35 266.445 1203.59 266.848ZM1218.36 248.598L1219.77 247.868L1225.3 258.516L1223.89 259.247L1221.48 254.604L1215.35 257.791L1217.76 262.434L1216.35 263.164L1210.82 252.516L1212.23 251.785L1214.64 256.428L1220.77 253.241L1218.36 248.598Z" fill="white"/>
</svg>
