<svg width="1920" height="1080" fill="none" xmlns="http://www.w3.org/2000/svg"><path d="M1052.39 276.08l6.55-4 .83 1.35-7.99 4.88-8.76-14.33 1.43-.88 7.94 12.98zm16.49-10a6.1 6.1 0 01-2.86 3.86 6.2 6.2 0 01-8.67-2.07 5.97 5.97 0 01-.77-4.76 6.12 6.12 0 012.87-3.9 6.07 6.07 0 014.76-.77 6 6 0 013.91 2.85 6.03 6.03 0 01.76 4.79zm-7.25 3.14c1.26.3 2.45.1 3.58-.59a4.68 4.68 0 001.56-6.52 4.6 4.6 0 00-2.92-2.15 4.54 4.54 0 00-3.6.56 4.56 4.56 0 00-2.14 2.95c-.3 1.25-.1 2.44.59 3.58a4.64 4.64 0 002.93 2.17zm10.26-17.61a4.45 4.45 0 013.63-.65c1.18.31 2.16 1.1 2.95 2.39l3.84 6.28-1.35.83-3.84-6.28a3.43 3.43 0 00-2.04-1.68 3.14 3.14 0 00-2.51.5c-.99.6-1.59 1.4-1.82 2.4-.24.99.04 2.13.83 3.43l3.28 5.36-1.35.83-6.26-10.24 1.35-.82.98 1.6c.01-1.7.78-3.02 2.31-3.95zm13.07-13.3l1.35-.82 8.77 14.33-1.35.83-1.23-2a5.36 5.36 0 01-2.76 4.78 5.96 5.96 0 01-4.69.73 6.12 6.12 0 01-3.87-2.87 6.1 6.1 0 01-.79-4.74 5.97 5.97 0 012.79-3.85 5.39 5.39 0 015.52-.28l-3.74-6.1zm.51 16.33c1.25.3 2.44.1 3.58-.59a4.68 4.68 0 001.55-6.52 4.57 4.57 0 00-2.92-2.15 4.52 4.52 0 00-3.59.57 4.5 4.5 0 00-2.14 2.94 4.54 4.54 0 00.58 3.58 4.66 4.66 0 002.94 2.17zm20.26-11.1a6.11 6.11 0 01-2.87 3.86 6.18 6.18 0 01-8.66-2.07 6.01 6.01 0 01-.78-4.76 6.17 6.17 0 012.88-3.9 6.07 6.07 0 014.76-.77 6 6 0 013.91 2.84 6.07 6.07 0 01.76 4.8zm-7.25 3.14c1.26.3 2.45.1 3.58-.59a4.57 4.57 0 002.15-2.92 4.6 4.6 0 00-.6-3.6 4.54 4.54 0 00-2.92-2.15 4.52 4.52 0 00-3.59.56 4.56 4.56 0 00-2.14 2.95 4.6 4.6 0 00.59 3.57 4.64 4.64 0 002.93 2.18zm10.26-17.61a4.45 4.45 0 013.63-.65c1.18.3 2.16 1.1 2.95 2.39l3.84 6.28-1.35.83-3.84-6.28a3.43 3.43 0 00-2.04-1.68c-.79-.22-1.63-.05-2.51.5-.99.6-1.59 1.4-1.82 2.4-.24.99.03 2.13.83 3.43l3.28 5.36-1.35.83-6.26-10.24 1.35-.83.97 1.6c.02-1.7.79-3 2.32-3.94zm11.76-10.24c-.08.3-.25.55-.52.71-.27.17-.57.22-.87.14a1.13 1.13 0 01-.72-.52 1.11 1.11 0 01-.13-.87c.07-.3.24-.54.52-.71.27-.17.56-.22.87-.14.31.07.54.25.71.52.17.27.21.56.14.87zm6.39 13.53l-6.26-10.23 1.35-.83 6.26 10.24-1.35.82zm4.89-4.79l5.9-3.6.8 1.3-7.78 4.76-.55-.9.78-11.5-5.48 3.35-.81-1.3 7.37-4.52.56.9-.79 11.51zm14.74-9.01l5.89-3.61.81 1.31-7.78 4.76-.55-.9.78-11.5-5.49 3.35-.8-1.31 7.37-4.51.55.9-.78 11.5zm6.64-16.67a5.38 5.38 0 014.65-.62 6.45 6.45 0 014.08 3.58l-8.99 5.5a4.38 4.38 0 002.83 1.67 5 5 0 003.31-.79 4.74 4.74 0 001.72-1.7 3.9 3.9 0 00.52-2.05l1.61-.03c-.01 1-.27 1.94-.79 2.84a6.42 6.42 0 01-2.28 2.27 6.21 6.21 0 01-4.85.88 6.1 6.1 0 01-3.87-2.92 6.16 6.16 0 01-.85-4.74 6.02 6.02 0 012.91-3.89zm.8 1.31a4.5 4.5 0 00-1.86 5.84l7.64-4.68c-.8-.99-1.73-1.58-2.79-1.75a4.25 4.25 0 00-2.99.59zm-104.62 110.94a6.13 6.13 0 01-8.67-2.07 6.08 6.08 0 01-.79-4.75 6.06 6.06 0 012.9-3.9 5.98 5.98 0 013.17-.94c1.1-.01 2.08.28 2.95.87l-.72 1.31a3.62 3.62 0 00-2.22-.64c-.82 0-1.62.24-2.38.7a4.52 4.52 0 00-2.14 2.94 4.55 4.55 0 00.59 3.58 4.64 4.64 0 006.51 1.59 4.63 4.63 0 001.72-1.78c.37-.74.55-1.52.51-2.34l1.53-.04a5.5 5.5 0 01-.68 3.09 6.14 6.14 0 01-2.28 2.38zm8.82-19.8l1.35-.83 6.26 10.24-1.35.83-1.23-2a5.36 5.36 0 01-2.76 4.77 5.96 5.96 0 01-4.69.74 6.12 6.12 0 01-3.87-2.87 6.1 6.1 0 01-.79-4.75 5.97 5.97 0 012.79-3.85 5.37 5.37 0 015.51-.27l-1.22-2zm-2.01 12.23c1.26.3 2.45.1 3.58-.59a4.68 4.68 0 001.56-6.52 4.6 4.6 0 00-2.92-2.15 4.55 4.55 0 00-3.6.56 4.56 4.56 0 00-2.14 2.94c-.3 1.26-.1 2.45.59 3.58a4.64 4.64 0 002.93 2.18zm11.56-18.4a5.89 5.89 0 014.67-.73 6.06 6.06 0 013.89 2.86 6.07 6.07 0 01.77 4.75 5.9 5.9 0 01-2.77 3.84 5.38 5.38 0 01-5.52.28l3.74 6.1-1.35.83-8.77-14.34 1.35-.82 1.23 2a5.36 5.36 0 012.76-4.78zm2.07 10.06c1.26.3 2.45.1 3.58-.59a4.68 4.68 0 001.56-6.52 4.6 4.6 0 00-2.92-2.15 4.54 4.54 0 00-3.6.56 4.56 4.56 0 00-2.14 2.95c-.3 1.25-.1 2.44.59 3.58a4.64 4.64 0 002.93 2.17zm5.47-17.72c-.07.3-.24.54-.52.7a1.1 1.1 0 01-.87.15 1.1 1.1 0 01-.71-.52 1.12 1.12 0 01-.14-.87c.07-.31.25-.55.52-.72.27-.16.56-.21.87-.14.31.08.55.25.71.52.17.28.22.57.14.88zm6.4 13.53l-6.27-10.24 1.36-.82 6.26 10.23-1.35.83zm4.18-14.83l-2.95 1.8 3.8 6.21c.34.56.69.9 1.06 1 .36.1.77.03 1.21-.23.44-.26.98-.61 1.61-1.04l.73 1.19c-1.3 1.1-2.44 1.65-3.42 1.67-.97.01-1.82-.58-2.54-1.76l-3.8-6.2-2.15 1.3-.8-1.3 2.15-1.32-1.5-2.45 1.1-1.24 1.75 2.87 2.95-1.8.8 1.3zm9.63-7.7l1.36-.82 6.26 10.24-1.35.82-1.23-2a5.36 5.36 0 01-2.76 4.78 6 6 0 01-4.7.74 6.1 6.1 0 01-3.86-2.87 6.1 6.1 0 01-.8-4.75 6.02 6.02 0 012.8-3.85 5.36 5.36 0 015.51-.28l-1.23-2zm-2 12.23c1.26.3 2.45.11 3.58-.58a4.57 4.57 0 002.15-2.92 4.6 4.6 0 00-.6-3.6 4.54 4.54 0 00-2.92-2.15 4.52 4.52 0 00-3.59.56 4.56 4.56 0 00-2.14 2.94c-.3 1.25-.1 2.45.59 3.58a4.64 4.64 0 002.93 2.17zm12.48-4.56l-9.14-14.95 1.35-.82 9.14 14.94-1.35.83zm17.12-12.25a6.1 6.1 0 01-2.86 3.86 6.2 6.2 0 01-8.67-2.07 6.01 6.01 0 01-.77-4.76 6.13 6.13 0 012.87-3.9 6.07 6.07 0 014.76-.77 5.99 5.99 0 013.91 2.85 6.03 6.03 0 01.76 4.79zm-7.25 3.14c1.26.3 2.45.1 3.58-.59a4.68 4.68 0 001.56-6.52 4.6 4.6 0 00-2.92-2.15 4.54 4.54 0 00-3.6.57 4.56 4.56 0 00-2.14 2.94 4.6 4.6 0 00.59 3.58 4.64 4.64 0 002.93 2.17zm13.89-23.94c-1.05.53-1.69 1.16-1.92 1.88-.22.72-.03 1.56.57 2.55l.38.61 2.94-1.8.81 1.3-2.95 1.81 5.46 8.93-1.35.82-5.46-8.92-4.18 2.55 5.46 8.93-1.35.82-5.46-8.92-1.74 1.06-.8-1.3 1.74-1.07-.25-.41c-.82-1.34-1.07-2.57-.75-3.7.32-1.16 1.2-2.11 2.64-2.86l.8 1.3c-1.04.54-1.68 1.16-1.92 1.88-.21.72-.02 1.57.58 2.55l.25.41 4.18-2.55-.38-.62c-.82-1.34-1.07-2.57-.75-3.7.33-1.16 1.21-2.11 2.64-2.86l.81 1.31zm24.52-5.85l.45.73a7.08 7.08 0 01.85 5.67c-.53 2-1.86 3.64-3.99 4.94a8.5 8.5 0 01-6.69 1.15 8.43 8.43 0 01-5.35-3.96 8.44 8.44 0 01-1.09-6.57 8.5 8.5 0 014.07-5.44 8.33 8.33 0 018.35-.27l-.81 1.51a5.99 5.99 0 00-3.29-.86c-1.2.02-2.34.36-3.4 1.01a6.89 6.89 0 00-2.4 9.74 6.9 6.9 0 009.76 2.3c1.61-.98 2.66-2.18 3.13-3.57a5.37 5.37 0 00-.24-4.13l-5.69 3.48-.83-1.35 7.17-4.38zm2.55-3.93c-.13-1.63.56-2.9 2.09-3.84l.8 1.31a3.96 3.96 0 00-1.81 2.23c-.28.93-.06 1.97.66 3.15l3.48 5.69-1.35.83-6.26-10.24 1.35-.83 1.04 1.7zm8-7.57a5.4 5.4 0 014.66-.62 6.51 6.51 0 014.08 3.58l-8.99 5.5a4.36 4.36 0 002.82 1.67 5.03 5.03 0 003.32-.79 4.75 4.75 0 001.72-1.7 3.9 3.9 0 00.51-2.05l1.61-.03c0 1-.27 1.94-.79 2.84a6.39 6.39 0 01-2.27 2.27 6.24 6.24 0 01-4.86.89 6.1 6.1 0 01-3.87-2.93 6.2 6.2 0 01-.85-4.74 6.02 6.02 0 012.91-3.89zm.81 1.31a4.5 4.5 0 00-1.86 5.84l7.63-4.67a4.44 4.44 0 00-2.79-1.76 4.21 4.21 0 00-2.98.6zm15.37-10.87l1.36-.83 6.26 10.24-1.35.83-1.23-2.01a5.36 5.36 0 01-2.76 4.78 5.99 5.99 0 01-4.7.74 6.1 6.1 0 01-3.86-2.87 6.15 6.15 0 012-8.6 5.36 5.36 0 015.51-.27l-1.23-2.01zm-2 12.23c1.26.3 2.45.1 3.58-.6a4.53 4.53 0 002.15-2.91c.3-1.27.1-2.47-.59-3.6a4.6 4.6 0 00-2.92-2.15 4.54 4.54 0 00-3.6.56 4.56 4.56 0 00-2.14 2.94c-.3 1.26-.1 2.45.59 3.58a4.64 4.64 0 002.93 2.18zm12.44-16.81l-2.94 1.8 3.79 6.2c.34.56.7.9 1.07 1 .36.1.76.03 1.21-.22.43-.27.97-.62 1.61-1.05l.72 1.2c-1.3 1.09-2.44 1.64-3.42 1.66-.97.01-1.81-.57-2.54-1.76l-3.8-6.2-2.15 1.31-.8-1.31 2.15-1.31-1.5-2.46 1.1-1.24 1.75 2.87 2.95-1.8.8 1.3zm-78.31 83.95c.88-.12 1.71 0 2.49.36.8.34 1.43.9 1.9 1.68a4.5 4.5 0 01.57 3.54 4.53 4.53 0 01-2.12 2.9l-6.24 3.81-8.77-14.33 5.78-3.53a4.3 4.3 0 013.42-.52c1.21.3 2.14.97 2.78 2.02.82 1.33.88 2.7.19 4.07zm-5.57-4.22l-4.34 2.66 3.06 5 4.34-2.66a2.9 2.9 0 00.89-3.98 2.87 2.87 0 00-1.8-1.32c-.76-.2-1.48-.1-2.15.3zm7.59 11.34a2.86 2.86 0 001.34-1.86c.18-.82.05-1.6-.4-2.34a3 3 0 00-1.9-1.4 2.79 2.79 0 00-2.27.32l-4.81 2.94 3.23 5.29 4.81-2.95zm3.2-11.83c-.13-1.63.57-2.9 2.09-3.84l.81 1.3a3.94 3.94 0 00-1.82 2.24c-.28.92-.06 1.97.66 3.15l3.48 5.69-1.35.82-6.26-10.23 1.35-.83 1.04 1.7zm3.92-8.1c-.08.3-.25.54-.53.7a1.13 1.13 0 01-1.58-.38 1.14 1.14 0 01.38-1.58c.28-.17.57-.21.87-.14a1.16 1.16 0 01.86 1.4zm6.39 13.53l-6.26-10.24 1.35-.83 6.26 10.24-1.35.83zm4.18-14.83l-2.95 1.8 3.8 6.2c.34.57.7.9 1.07 1.01.36.1.76.02 1.2-.23.44-.27.98-.61 1.62-1.04l.72 1.19c-1.3 1.1-2.44 1.65-3.42 1.67-.97 0-1.82-.58-2.54-1.77l-3.8-6.2-2.15 1.31-.8-1.3 2.15-1.32-1.5-2.46 1.1-1.23 1.75 2.86 2.95-1.8.8 1.31zm9.64-7.7l1.35-.82 6.26 10.24-1.35.82-1.23-2a5.36 5.36 0 01-2.76 4.78 5.99 5.99 0 01-4.7.73 6.13 6.13 0 01-3.86-2.86 6.1 6.1 0 01-.79-4.75 5.97 5.97 0 012.79-3.85 5.37 5.37 0 015.51-.28l-1.22-2zm-2.01 12.23c1.26.3 2.45.1 3.58-.58a4.68 4.68 0 001.56-6.52 4.6 4.6 0 00-2.92-2.16 4.54 4.54 0 00-3.6.57 4.56 4.56 0 00-2.14 2.94c-.3 1.25-.1 2.45.59 3.58a4.64 4.64 0 002.93 2.17zm10.86-17.98a4.45 4.45 0 013.63-.64c1.18.3 2.16 1.1 2.95 2.38l3.84 6.29-1.35.83-3.84-6.29a3.43 3.43 0 00-2.04-1.68c-.79-.21-1.63-.05-2.51.5-.99.6-1.59 1.4-1.82 2.4-.24 1 .04 2.14.83 3.44l3.28 5.36-1.35.82-6.26-10.23 1.35-.83.98 1.6c.01-1.7.78-3.01 2.31-3.95z" fill="#fff"/></svg>