<svg width="1920" height="1080" viewBox="0 0 1920 1080" fill="none" xmlns="http://www.w3.org/2000/svg">
    <path d="M1549.71 251.594L1551.82 252.968L1538.08 274.091L1535.96 272.716L1549.71 251.594ZM1558.97 271.84C1558.53 272.524 1558.48 273.263 1558.82 274.058C1559.16 274.853 1559.69 275.643 1560.41 276.427C1561.13 277.211 1561.83 278.025 1562.52 278.87C1563.21 279.694 1563.65 280.624 1563.84 281.661C1564.03 282.677 1563.8 283.698 1563.13 284.724C1562.29 286.012 1561.1 286.724 1559.55 286.861C1558.02 287.011 1556.45 286.563 1554.84 285.516C1553.39 284.573 1552.37 283.447 1551.76 282.135C1551.17 280.837 1551.01 279.544 1551.28 278.256L1553.61 278.36C1553.39 279.328 1553.48 280.279 1553.91 281.213C1554.36 282.139 1555.09 282.93 1556.1 283.585C1557.08 284.226 1558.03 284.571 1558.95 284.621C1559.87 284.651 1560.6 284.253 1561.14 283.428C1561.58 282.744 1561.64 282.005 1561.29 281.21C1560.95 280.415 1560.42 279.625 1559.7 278.841C1558.98 278.057 1558.27 277.253 1557.58 276.429C1556.89 275.584 1556.45 274.654 1556.26 273.637C1556.07 272.601 1556.31 271.57 1556.98 270.544C1557.78 269.317 1558.93 268.605 1560.43 268.409C1561.95 268.225 1563.46 268.618 1564.95 269.586C1566.18 270.385 1567.07 271.367 1567.63 272.532C1568.2 273.677 1568.4 274.867 1568.23 276.1L1565.94 275.986C1566.27 274.198 1565.52 272.709 1563.69 271.517C1562.83 270.955 1561.95 270.682 1561.05 270.698C1560.16 270.695 1559.47 271.075 1558.97 271.84ZM1582 280.681C1584.15 282.082 1585.49 284.037 1586 286.548C1586.53 289.071 1586.08 291.44 1584.64 293.652C1583.2 295.865 1581.22 297.239 1578.7 297.773C1576.19 298.32 1573.87 297.893 1571.71 296.493C1569.04 294.752 1567.73 292.324 1567.78 289.208L1561.93 298.2L1559.94 296.904L1573.68 275.782L1575.67 277.077L1573.75 280.034C1576.57 278.725 1579.33 278.94 1582 280.681ZM1569.71 289.995C1570.11 291.888 1571.15 293.377 1572.82 294.463C1574.49 295.55 1576.27 295.893 1578.16 295.492C1580.07 295.072 1581.56 294.026 1582.65 292.357C1583.74 290.687 1584.08 288.906 1583.68 287.013C1583.29 285.1 1582.26 283.601 1580.59 282.514C1578.92 281.428 1577.14 281.095 1575.23 281.516C1573.34 281.916 1571.85 282.951 1570.76 284.621C1569.68 286.291 1569.33 288.082 1569.71 289.995ZM1600.07 292.437C1602.3 293.889 1603.58 295.856 1603.92 298.335C1604.29 300.807 1603.77 303.119 1602.37 305.272C1602.22 305.493 1602 305.792 1601.7 306.168L1588.45 297.549C1587.66 299.209 1587.51 300.845 1588.01 302.457C1588.54 304.062 1589.61 305.388 1591.22 306.435C1592.36 307.181 1593.5 307.591 1594.63 307.665C1595.79 307.732 1596.82 307.521 1597.74 307.031L1598.83 309.196C1597.47 309.83 1596.01 310.086 1594.46 309.963C1592.91 309.841 1591.4 309.302 1589.93 308.346C1587.56 306.802 1586.11 304.801 1585.59 302.344C1585.07 299.887 1585.56 297.511 1587.05 295.218C1588.51 292.965 1590.47 291.562 1592.92 291.009C1595.37 290.455 1597.75 290.931 1600.07 292.437ZM1598.81 294.368C1597.24 293.347 1595.62 292.962 1593.94 293.214C1592.29 293.459 1590.88 294.26 1589.71 295.618L1600.96 302.941C1601.8 301.221 1601.99 299.585 1601.54 298.032C1601.09 296.479 1600.18 295.258 1598.81 294.368ZM1623.46 308.171L1625.45 309.467L1615.63 324.555L1613.64 323.259L1615.57 320.302C1612.74 321.611 1609.99 321.396 1607.31 319.655C1605.16 318.254 1603.82 316.292 1603.28 313.769C1602.77 311.258 1603.23 308.897 1604.67 306.684C1606.11 304.471 1608.08 303.091 1610.59 302.544C1613.11 302.01 1615.45 302.443 1617.6 303.843C1620.27 305.584 1621.59 308.013 1621.53 311.129L1623.46 308.171ZM1605.61 313.353C1606.01 315.246 1607.05 316.736 1608.72 317.822C1610.39 318.908 1612.17 319.251 1614.06 318.851C1615.97 318.43 1617.46 317.385 1618.55 315.715C1619.64 314.045 1619.98 312.264 1619.58 310.372C1619.19 308.459 1618.16 306.959 1616.49 305.873C1614.82 304.786 1613.04 304.453 1611.13 304.874C1609.24 305.275 1607.75 306.31 1606.66 307.98C1605.58 309.649 1605.23 311.44 1605.61 313.353ZM1632.04 335.23L1629.39 333.502L1626.57 321.322L1621.84 328.594L1619.85 327.298L1633.59 306.176L1635.59 307.472L1627.32 320.175L1638.84 318.179L1641.56 319.946L1629.06 322.123L1632.04 335.23ZM1639.09 331.659L1644.73 322.011L1648.66 315.976L1651.07 317.546L1647.14 323.581L1640.6 332.641L1639.09 331.659ZM1637.41 338.468C1636.88 338.581 1636.39 338.486 1635.92 338.185C1635.46 337.884 1635.17 337.468 1635.06 336.937C1634.95 336.405 1635.04 335.908 1635.34 335.446C1635.64 334.983 1636.06 334.696 1636.59 334.583C1637.12 334.471 1637.62 334.565 1638.08 334.866C1638.54 335.167 1638.83 335.583 1638.94 336.115C1639.06 336.646 1638.96 337.143 1638.66 337.605C1638.36 338.068 1637.94 338.356 1637.41 338.468Z" fill="white"/>
</svg>
