<svg width="63" height="53" viewBox="0 0 63 53" fill="none" xmlns="http://www.w3.org/2000/svg">
<path d="M32.4889 51.2501L32.0533 52.1503C32.3284 52.2834 32.6493 52.2834 32.9245 52.1503L32.4889 51.2501ZM61.6573 18.0925L60.6585 18.1418L61.6573 18.0925ZM32.4889 14.6644L31.5274 14.9393C31.6502 15.3685 32.0425 15.6644 32.4889 15.6644C32.9352 15.6644 33.3276 15.3685 33.4503 14.9394L32.4889 14.6644ZM1.60485 18.0925L0.60607 18.0432L1.60485 18.0925ZM4.17851 27.5197L5.0103 26.9646C5.00003 26.9492 4.98933 26.9341 4.97822 26.9193L4.17851 27.5197ZM1.60484 51.2501L0.894202 50.5466C0.545793 50.8985 0.507427 51.4524 0.803993 51.849C1.10056 52.2456 1.64272 52.3654 2.07878 52.1307L1.60484 51.2501ZM17.9048 42.477L18.5159 41.6854C18.2034 41.4442 17.7784 41.4094 17.4309 41.5964L17.9048 42.477ZM32.9245 52.1503C37.1747 50.0934 44.7892 46.2104 51.2388 40.5672C57.6759 34.935 63.118 27.3999 62.6561 18.0432L60.6585 18.1418C61.0761 26.601 56.1705 33.5946 49.9218 39.0621C43.6854 44.5186 36.2759 48.3065 32.0533 50.35L32.9245 52.1503ZM62.6561 18.0432C62.3796 12.4424 60.6854 8.16147 58.1268 5.2139C55.5647 2.26233 52.1825 0.704809 48.6619 0.492071C41.6154 0.0662702 34.2117 5.00427 31.5274 14.3894L33.4503 14.9394C35.9136 6.32701 42.5583 2.12689 48.5413 2.48843C51.5355 2.66936 54.4133 3.98687 56.6164 6.52495C58.823 9.06703 60.3993 12.8904 60.6585 18.1418L62.6561 18.0432ZM2.60364 18.1418C2.86204 12.9074 4.5355 9.09236 6.89218 6.54912C9.24947 4.00522 12.3461 2.67171 15.5751 2.48865C22.0343 2.12245 29.0774 6.37276 31.5274 14.9393L33.4503 14.3894C30.7531 4.95851 22.89 0.0707192 15.4619 0.491854C11.7472 0.702456 8.15485 2.24398 5.42519 5.18973C2.69491 8.13614 0.883406 12.4253 0.60607 18.0432L2.60364 18.1418ZM4.97822 26.9193C3.82836 25.3877 3.2142 23.3601 2.90037 21.5728C2.58831 19.7956 2.59235 18.3704 2.60364 18.1418L0.60607 18.0432C0.587712 18.415 0.591746 19.9894 0.930506 21.9187C1.2675 23.8379 1.95499 26.2236 3.37881 28.1201L4.97822 26.9193ZM3.34672 28.0748C4.91614 30.4265 5.96015 34.4003 5.75336 38.6652C5.54752 42.9104 4.10941 47.299 0.894202 50.5466L2.31548 51.9537C5.96338 48.2691 7.5279 43.3635 7.75101 38.7621C7.97316 34.1804 6.87246 29.755 5.0103 26.9646L3.34672 28.0748ZM32.9245 50.35C29.3975 48.6431 23.7835 45.7518 18.5159 41.6854L17.2937 43.2686C22.7259 47.462 28.4868 50.4243 32.0533 52.1503L32.9245 50.35ZM2.07878 52.1307L18.3787 43.3575L17.4309 41.5964L1.1309 50.3696L2.07878 52.1307Z" fill="#FF6072"/>
<ellipse cx="22.1943" cy="27.5193" rx="2.57368" ry="2.57107" fill="#FF6072"/>
<ellipse cx="32.4897" cy="27.5193" rx="2.57368" ry="2.57107" fill="#FF6072"/>
<ellipse cx="42.7836" cy="27.5193" rx="2.57368" ry="2.57107" fill="#FF6072"/>
</svg>
