<svg width="73" height="71" viewBox="0 0 73 71" fill="none" xmlns="http://www.w3.org/2000/svg">
<path d="M71.0983 35.3C70.7983 52.8 57.0983 69.7 36.8983 69.7C16.8983 69.7 2.79835 51.3 1.99835 32.4C1.29835 15.6 21.2983 1 36.8983 1C46.5983 1 55.9983 5.2 62.3983 12.4C68.4983 19.2 71.1983 27.3 71.0983 35.3Z" stroke-width="2" stroke-miterlimit="10" stroke-linecap="round" stroke-linejoin="round"/>
<path d="M33.6973 51.4996C32.1973 51.4996 31.0973 50.7996 30.3973 50.0996L30.2973 49.9996C25.5973 45.1996 21.2973 39.9996 17.5973 34.3996C16.9973 33.4996 17.2973 32.1996 18.1973 31.5996L23.2973 28.2996C24.1973 27.6996 25.3973 27.9996 25.9973 28.8996C28.4973 32.5996 31.2973 36.1996 34.2973 39.5996C38.6973 35.5996 46.4973 27.7996 52.0973 22.2996C53.1973 21.1996 54.9973 21.1996 56.0973 22.2996L59.1973 25.3996C60.2973 26.4996 60.2973 28.2996 59.1973 29.3996C56.6973 31.8996 52.5973 35.9996 48.5973 39.8996C45.3973 42.9996 42.7973 45.4996 40.8973 47.2996C39.6973 48.3996 38.7973 49.1996 38.0973 49.6996C36.3973 50.9996 34.9973 51.4996 33.6973 51.4996Z" stroke-width="2" stroke-miterlimit="10" stroke-linecap="round" stroke-linejoin="round"/>
<path d="M23.1984 9.90039C19.1984 12.4004 15.6984 15.6004 12.8984 19.3004" stroke-width="2" stroke-miterlimit="10" stroke-linecap="round" stroke-linejoin="round"/>
<path d="M48.8984 61.3C52.6984 59.9 55.4984 56.6 58.0984 53.5" stroke-width="2" stroke-miterlimit="10" stroke-linecap="round" stroke-linejoin="round"/>
</svg>
