<svg width="16" height="15" viewBox="0 0 16 15" fill="none" xmlns="http://www.w3.org/2000/svg">
<g opacity="0.5">
<path d="M10.9215 0H4.63408C2.07884 0 0 1.95605 0 4.36036V10.2764C0 12.6807 2.07884 14.6367 4.63408 14.6367H10.9215C13.4767 14.6367 15.5555 12.6807 15.5555 10.2764V4.36036C15.5555 1.95605 13.4767 0 10.9215 0ZM13.9907 10.2764C13.9907 11.8713 12.6165 13.1643 10.9215 13.1643H4.63408C2.93903 13.1643 1.56489 11.8713 1.56489 10.2764V4.36036C1.56489 2.7654 2.93903 1.47245 4.63408 1.47245H10.9215C12.6165 1.47245 13.9907 2.7654 13.9907 4.36036V10.2764Z" fill="#2B2A35"/>
<path d="M7.77811 3.5332C5.5597 3.5332 3.75488 5.23145 3.75488 7.31883C3.75488 9.40622 5.5597 11.1045 7.77811 11.1045C9.99652 11.1045 11.8013 9.40625 11.8013 7.31883C11.8013 5.23142 9.99652 3.5332 7.77811 3.5332ZM7.77811 9.63203C6.4204 9.63203 5.31977 8.5964 5.31977 7.31886C5.31977 6.04132 6.42042 5.00569 7.77811 5.00569C9.13582 5.00569 10.2364 6.04132 10.2364 7.31886C10.2364 8.59637 9.13579 9.63203 7.77811 9.63203Z" fill="#2B2A35"/>
<path d="M11.8088 4.46875C12.3412 4.46875 12.7728 4.06257 12.7728 3.56152C12.7728 3.06048 12.3412 2.6543 11.8088 2.6543C11.2763 2.6543 10.8447 3.06048 10.8447 3.56152C10.8447 4.06257 11.2763 4.46875 11.8088 4.46875Z" fill="#2B2A35"/>
</g>
</svg>
