<svg width="61" height="63" viewBox="0 0 61 63" fill="none" xmlns="http://www.w3.org/2000/svg">
    <path
        d="M29.0256 61.9862C34.7972 62.1611 40.5689 60.6745 45.3786 57.3514C55.3478 50.5304 60.245 37.8503 59.4579 26.0446C58.3211 9.69163 43.9794 1.12161 28.6758 1.90865C15.5584 2.5208 6.02646 11.6155 2.7034 24.1207C-1.14437 38.8122 5.76412 55.0778 20.543 60.3247C23.254 61.2867 26.1398 61.8113 29.0256 61.9862Z"
        stroke="#FF4E46" stroke-width="2" stroke-miterlimit="10" stroke-linecap="round"/>
    <path
        d="M31.0366 17.4746C31.3864 18.1742 31.7362 18.9612 32.086 19.6608C32.4358 20.273 32.6981 20.9726 33.0479 21.5847C33.4852 22.3717 33.835 23.1588 34.1848 23.9458C34.4471 24.558 34.622 25.1701 35.1467 25.4325C36.0212 25.8697 37.4204 25.7823 38.3823 25.9572C40.2188 26.2195 41.9678 26.4819 43.8042 26.7442C44.5912 26.8317 44.8536 27.7936 44.3289 28.3183L37.9451 34.5272C37.6827 34.7895 38.4698 37.6753 38.6447 38.2C39.1694 39.8616 39.1694 41.6106 39.5192 43.3595C39.6066 44.1466 38.8196 44.6713 38.2074 44.3215C36.2836 43.3595 34.3597 42.3102 32.5232 41.3482C31.9985 41.0859 31.4738 40.8235 30.9492 40.5612C29.9872 40.1239 29.4625 40.7361 28.5006 41.2608C26.4892 42.3976 24.3905 43.3595 22.3791 44.4089C21.6795 44.7587 20.8925 44.1466 21.0674 43.447C21.4172 41.5231 21.767 39.5992 22.0293 37.6753C22.2042 36.7134 22.7289 35.3142 22.2917 34.5272C21.6795 33.128 20.2804 32.341 19.231 31.2916C18.0941 30.2422 17.1322 29.3677 16.0828 28.3183C15.5581 27.7936 15.8204 26.8317 16.6075 26.7442C17.7443 26.5693 18.9686 26.3944 20.1055 26.2195C21.0674 26.0446 22.0293 25.9572 22.9913 25.7823C24.303 25.6074 25.265 25.7823 25.9645 24.4705C26.4018 23.5086 26.9265 22.6341 27.3637 21.6722C28.0633 20.273 28.7629 18.7863 29.4625 17.3871C29.7249 16.775 30.7743 16.775 31.0366 17.4746Z"
        stroke="#FF4E46" stroke-width="2" stroke-miterlimit="10" stroke-linecap="round"/>
</svg>
