<svg width="25" height="25" viewBox="0 0 25 25" xmlns="http://www.w3.org/2000/svg">
<path d="M18.2327 0H6.76727C3.03574 0 0 3.03574 0 6.76727V18.2329C0 21.9643 3.03574 25 6.76727 25H18.2329C21.9643 25 25 21.9643 25 18.2329V6.76727C25 3.03574 21.9643 0 18.2327 0ZM12.5 17.9688C9.37497 17.9688 7.03122 15.625 7.03122 12.5C7.03122 9.37497 9.37497 7.03126 12.5 7.03126C16.0949 7.03126 17.9688 9.85203 17.9688 12.5C17.9687 16.1777 14.8437 17.9688 12.5 17.9688ZM19.4992 7.27634C18.3853 7.27634 17.4793 6.37035 17.4793 5.25646C17.4793 4.14257 18.3853 3.23639 19.4992 3.23639C20.6131 3.23639 21.5193 4.14257 21.5193 5.25646C21.5193 6.37035 20.6131 7.27634 19.4992 7.27634Z"/>
</svg>
