<svg width="760" height="800" viewBox="0 0 760 800" preserveAspectRatio="xMaxYMid meet" fill="none" xmlns="http://www.w3.org/2000/svg">
<path opacity="0.2" d="M491.452 490.607C489 489.927 487.198 488.555 486.043 486.491C484.889 484.428 484.637 482.224 485.287 479.881C485.937 477.537 487.289 475.778 489.341 474.604C491.394 473.43 493.646 473.183 496.097 473.864C497.593 474.278 498.864 475.021 499.912 476.093C500.964 477.148 501.66 478.379 502.001 479.785L500.336 480.22C500.101 479.092 499.564 478.096 498.724 477.232C497.884 476.369 496.863 475.77 495.661 475.436C493.641 474.876 491.81 475.073 490.166 476.029C488.523 476.984 487.436 478.418 486.906 480.33C486.376 482.242 486.568 484.03 487.484 485.696C488.401 487.361 489.868 488.474 491.888 489.035C493.091 489.368 494.274 489.381 495.439 489.073C496.604 488.765 497.577 488.189 498.36 487.343L499.569 488.55C498.568 489.584 497.335 490.288 495.87 490.662C494.42 491.04 492.947 491.022 491.452 490.607ZM500.967 492.948L505.651 476.066L507.177 476.489L502.494 493.372L500.967 492.948ZM511.26 480.362C510.984 480.518 510.692 480.553 510.384 480.467C510.075 480.382 509.843 480.201 509.687 479.925C509.531 479.65 509.496 479.358 509.582 479.049C509.667 478.741 509.848 478.509 510.124 478.353C510.399 478.197 510.691 478.162 511 478.247C511.308 478.333 511.54 478.513 511.696 478.789C511.852 479.065 511.887 479.357 511.802 479.665C511.716 479.973 511.536 480.206 511.26 480.362ZM505.733 494.27L508.941 482.707L510.467 483.13L507.259 494.694L505.733 494.27ZM515.809 497.365C514.067 496.881 512.778 495.901 511.943 494.424C511.112 492.931 510.933 491.329 511.408 489.618C511.883 487.907 512.859 486.633 514.336 485.798C515.817 484.947 517.429 484.763 519.171 485.246C520.312 485.563 521.261 486.125 522.016 486.932C522.776 487.724 523.236 488.64 523.396 489.681L521.948 490.051C521.832 489.272 521.483 488.586 520.9 487.992C520.337 487.388 519.624 486.966 518.761 486.726C517.481 486.371 516.278 486.519 515.151 487.17C514.028 487.805 513.289 488.762 512.934 490.042C512.579 491.321 512.717 492.53 513.348 493.668C513.983 494.791 514.94 495.53 516.22 495.885C517.083 496.124 517.91 496.138 518.699 495.925C519.493 495.697 520.179 495.289 520.757 494.702L521.824 495.795C521.089 496.588 520.184 497.126 519.11 497.409C518.035 497.692 516.935 497.677 515.809 497.365ZM532.601 501.724L530.566 501.16L526.331 493.982L524.784 499.556L523.258 499.132L527.749 482.944L529.276 483.367L526.574 493.103L533.497 489.519L535.578 490.097L528.071 493.992L532.601 501.724ZM536.367 498.037L538.009 490.772L539.293 486.146L541.143 486.659L539.86 491.285L537.524 498.358L536.367 498.037ZM536.667 502.703C536.352 502.881 536.017 502.921 535.662 502.823C535.308 502.724 535.041 502.518 534.863 502.202C534.685 501.887 534.645 501.552 534.743 501.198C534.842 500.843 535.048 500.577 535.364 500.399C535.679 500.22 536.014 500.18 536.368 500.279C536.723 500.377 536.989 500.584 537.167 500.899C537.346 501.214 537.386 501.549 537.287 501.904C537.189 502.258 536.982 502.525 536.667 502.703Z" fill="#242424"/>
</svg>
