<svg width="760" height="800" viewBox="0 0 760 800" preserveAspectRatio="xMaxYMid meet" fill="none" xmlns="http://www.w3.org/2000/svg">
<path opacity="0.2" d="M644.167 160.717C644.751 161.387 645.105 162.15 645.228 163.007C645.372 163.856 645.247 164.692 644.854 165.514C644.295 166.684 643.407 167.483 642.191 167.913C640.975 168.342 639.783 168.278 638.613 167.719L632.009 164.563L639.253 149.405L645.359 152.323C646.485 152.861 647.252 153.724 647.66 154.912C648.074 156.085 648.016 157.228 647.485 158.34C646.808 159.754 645.703 160.547 644.167 160.717ZM644.676 153.752L640.085 151.558L637.56 156.842L642.151 159.036C642.858 159.374 643.578 159.408 644.311 159.137C645.064 158.859 645.617 158.351 645.969 157.615C646.314 156.893 646.358 156.152 646.101 155.391C645.858 154.636 645.383 154.09 644.676 153.752ZM639.296 166.29C640.047 166.649 640.81 166.685 641.585 166.399C642.381 166.106 642.965 165.57 643.338 164.79C643.704 164.025 643.75 163.24 643.478 162.437C643.221 161.64 642.717 161.062 641.966 160.703L636.877 158.271L634.207 163.858L639.296 166.29ZM654.945 173.848C653.331 174.407 651.73 174.306 650.142 173.548C648.554 172.789 647.462 171.602 646.868 169.988C646.295 168.367 646.392 166.755 647.158 165.153C647.924 163.55 649.114 162.47 650.728 161.911C652.364 161.345 653.976 161.442 655.564 162.201C657.152 162.96 658.233 164.15 658.805 165.771C659.4 167.385 659.314 168.993 658.548 170.596C657.782 172.198 656.581 173.282 654.945 173.848ZM648.362 169.479C648.792 170.695 649.606 171.589 650.804 172.162C652.002 172.734 653.209 172.806 654.425 172.376C655.648 171.932 656.546 171.111 657.119 169.913C657.691 168.715 657.763 167.507 657.333 166.291C656.911 165.061 656.1 164.159 654.902 163.587C653.704 163.014 652.493 162.95 651.27 163.394C650.054 163.823 649.16 164.637 648.587 165.836C648.014 167.034 647.939 168.248 648.362 169.479ZM668.078 180.124C666.463 180.683 664.862 180.582 663.274 179.823C661.686 179.065 660.595 177.878 660 176.264C659.428 174.643 659.524 173.031 660.29 171.428C661.056 169.826 662.246 168.745 663.86 168.187C665.496 167.621 667.108 167.718 668.696 168.477C670.284 169.235 671.365 170.426 671.938 172.047C672.532 173.661 672.446 175.269 671.68 176.872C670.914 178.474 669.713 179.558 668.078 180.124ZM661.494 175.754C661.924 176.971 662.738 177.865 663.936 178.438C665.134 179.01 666.341 179.082 667.557 178.652C668.78 178.208 669.678 177.387 670.251 176.189C670.824 174.99 670.895 173.783 670.465 172.567C670.043 171.337 669.232 170.435 668.034 169.862C666.836 169.29 665.625 169.226 664.402 169.67C663.186 170.099 662.292 170.913 661.719 172.111C661.146 173.31 661.072 174.524 661.494 175.754ZM673.884 179.521L676.767 172.653L678.837 168.322L680.569 169.15L678.499 173.481L674.967 180.038L673.884 179.521ZM673.366 184.167C673.024 184.288 672.688 184.269 672.356 184.11C672.023 183.952 671.797 183.702 671.677 183.36C671.556 183.019 671.575 182.682 671.734 182.35C671.892 182.018 672.142 181.792 672.484 181.671C672.825 181.551 673.162 181.57 673.494 181.728C673.826 181.887 674.052 182.137 674.173 182.478C674.293 182.82 674.274 183.157 674.116 183.489C673.957 183.821 673.707 184.047 673.366 184.167ZM610.433 190.179L617.795 193.698L617.112 195.127L608.234 190.884L615.478 175.726L624.248 179.917L623.565 181.346L616.311 177.88L613.744 183.25L620.457 186.458L619.774 187.887L613.061 184.679L610.433 190.179ZM637.544 196.033L637.171 196.813C636.274 198.69 634.844 199.957 632.881 200.614C630.924 201.258 628.82 201.041 626.568 199.965C624.272 198.868 622.736 197.203 621.959 194.969C621.182 192.736 621.318 190.522 622.367 188.328C623.415 186.134 625.053 184.637 627.278 183.839C629.504 183.041 631.765 183.19 634.06 184.287C635.46 184.956 636.583 185.91 637.428 187.147C638.273 188.384 638.744 189.718 638.841 191.147L637.126 191.285C637.091 190.134 636.736 189.059 636.06 188.062C635.383 187.065 634.482 186.298 633.356 185.76C631.465 184.856 629.627 184.731 627.843 185.386C626.058 186.04 624.738 187.262 623.883 189.052C623.027 190.843 622.905 192.637 623.517 194.437C624.129 196.237 625.38 197.589 627.271 198.492C628.975 199.306 630.543 199.532 631.975 199.171C633.414 198.794 634.523 197.976 635.302 196.717L629.282 193.84L629.965 192.411L637.544 196.033ZM638.896 203.782L646.259 207.3L645.576 208.729L636.698 204.487L643.941 189.329L652.711 193.52L652.028 194.949L644.774 191.482L642.208 196.852L648.921 200.06L648.238 201.49L641.525 198.282L638.896 203.782ZM650.379 209.269L657.741 212.788L657.058 214.217L648.18 209.974L655.424 194.816L664.194 199.007L663.511 200.436L656.257 196.97L653.691 202.34L660.403 205.548L659.72 206.977L653.008 203.769L650.379 209.269ZM661.862 214.757L669.224 218.275L668.541 219.705L659.663 215.462L666.907 200.304L675.677 204.495L674.994 205.924L667.74 202.457L665.173 207.828L671.886 211.036L671.203 212.465L664.49 209.257L661.862 214.757Z" fill="#242424"/>
</svg>
