<svg width="760" height="800" viewBox="0 0 760 800" preserveAspectRatio="xMaxYMid meet" fill="none" xmlns="http://www.w3.org/2000/svg">
<path opacity="0.2" d="M503.174 476.126L504.793 476.576L500.302 492.764L498.683 492.315L500.576 485.493C498.98 485.797 497.42 485.738 495.893 485.314C494.351 484.887 493.238 484.113 492.552 482.993C491.867 481.873 491.712 480.634 492.089 479.278L493.693 473.496L495.311 473.945L493.707 479.727C493.447 480.667 493.538 481.506 493.981 482.243C494.443 482.969 495.222 483.484 496.317 483.788C497.843 484.211 499.404 484.271 500.999 483.966L503.174 476.126ZM515.397 484.499L516.692 484.858L513.484 496.421L511.958 495.998L514.428 487.094L505.066 494.086L503.771 493.727L506.979 482.163L508.505 482.587L506.035 491.49L515.397 484.499ZM526.055 499.909L524.02 499.344L519.785 492.167L518.238 497.74L516.712 497.317L519.92 485.754L521.446 486.177L520.028 491.288L526.95 487.704L529.032 488.281L521.525 492.176L526.055 499.909ZM529.821 496.221L531.463 488.956L532.747 484.331L534.597 484.844L533.313 489.469L530.978 496.542L529.821 496.221ZM530.121 500.887C529.806 501.066 529.471 501.106 529.116 501.007C528.762 500.909 528.495 500.702 528.317 500.387C528.139 500.072 528.099 499.737 528.197 499.382C528.296 499.028 528.502 498.761 528.817 498.583C529.133 498.405 529.467 498.365 529.822 498.463C530.177 498.562 530.443 498.768 530.621 499.084C530.8 499.399 530.839 499.733 530.741 500.088C530.643 500.443 530.436 500.709 530.121 500.887Z" fill="#242424"/>
</svg>
