<svg width="760" height="800" viewBox="0 0 760 800" preserveAspectRatio="xMaxYMid meet" fill="none" xmlns="http://www.w3.org/2000/svg">
<path opacity="0.2" d="M632.046 158.101C633.387 158.474 634.395 159.268 635.071 160.485C635.761 161.706 635.923 162.979 635.555 164.305C635.183 165.647 634.386 166.663 633.165 167.353C631.964 168.033 630.692 168.187 629.351 167.815L623.338 166.146L627.829 149.958L637.311 152.588L636.888 154.115L629.025 151.933L627.652 156.882L632.046 158.101ZM629.775 166.288C630.669 166.536 631.522 166.424 632.334 165.952C633.145 165.48 633.68 164.781 633.936 163.856C634.189 162.947 634.088 162.08 633.636 161.257C633.188 160.419 632.517 159.876 631.622 159.628L627.228 158.409L625.381 165.069L629.775 166.288ZM647.468 160.388L649.087 160.837L640.635 172.091C639.871 173.108 638.984 173.824 637.971 174.241C636.97 174.677 635.972 174.716 634.975 174.356L635.373 172.922C636.718 173.462 637.997 172.953 639.209 171.396L639.708 170.763L637.755 157.693L639.374 158.142L641.034 169.038L647.468 160.388ZM659.258 163.658L660.876 164.107L652.424 175.361C651.661 176.378 650.773 177.095 649.76 177.512C648.759 177.948 647.761 177.986 646.765 177.627L647.162 176.193C648.507 176.732 649.786 176.223 650.998 174.667L651.498 174.033L649.544 160.964L651.163 161.413L652.823 172.309L659.258 163.658ZM671.047 166.929L672.666 167.378L664.213 178.632C663.45 179.649 662.562 180.366 661.55 180.782C660.548 181.218 659.55 181.257 658.554 180.898L658.951 179.464C660.296 180.003 661.575 179.494 662.787 177.938L663.287 177.304L661.334 164.234L662.952 164.683L664.612 175.58L671.047 166.929ZM672.984 175.187L674.626 167.922L675.909 163.297L677.759 163.81L676.476 168.435L674.14 175.508L672.984 175.187ZM673.283 179.853C672.968 180.032 672.633 180.071 672.279 179.973C671.924 179.875 671.658 179.668 671.479 179.353C671.301 179.038 671.261 178.703 671.36 178.348C671.458 177.994 671.665 177.727 671.98 177.549C672.295 177.371 672.63 177.331 672.985 177.429C673.339 177.528 673.606 177.734 673.784 178.049C673.962 178.365 674.002 178.699 673.904 179.054C673.805 179.409 673.598 179.675 673.283 179.853ZM623.146 199.733L631.009 201.915L630.585 203.441L621.103 200.811L625.594 184.622L634.961 187.22L634.537 188.747L626.79 186.597L625.199 192.333L632.368 194.322L631.944 195.848L624.775 193.859L623.146 199.733ZM646.877 190.526L646.454 192.053L639.053 190L634.985 204.662L633.367 204.213L637.858 188.024L646.877 190.526ZM654.787 192.422C657.239 193.102 659.018 194.468 660.126 196.519C661.254 198.558 661.491 200.758 660.836 203.116C660.182 205.475 658.844 207.246 656.822 208.429C654.82 209.6 652.593 209.846 650.142 209.166C648.646 208.751 647.367 208.006 646.304 206.93C645.256 205.859 644.57 204.623 644.245 203.221L645.903 202.809C646.138 203.937 646.675 204.933 647.515 205.797C648.355 206.661 649.376 207.259 650.578 207.593C652.444 208.111 654.144 207.968 655.678 207.165C657.213 206.362 658.307 205.113 658.96 203.418L650.102 200.96L650.526 199.434L659.383 201.891C659.697 200.102 659.403 198.468 658.501 196.989C657.6 195.51 656.216 194.512 654.351 193.995C653.148 193.661 651.965 193.648 650.8 193.956C649.635 194.264 648.662 194.841 647.879 195.686L646.676 194.456C647.693 193.426 648.924 192.73 650.369 192.367C651.819 191.989 653.292 192.007 654.787 192.422ZM662.822 207.652L664.464 200.387L665.747 195.762L667.597 196.275L666.314 200.9L663.978 207.973L662.822 207.652ZM663.121 212.318C662.806 212.496 662.471 212.536 662.117 212.438C661.762 212.34 661.496 212.133 661.317 211.818C661.139 211.503 661.099 211.168 661.198 210.813C661.296 210.459 661.503 210.192 661.818 210.014C662.133 209.836 662.468 209.796 662.822 209.894C663.177 209.992 663.443 210.199 663.622 210.514C663.8 210.829 663.84 211.164 663.741 211.519C663.643 211.874 663.436 212.14 663.121 212.318Z" fill="#242424"/>
</svg>
