<svg xmlns="http://www.w3.org/2000/svg" viewBox="0 0 205.19 94.49">
  <path fill="#951b81" d="M26.62 31.23a11.23 11.23 0 006.61 1.92 13.24 13.24 0 009.48-3.59A14.71 14.71 0 0047.27 21a11.8 11.8 0 00-.17-4.63 11.19 11.19 0 00-1.86-4 9.54 9.54 0 00-3.63-2.9 12 12 0 00-5.22-1.1 13.46 13.46 0 00-9.48 3.54 14.44 14.44 0 00-4.66 8.46 11.81 11.81 0 00.56 6.09 10 10 0 003.81 4.81M29 20.74a6.83 6.83 0 012.38-4.12 6.6 6.6 0 014.4-1.62 4.7 4.7 0 013.86 1.64 4.83 4.83 0 01.92 4.12 6.88 6.88 0 01-2.38 4.12 6.67 6.67 0 01-4.44 1.64 4.76 4.76 0 01-3.87-1.64 4.86 4.86 0 01-.87-4.14M56.56 21.21l5.46 11.4h5.43l4.17-23.74h-6.79l-2 11.39-5.45-11.39h-5.43l-4.17 23.74h6.78l2-11.4zM80.67 32.61a13.13 13.13 0 009-3.21 13.9 13.9 0 004.58-8.32 10.45 10.45 0 00-1.91-8.61 9 9 0 00-7.48-3.6H75l-4.17 23.74zM81 15.45h2.72a3.68 3.68 0 013.15 1.47 4.85 4.85 0 01.68 3.82 6.71 6.71 0 01-2 3.81A5.2 5.2 0 0181.82 26h-2.71zM100.44 31.23a11.23 11.23 0 006.61 1.92 13.21 13.21 0 009.47-3.59 14.67 14.67 0 004.57-8.56 11.8 11.8 0 00-.17-4.63 11.38 11.38 0 00-1.87-4 9.46 9.46 0 00-3.63-2.9 12 12 0 00-5.22-1.1 13.46 13.46 0 00-9.47 3.54 14.51 14.51 0 00-4.67 8.46 11.92 11.92 0 00.56 6.09 10.06 10.06 0 003.82 4.81m2.34-10.49a6.81 6.81 0 012.37-4.12 6.64 6.64 0 014.44-1.66 4.73 4.73 0 013.87 1.64 4.83 4.83 0 01.91 4.12 6.81 6.81 0 01-2.37 4.1 6.69 6.69 0 01-4.44 1.64 4.74 4.74 0 01-3.87-1.64 4.83 4.83 0 01-.91-4.12M130.38 21.21l5.46 11.4h5.42l4.17-23.74h-6.78l-2 11.39-5.46-11.39h-5.42l-4.18 23.74h6.79l2-11.4zM15.59 54.02l1.05-5.89H9.11l.42-2.49h8.35l1.05-5.96H4.03L0 62.6h15.07l1.04-6.02H7.6l.46-2.56h7.53zM41.69 39.68h-7.47l-3.99 5.24-2.26-5.24h-7.08l4.82 11.16L16.7 62.6h7.47l4.22-5.5 2.36 5.5h7.08l-4.92-11.43 8.78-11.49zM58.61 42a7 7 0 00-5.45-2.34h-9l-4 22.92h6.55l1.15-6.48h2.62a10 10 0 006.59-2.1 8.81 8.81 0 003.09-5.74A7.23 7.23 0 0058.61 42m-4.93 5.9a2.15 2.15 0 01-2.13 1.86h-2.62l.66-3.76H52a1.83 1.83 0 011.28.48 1.41 1.41 0 01.36 1.39M72.54 62.57h6.56l-2.95-8.38A8.15 8.15 0 0080.73 48a6.68 6.68 0 00-1.5-6 7.41 7.41 0 00-5.73-2.37h-9.18l-4.06 22.94h6.55l1.28-7.21h2.1zm-2.75-16.9h2.62a1.79 1.79 0 011.46.57 1.92 1.92 0 01.31 1.59 2.48 2.48 0 01-.83 1.57 2.31 2.31 0 01-1.63.53H69zM99.27 45.64l1.05-5.96h-14.9L81.39 62.6h15.06l1.05-6.02h-8.52l.46-2.56h7.54l1.04-5.89h-7.53l.43-2.49h8.35zM110.7 45.21a3.12 3.12 0 013.11 2.23l5.53-2.95a8.57 8.57 0 00-3.17-4 9 9 0 00-5-1.38 9.66 9.66 0 00-6 1.87 7.69 7.69 0 00-3 4.95q-1 5.4 5.14 7.53l1.2.36c.51.15.91.28 1.19.39s.59.24.92.4a1.69 1.69 0 01.69.52 1 1 0 01.13.69c-.16.8-1 1.21-2.56 1.21a3.92 3.92 0 01-4-2.62l-5.67 2.91a7.56 7.56 0 003.09 4.24 10.63 10.63 0 006 1.53 11.33 11.33 0 006.51-1.71 7.3 7.3 0 003.09-5 7.6 7.6 0 00-.05-3.14 4.22 4.22 0 00-1.31-2.2 8.84 8.84 0 00-1.9-1.32 16.39 16.39 0 00-2.34-.94 15.76 15.76 0 01-3-1.21 1.1 1.1 0 01-.59-1.18c.18-.78.83-1.18 2-1.18M136.2 51a9.09 9.09 0 00-1.9-1.32 17.07 17.07 0 00-2.35-.94 15.58 15.58 0 01-2.95-1.17 1.1 1.1 0 01-.59-1.18c.17-.79.83-1.18 2-1.18a3.1 3.1 0 013.11 2.23l5.48-2.95a8.53 8.53 0 00-3.18-4 9 9 0 00-5-1.38 9.67 9.67 0 00-6 1.87 7.73 7.73 0 00-3 4.95q-.94 5.4 5.14 7.53l1.2.36c.51.15.91.28 1.19.39s.59.24.92.39a1.65 1.65 0 01.69.53.94.94 0 01.13.69c-.15.8-1 1.21-2.56 1.21a3.94 3.94 0 01-4-2.62l-5.67 2.91A7.53 7.53 0 00122 61.6a10.6 10.6 0 006 1.53 11.31 11.31 0 006.5-1.71 7.3 7.3 0 003.09-5 7.79 7.79 0 000-3.14A4.29 4.29 0 00136.2 51M76.84 79.76h4.68q-1.32 3-5.25 3a4.31 4.31 0 01-3.56-1.46 4.54 4.54 0 01-.76-3.8A6.22 6.22 0 0174 73.76a5.89 5.89 0 014-1.45 4.25 4.25 0 014.09 2.33L85 73.13a6.62 6.62 0 00-2.59-2.87 7.91 7.91 0 00-4.08-1 9.32 9.32 0 00-6.22 2.28 9.45 9.45 0 00-3.26 5.78 7.21 7.21 0 001.41 6.07A7 7 0 0076 85.88a9.11 9.11 0 006-2.09 8.88 8.88 0 003.11-5.58l.23-1.21h-8zM90.57 76l.32-1.83h-3l-2 11.42h2.95l1-5.57a3.44 3.44 0 012.41-2.69 4.34 4.34 0 011.57-.1l.57-3.29A4 4 0 0090.57 76M101.11 73.82a6.79 6.79 0 00-4.53 1.61 7 7 0 00-2.38 4 5.42 5.42 0 00.94 4.57 5 5 0 004.28 1.91 6.56 6.56 0 004.39-1.65 6.78 6.78 0 002.35-4.08 5.46 5.46 0 00-1-4.42 4.82 4.82 0 00-4.08-1.91m2.12 6a3.56 3.56 0 01-1.27 2.3 3.49 3.49 0 01-2.34.87 2.47 2.47 0 01-2-.85 2.69 2.69 0 01-.47-2.3 3.89 3.89 0 011.29-2.3 3.49 3.49 0 012.3-.85 2.51 2.51 0 012 .85 2.6 2.6 0 01.46 2.28M20.98 26.03h-7.8L16.2 8.87H9.41L5.25 32.61h14.57l1.16-6.58zM116.8 74.14l-1.14 6.53a3.3 3.3 0 01-1.11 1.86 2.89 2.89 0 01-1.84.61 2 2 0 01-1.54-.59 2.08 2.08 0 01-.31-1.76l1.14-6.65h-3l-1.23 7a4.07 4.07 0 00.66 3.45 3.61 3.61 0 003 1.28 4.45 4.45 0 003.57-1.54l-.23 1.23h2.95l2-11.42zM129 73.82a5.12 5.12 0 00-3.79 1.51l.21-1.19h-3l-2.81 16h2.94l1.11-6.14a3.92 3.92 0 003.66 1.92 5.8 5.8 0 004.2-1.69 7 7 0 002.1-4.11 5.7 5.7 0 00-.9-4.38 4.3 4.3 0 00-3.72-1.92m1.69 6.06a3.77 3.77 0 01-1.27 2.34 3.59 3.59 0 01-2.36.85 2.74 2.74 0 01-2.08-.8 2.5 2.5 0 01-.61-2.17l.09-.57a3.81 3.81 0 011.36-2.1 3.65 3.65 0 012.32-.8 2.52 2.52 0 012.09.9 2.82 2.82 0 01.46 2.35M186.45 74.94a5.68 5.68 0 105.69 5.68 5.68 5.68 0 00-5.69-5.68"/>
  <path fill="#951b81" d="M204.42 67.07l-.66-.06-.15-2.8-.78-.42c-.07-.51-.08-.72-.17-1.24-1.46-2-8.77-3.42-8.77-3.42l-.69-17.33a31.7 31.7 0 015.07-.48c0 1.63-.07 3.8-.24 6.17a.18.18 0 01-.18.16.17.17 0 01-.17-.18v-.72a.33.33 0 00-.33-.33h-1.12a.33.33 0 00-.33.33v8.8a.33.33 0 00.33.33h1.12a.33.33 0 00.33-.33v-.07A112.37 112.37 0 00199 38.32v-1a29.77 29.77 0 00-.77-6.71l-2.89-12.48a12 12 0 00-11.71-9.31H155L156.52 0h-2.06L138.1 94.49h2.06l1.55-8.91h32.55l1.17-1.9a11.44 11.44 0 0022.43-2.22h5.78a.85.85 0 00.85-.9l-.37-6.81.72-.21a9.5 9.5 0 00-.42-6.46m-17.11-49.82a.85.85 0 01.85-.85h2.9a2.54 2.54 0 012.48 2l2 8.59a.85.85 0 01-.83 1.05h-6.56a.85.85 0 01-.85-.86zM192 55.7a.86.86 0 01-.85.89h-2.93a.86.86 0 01-.86-.86V43.8a.87.87 0 01.64-.8c1-.25 2.15-.55 3.47-.83zm-28.56-38.44a.86.86 0 01.86-.85h19.9a.85.85 0 01.85.85v9.9a.85.85 0 01-.85.86h-19.9a.86.86 0 01-.86-.86zm-9.76-.85h7.12a.85.85 0 01.85.85v9.9a.85.85 0 01-.85.86h-9.13zm8 39.33a.85.85 0 01-.85.85h-14.11l2-11.6h12.08a.85.85 0 01.85.85zm2.64.85a.86.86 0 01-.86-.85v-9.9a.86.86 0 01.86-.85h19.9a.85.85 0 01.85.85v9.9a.85.85 0 01-.85.85zm22.15 31.52a7.49 7.49 0 117.49-7.49 7.49 7.49 0 01-7.49 7.49M201.31 16.65a3.79 3.79 0 003.88-3.88 3.89 3.89 0 10-7.77 0 3.79 3.79 0 003.89 3.88m0-7.21a3.19 3.19 0 013.24 3.33 3.24 3.24 0 11-6.48 0 3.19 3.19 0 013.24-3.33"/>
  <path fill="#951b81" d="M200.59 13.22h.21l1.33 1.78h1l-1.5-1.89a1.2 1.2 0 001-1.24c0-1.27-1.12-1.36-1.61-1.36h-1.15V15h.77zm0-2h.31c.29 0 .91 0 .91.65s-.61.65-.93.65h-.29z"/>
</svg>