<svg xmlns="http://www.w3.org/2000/svg" viewBox="0 0 205.2 94.49"><path class="a" d="M26.61,31.23a11.23,11.23,0,0,0,6.61,1.92,13.24,13.24,0,0,0,9.48-3.59A14.71,14.71,0,0,0,47.26,21a11.8,11.8,0,0,0-.17-4.63,11,11,0,0,0-1.87-4,9.5,9.5,0,0,0-3.62-2.9,12,12,0,0,0-5.22-1.1,13.46,13.46,0,0,0-9.48,3.54,14.51,14.51,0,0,0-4.67,8.46,11.92,11.92,0,0,0,.56,6.09,10.06,10.06,0,0,0,3.82,4.81M29,20.74a6.81,6.81,0,0,1,2.37-4.12A6.64,6.64,0,0,1,35.76,15a4.72,4.72,0,0,1,3.87,1.64,4.87,4.87,0,0,1,.92,4.12,6.88,6.88,0,0,1-2.38,4.12,6.69,6.69,0,0,1-4.44,1.64,4.76,4.76,0,0,1-3.87-1.64A4.83,4.83,0,0,1,29,20.74"/><polygon class="a" points="56.55 21.21 62.01 32.61 67.43 32.61 71.6 8.87 64.82 8.87 62.82 20.26 57.36 8.87 51.94 8.87 47.77 32.61 54.55 32.61 56.55 21.21"/><path class="a" d="M80.66,32.61a13.13,13.13,0,0,0,9-3.21,14,14,0,0,0,4.58-8.32,10.45,10.45,0,0,0-1.91-8.61,9,9,0,0,0-7.48-3.6H75L70.82,32.61ZM81,15.45h2.72a3.68,3.68,0,0,1,3.15,1.47,4.85,4.85,0,0,1,.68,3.82,6.77,6.77,0,0,1-2,3.81A5.2,5.2,0,0,1,81.81,26H79.1Z"/><path class="a" d="M100.43,31.23A11.23,11.23,0,0,0,107,33.15a13.21,13.21,0,0,0,9.47-3.59A14.73,14.73,0,0,0,121.08,21a11.8,11.8,0,0,0-.18-4.63,11.19,11.19,0,0,0-1.86-4,9.46,9.46,0,0,0-3.63-2.9,12,12,0,0,0-5.22-1.1,13.5,13.5,0,0,0-9.48,3.54,14.49,14.49,0,0,0-4.66,8.46,11.92,11.92,0,0,0,.56,6.09,10,10,0,0,0,3.82,4.81m2.34-10.49a6.81,6.81,0,0,1,2.37-4.12A6.64,6.64,0,0,1,109.58,15a4.73,4.73,0,0,1,3.87,1.64,4.86,4.86,0,0,1,.91,4.12A6.81,6.81,0,0,1,112,24.86a6.69,6.69,0,0,1-4.45,1.64,4.73,4.73,0,0,1-3.86-1.64,4.8,4.8,0,0,1-.91-4.12"/><polygon class="a" points="130.37 21.21 135.82 32.61 141.25 32.61 145.42 8.87 138.64 8.87 136.64 20.26 131.18 8.87 125.75 8.87 121.58 32.61 128.36 32.61 130.37 21.21"/><polygon class="a" points="15.59 54.02 16.64 48.13 9.11 48.13 9.53 45.64 17.88 45.64 18.93 39.68 4.03 39.68 0 62.6 15.07 62.6 16.11 56.58 7.6 56.58 8.06 54.02 15.59 54.02"/><polygon class="a" points="41.69 39.68 34.23 39.68 30.23 44.92 27.97 39.68 20.9 39.68 25.71 50.84 16.7 62.6 24.17 62.6 28.4 57.1 30.75 62.6 37.83 62.6 32.92 51.17 41.69 39.68"/><path class="a" d="M58.61,42a7,7,0,0,0-5.45-2.34h-9l-4,22.92h6.55l1.15-6.48h2.62A10,10,0,0,0,57.07,54a8.81,8.81,0,0,0,3.09-5.74A7.23,7.23,0,0,0,58.61,42M53.68,47.9a2.15,2.15,0,0,1-2.13,1.86H48.93L49.59,46H52a1.83,1.83,0,0,1,1.28.48,1.41,1.41,0,0,1,.36,1.39"/><path class="a" d="M68.09,55.36h2.1l2.35,7.21h6.55l-2.94-8.38A8.15,8.15,0,0,0,80.73,48a6.68,6.68,0,0,0-1.5-6,7.42,7.42,0,0,0-5.74-2.37H64.32L60.26,62.57h6.55Zm1.7-9.69h2.62a1.79,1.79,0,0,1,1.46.57,2,2,0,0,1,.31,1.59,2.48,2.48,0,0,1-.83,1.57,2.31,2.31,0,0,1-1.63.53H69Z"/><polygon class="a" points="88.98 56.58 89.44 54.02 96.98 54.02 98.02 48.13 90.49 48.13 90.92 45.64 99.27 45.64 100.32 39.68 85.42 39.68 81.39 62.6 96.45 62.6 97.5 56.58 88.98 56.58"/><path class="a" d="M110.7,45.21a3.12,3.12,0,0,1,3.11,2.23l5.53-2.95a8.57,8.57,0,0,0-3.17-4,9,9,0,0,0-5-1.38,9.66,9.66,0,0,0-6,1.87,7.69,7.69,0,0,0-3,4.95q-1,5.4,5.14,7.53l1.19.36q.78.22,1.2.39c.28.11.59.24.92.4a1.69,1.69,0,0,1,.69.52,1,1,0,0,1,.13.69c-.16.8-1,1.21-2.56,1.21a3.92,3.92,0,0,1-4-2.62l-5.67,2.91a7.53,7.53,0,0,0,3.1,4.24,10.57,10.57,0,0,0,6,1.53,11.33,11.33,0,0,0,6.51-1.71,7.3,7.3,0,0,0,3.09-5,7.6,7.6,0,0,0-.05-3.14,4.22,4.22,0,0,0-1.31-2.2,8.84,8.84,0,0,0-1.9-1.32,16.39,16.39,0,0,0-2.34-.94,15.76,15.76,0,0,1-3-1.21,1.1,1.1,0,0,1-.59-1.18c.18-.78.83-1.18,2-1.18"/><path class="a" d="M136.19,51a8.8,8.8,0,0,0-1.89-1.32,17.07,17.07,0,0,0-2.35-.94A15.58,15.58,0,0,1,129,47.57a1.1,1.1,0,0,1-.59-1.18c.17-.79.83-1.18,2-1.18a3.1,3.1,0,0,1,3.11,2.23L139,44.49a8.53,8.53,0,0,0-3.18-4,9,9,0,0,0-5-1.38,9.67,9.67,0,0,0-6,1.87,7.73,7.73,0,0,0-3,4.95q-.94,5.4,5.14,7.53l1.2.36c.51.15.91.28,1.19.39s.59.24.92.39a1.65,1.65,0,0,1,.69.53.94.94,0,0,1,.13.69c-.15.8-1,1.21-2.56,1.21a3.94,3.94,0,0,1-4-2.62l-5.67,2.91A7.53,7.53,0,0,0,122,61.6a10.6,10.6,0,0,0,6,1.53,11.31,11.31,0,0,0,6.5-1.71,7.3,7.3,0,0,0,3.09-5,7.6,7.6,0,0,0-.05-3.14,4.16,4.16,0,0,0-1.31-2.2"/><path class="a" d="M186.45,74.94a5.68,5.68,0,1,0,5.68,5.68,5.68,5.68,0,0,0-5.68-5.68"/><path class="a" d="M203.76,67l-.15-2.8-.78-.42c-.07-.51-.08-.72-.17-1.24-1.46-2-8.77-3.42-8.77-3.42L193.2,41.8a31.7,31.7,0,0,1,5.07-.48c0,1.63-.07,3.8-.24,6.17a.18.18,0,0,1-.18.16.18.18,0,0,1-.18-.18v-.72a.32.32,0,0,0-.32-.33h-1.12a.33.33,0,0,0-.33.33v8.8a.33.33,0,0,0,.33.33h1.12a.32.32,0,0,0,.32-.33v-.07A110.31,110.31,0,0,0,199,38.32v-1a29.77,29.77,0,0,0-.77-6.71l-2.89-12.48a12,12,0,0,0-11.71-9.31H155L156.52,0h-2.06L138.1,94.49h2.06l1.55-8.91h32.55l1.17-1.9a11.44,11.44,0,0,0,22.43-2.22h5.77a.86.86,0,0,0,.86-.9l-.37-6.81.72-.21a9.5,9.5,0,0,0-.42-6.46ZM187.31,17.26a.85.85,0,0,1,.85-.85h2.9a2.54,2.54,0,0,1,2.48,2l2,8.59a.85.85,0,0,1-.83,1.05h-6.56a.85.85,0,0,1-.85-.86ZM192,55.7a.86.86,0,0,1-.85.89h-2.93a.86.86,0,0,1-.86-.86V43.8A.87.87,0,0,1,188,43c1-.25,2.15-.55,3.47-.83ZM163.44,17.26a.86.86,0,0,1,.86-.85h19.9a.85.85,0,0,1,.85.85v9.9a.85.85,0,0,1-.85.86H164.3a.86.86,0,0,1-.86-.86Zm-9.76-.85h7.11a.85.85,0,0,1,.86.85v9.9a.85.85,0,0,1-.86.86h-9.12Zm8,39.33a.85.85,0,0,1-.85.85H146.72l2-11.6h12.08a.85.85,0,0,1,.85.85Zm2.64.85a.86.86,0,0,1-.86-.85v-9.9a.86.86,0,0,1,.86-.85h19.9a.85.85,0,0,1,.85.85v9.9a.85.85,0,0,1-.85.85Zm22.15,31.52a7.49,7.49,0,1,1,7.49-7.49,7.49,7.49,0,0,1-7.49,7.49"/><path class="a" d="M76.24,69.25a9.51,9.51,0,0,0-6.36,2.28,9.37,9.37,0,0,0-3.28,5.81,7.12,7.12,0,0,0,1.39,6,6.71,6.71,0,0,0,5.51,2.52,9.61,9.61,0,0,0,9.64-8.06,7.19,7.19,0,0,0-1.43-6,6.67,6.67,0,0,0-5.47-2.54M80,77.59a6.24,6.24,0,0,1-2.16,3.75,6.07,6.07,0,0,1-4,1.46,4.05,4.05,0,0,1-3.37-1.48,4.46,4.46,0,0,1-.76-3.75,6.29,6.29,0,0,1,2.11-3.78,5.84,5.84,0,0,1,3.92-1.48,4.14,4.14,0,0,1,3.42,1.5A4.52,4.52,0,0,1,80,77.59"/><polygon class="a" points="20.98 26.03 13.19 26.03 16.2 8.87 9.42 8.87 5.25 32.61 19.83 32.61 20.98 26.03"/><path class="a" d="M92.13,73.82a4.46,4.46,0,0,0-3.54,1.56l.23-1.24H85.88l-2,11.42h2.94L88,79a3.39,3.39,0,0,1,1.11-1.85,2.92,2.92,0,0,1,1.84-.62,1.9,1.9,0,0,1,1.54.6,2,2,0,0,1,.31,1.76l-1.16,6.64h2.94l1.24-7a4.07,4.07,0,0,0-.67-3.45,3.63,3.63,0,0,0-3-1.28"/><polygon class="a" points="99.95 68.89 98.28 78.39 97.02 85.56 99.97 85.56 101.2 78.5 102.89 68.89 99.95 68.89"/><path class="a" d="M108.2,69.69a1.44,1.44,0,0,0-1.2-.55,2,2,0,0,0-1.37.54A2.12,2.12,0,0,0,104.9,71a1.57,1.57,0,0,0,.32,1.27,1.47,1.47,0,0,0,1.19.53,2.06,2.06,0,0,0,1.37-.52,2.15,2.15,0,0,0,.75-1.28,1.53,1.53,0,0,0-.33-1.28"/><polygon class="a" points="102.66 85.56 105.61 85.56 107.62 74.14 104.67 74.14 102.66 85.56"/><path class="a" d="M116.57,73.82A4.46,4.46,0,0,0,113,75.38l.23-1.24h-3l-2,11.42h3L112.39,79a3.39,3.39,0,0,1,1.11-1.85,2.92,2.92,0,0,1,1.84-.62,1.92,1.92,0,0,1,1.54.6,2,2,0,0,1,.31,1.76L116,85.56h3l1.23-7a4.07,4.07,0,0,0-.66-3.45,3.63,3.63,0,0,0-3-1.28"/><path class="a" d="M128.7,73.82a6.74,6.74,0,0,0-4.48,1.66,6.63,6.63,0,0,0-2.33,4.15,5.39,5.39,0,0,0,1,4.45,5.26,5.26,0,0,0,4.31,1.8,6.47,6.47,0,0,0,5.11-2.17L130.28,82a3.68,3.68,0,0,1-2.81,1.17,3.18,3.18,0,0,1-1.9-.53,2.06,2.06,0,0,1-.84-1.62h8.63a4.65,4.65,0,0,0,.32-1.21,4.87,4.87,0,0,0-5-6m-3.56,4.94a3.78,3.78,0,0,1,1.36-1.69,3.49,3.49,0,0,1,2-.6,2.62,2.62,0,0,1,1.72.56,2.19,2.19,0,0,1,.7,1.73Z"/><path class="a" d="M201.32,16.65a3.78,3.78,0,0,0,3.88-3.88,3.88,3.88,0,1,0-7.76,0,3.79,3.79,0,0,0,3.88,3.88m0-7.21a3.19,3.19,0,0,1,3.24,3.33,3.24,3.24,0,1,1-6.48,0,3.19,3.19,0,0,1,3.24-3.33"/><path class="a" d="M200.61,13.22h.21L202.14,15h1l-1.5-1.89a1.19,1.19,0,0,0,1-1.24c0-1.27-1.11-1.36-1.6-1.36h-1.16V15h.78Zm0-2h.31c.29,0,.91,0,.91.65s-.61.65-.94.65h-.28Z"/></svg>
