<svg xmlns="http://www.w3.org/2000/svg" xmlns:xlink="http://www.w3.org/1999/xlink" viewBox="0 0 396.85 99.72"><defs><style>.cls-1{fill:#1d2225;}.cls-2{fill:#70180e;}.cls-3{fill:#922014;}.cls-16,.cls-4{fill:#9d2417;}.cls-14,.cls-5{fill:#ce785b;}.cls-12,.cls-6{fill:#ba2b1d;}.cls-7{fill:url(#linear-gradient);}.cls-8{fill:url(#linear-gradient-2);}.cls-9{fill:#212a30;}.cls-10{fill:#b52d1d;}.cls-10,.cls-11,.cls-12,.cls-13,.cls-14,.cls-15,.cls-16,.cls-17,.cls-18,.cls-19,.cls-20,.cls-21,.cls-22,.cls-23,.cls-24,.cls-25,.cls-26,.cls-27,.cls-28,.cls-29,.cls-30,.cls-31,.cls-32,.cls-33,.cls-34,.cls-35,.cls-38,.cls-39,.cls-40,.cls-41{fill-rule:evenodd;}.cls-11,.cls-43{fill:#3c3c3c;}.cls-15{fill:#821b10;}.cls-17,.cls-25,.cls-33,.cls-42{fill:#fff;}.cls-18,.cls-19,.cls-20,.cls-21,.cls-22,.cls-23,.cls-24,.cls-25,.cls-26,.cls-27,.cls-28,.cls-29,.cls-30,.cls-31,.cls-32,.cls-33,.cls-34,.cls-35{stroke:#000;stroke-miterlimit:22.93;}.cls-18,.cls-19,.cls-20,.cls-21,.cls-22,.cls-23,.cls-24,.cls-25,.cls-26,.cls-27{stroke-width:0.08px;}.cls-19{fill:#8b2717;}.cls-20{fill:url(#linear-gradient-3);}.cls-21{fill:url(#linear-gradient-4);}.cls-22{fill:url(#Новый_образец_градиента_7);}.cls-23{fill:url(#Новый_образец_градиента_12);}.cls-24,.cls-32{fill:#ececec;}.cls-26,.cls-34{fill:#3b3b3b;}.cls-27,.cls-35{fill:#303237;}.cls-28,.cls-29,.cls-30,.cls-31,.cls-32,.cls-33,.cls-34,.cls-35{stroke-width:0.05px;}.cls-29{fill:url(#linear-gradient-5);}.cls-30{fill:url(#Новый_образец_градиента_7-2);}.cls-31{fill:url(#Новый_образец_градиента_12-2);}.cls-36{fill:url(#linear-gradient-6);}.cls-37{fill:url(#linear-gradient-7);}.cls-38{fill:url(#linear-gradient-8);}.cls-39{fill:url(#linear-gradient-9);}.cls-40{fill:url(#linear-gradient-10);}.cls-41{fill:url(#linear-gradient-11);}</style><linearGradient id="linear-gradient" x1="9.34" y1="1.67" x2="41.77" y2="1.67" gradientTransform="matrix(0.94, -0.08, 0.02, 1, 15.58, 17.34)" gradientUnits="userSpaceOnUse"><stop offset="0" stop-color="#575757"/><stop offset="1" stop-color="#c4c4c4"/></linearGradient><linearGradient id="linear-gradient-2" x1="11.43" y1="0.59" x2="39.69" y2="0.59" xlink:href="#linear-gradient"/><linearGradient id="linear-gradient-3" x1="36.64" y1="86.11" x2="30.79" y2="92.28" gradientTransform="matrix(0.99, 0.08, 0, 1.01, 1.34, -20.46)" gradientUnits="userSpaceOnUse"><stop offset="0" stop-color="#fff"/><stop offset="0.55" stop-color="#575757"/><stop offset="1" stop-color="#b0b0b0"/></linearGradient><linearGradient id="linear-gradient-4" x1="11.49" y1="86.09" x2="1.11" y2="92.91" xlink:href="#linear-gradient-3"/><linearGradient id="Новый_образец_градиента_7" x1="23.88" y1="91.14" x2="33.78" y2="89.51" gradientTransform="matrix(0.99, 0.08, 0, 1.01, 1.34, -20.46)" gradientUnits="userSpaceOnUse"><stop offset="0" stop-color="#fff"/><stop offset="1"/></linearGradient><linearGradient id="Новый_образец_градиента_12" x1="30.97" y1="89.52" x2="35.43" y2="89.52" gradientTransform="matrix(0.99, 0.08, 0, 1.01, 1.34, -20.46)" gradientUnits="userSpaceOnUse"><stop offset="0" stop-color="#fff"/><stop offset="1" stop-color="#575757"/></linearGradient><linearGradient id="linear-gradient-5" x1="40.74" y1="88.33" x2="36.71" y2="92.58" gradientTransform="matrix(1.08, 0.14, -0.06, 1.04, -28.97, -28.98)" xlink:href="#linear-gradient-3"/><linearGradient id="Новый_образец_градиента_7-2" x1="33.3" y1="91.57" x2="38.69" y2="90.68" gradientTransform="matrix(1.08, 0.14, -0.06, 1.04, -28.97, -28.98)" xlink:href="#Новый_образец_градиента_7"/><linearGradient id="Новый_образец_градиента_12-2" x1="37.21" y1="90.67" x2="39.54" y2="90.67" gradientTransform="matrix(1.08, 0.14, -0.06, 1.04, -28.97, -28.98)" xlink:href="#Новый_образец_градиента_12"/><linearGradient id="linear-gradient-6" x1="42.46" y1="32.91" x2="47.08" y2="51.72" gradientUnits="userSpaceOnUse"><stop offset="0" stop-color="#575757"/><stop offset="1" stop-color="#dbdbdb"/></linearGradient><linearGradient id="linear-gradient-7" x1="26.46" y1="34.89" x2="30.92" y2="53.07" xlink:href="#linear-gradient-6"/><linearGradient id="linear-gradient-8" x1="53.22" y1="81.94" x2="56.6" y2="83.62" gradientTransform="matrix(1, 0, 0, 1, 0, 0)" xlink:href="#Новый_образец_градиента_12"/><linearGradient id="linear-gradient-9" x1="47.24" y1="80.24" x2="58.12" y2="85.64" gradientTransform="matrix(1, 0, 0, 1, 0, 0)" xlink:href="#Новый_образец_градиента_12"/><linearGradient id="linear-gradient-10" x1="158.46" y1="65.13" x2="160.88" y2="66.33" gradientTransform="matrix(0.94, -0.01, 0.01, 1.06, 19.99, 17.82)" xlink:href="#Новый_образец_градиента_12"/><linearGradient id="linear-gradient-11" x1="154.2" y1="63.92" x2="161.94" y2="67.76" gradientTransform="matrix(0.94, -0.01, 0.01, 1.06, 19.99, 17.82)" xlink:href="#Новый_образец_градиента_12"/></defs><title>Ресурс 1</title><g id="Слой_2" data-name="Слой 2"><g id="Слой_2-2" data-name="Слой 2"><polygon points="390.32 95.06 8.16 95.06 0 99.72 396.85 99.72 390.32 95.06"/><path class="cls-1" d="M157.57,87.15c0,6.87-4,12.43-8.86,12.43s-8.86-5.56-8.86-12.43c0-7.59,3.25-12.44,8.86-12.44,4.89,0,8.86,5.57,8.86,12.44"/><polyline class="cls-2" points="175.11 19.51 169.77 22.93 169.97 80.09 176.39 80.05 175.11 19.51"/><polygon class="cls-3" points="186.61 34.59 179.59 38.42 179.59 33.2 186.61 34.59"/><polygon class="cls-3" points="186.53 56.79 180.4 58.23 180.6 54.83 186.53 56.79"/><polygon class="cls-2" points="165.36 18.8 165.76 49.7 153.53 37.35 153.73 23.52 165.36 18.8"/><path class="cls-2" d="M157.54,51.49c0,.6-.4,28.07-.4,28.07l13.83.35L159.74,50.15Z"/><polygon class="cls-2" points="153.12 14.88 143.9 19.06 143.9 79.42 153.73 79.67 153.12 14.88"/><polygon class="cls-2" points="140.89 14.17 126.65 18.42 126.65 76.17 126.65 78.98 142.09 79.37 140.89 14.17"/><polygon class="cls-2" points="119.43 9.61 113.02 15.06 113.42 78.44 120.44 78.62 119.43 9.61"/><polygon class="cls-2" points="106.4 7.47 106.4 43.97 91.96 13.72 106.4 7.47"/><polygon class="cls-2" points="113.42 78.44 98.18 46.57 97.37 78.03 113.42 78.44"/><polygon class="cls-2" points="89.35 2.96 79.73 7.65 80.53 67.43 74.51 77.31 90.16 77.91 89.35 2.96"/><rect class="cls-2" x="65.87" y="7.63" width="11.83" height="61.16"/><path class="cls-4" d="M61.09,61.07a28.49,28.49,0,0,0,.1-3.17Q61,39.63,60.76,21.35c0-2-.17-3.88-.39-5.71L64.92.2l-21,4c-5.16,1-12.35,2.44-12.35,2.44C23.43,8.88,19.35,17.91,19.37,25.2v1.48l0,8.46,0,2.6V60.08S36.72,76.53,46.55,77.24l-.13.23H72.29l.25-.18Z"/><path class="cls-5" d="M85.63,20.33q.21,18.72.42,37.44c.22,8.4-2.71,19.44-13,19.38-10.65-.05-19.1-10.08-18.92-20.88,0-13.41-.11-26.69-.15-40.09C54.26,3.75,59.55-1.21,69.8.25,80.64,1.79,85.33,9.43,85.63,20.33ZM77,21.6C77,9,66.34,8.81,66.49,17.39c-.2,12.44,0,27.88.05,41-.41,9.24,10.55,8.56,10.66,1C77.2,46.06,77.14,34.4,77,21.6Z"/><path class="cls-6" d="M86.27,20.33q.21,18.72.42,37.44c.22,8.4-2.71,19.44-13,19.38C63,77.1,54.58,67.07,54.75,56.27c0-13.41-.11-26.69-.14-40.09C54.9,3.75,60.19-1.21,70.44.25,81.28,1.79,86,9.43,86.27,20.33ZM77.66,21.6C77.66,9,67,8.81,67.13,17.39c-.2,12.44,0,27.88.05,41-.42,9.24,10.54,8.56,10.65,1C77.83,46.06,77.78,34.4,77.66,21.6Z"/><path class="cls-5" d="M148.31,79.33h-8l.2-65.17,7.73,1.57Z"/><path class="cls-6" d="M148.79,79.33h-8l.2-65.17,7.73,1.57Z"/><path class="cls-5" d="M113.16,78.43l1.33,0c-.13-24.13-.07-69.59-.07-69.59l-8.19-1.52s-.31,23.65-.18,35.17c-5.5-13-11-26.1-16.54-39.11l-.58-.11c.23,24.65-.2,74.26-.2,74.26l9.25.48c.28-21.71.25-21.71.14-30.8C103.11,57.65,108.18,68,113.16,78.43Z"/><path class="cls-6" d="M113.64,78.43l1.33,0c-.13-24.13-.07-69.59-.07-69.59l-8.19-1.52s-.31,23.65-.18,35.17c-5.5-13-11-26.1-16.54-39.11l-.58-.11c.23,24.65-.2,74.26-.2,74.26l9.25.48c.28-21.71.25-21.71.14-30.8C103.59,57.65,108.66,68,113.64,78.43Z"/><polygon class="cls-5" points="136.93 79.04 136.74 78.66 136.74 65.33 127.76 64.91 127.47 11.14 119.25 9.64 119.43 78.8 136.93 79.04"/><polygon class="cls-6" points="137.57 79.04 137.38 78.66 137.37 65.33 128.4 64.91 128.11 11.14 119.88 9.64 120.07 78.8 137.57 79.04"/><path class="cls-5" d="M171,79.71c.15-21.17.29-60,.29-60l-6-1q-.12,15-.16,30Q158.86,32,153.21,15.09l-.43-.07c-.13,21.31-.21,64.54-.21,64.54l6.5.15s.1-18.22.12-27c3.85,8.92,7.44,17.89,10.73,27Z"/><path class="cls-6" d="M171.48,79.71c.15-21.17.29-60,.29-60l-6-1q-.12,15-.16,30Q159.34,32,153.69,15.09l-.44-.07c-.12,21.31-.2,64.54-.2,64.54l6.5.15s.09-18.22.12-27c3.85,8.92,7.43,17.89,10.73,27Z"/><path class="cls-5" d="M187.22,80.53c.07-3,.24-12.8.13-12.56-2.52-.07-3.81-.1-6.47-.19V56.48l5.42.34c.13.31,0-12-.07-11.72l-5.37-.62V33.92l5.78.86c.12.3.11-13.72,0-13.39-4.33-.69-6.64-1.06-11.54-1.88-.12,20-.11,40-.24,60,0,.1-.05,0-.09.67Z"/><path class="cls-6" d="M187.69,80.53c.08-3,.25-12.8.14-12.56-2.52-.07-3.82-.1-6.47-.19V56.48l5.42.34c.13.31,0-12-.08-11.72l-5.36-.62V33.92l5.78.86c.12.3.11-13.72,0-13.39-4.32-.69-6.63-1.06-11.53-1.88-.12,20-.12,40-.24,60,0,.1-.06,0-.09.67Z"/><polygon points="40.13 76.17 187.29 79.37 187.14 84.88 39.6 85.17 40.13 76.17"/><path class="cls-2" d="M35.33,19.26s0-3.48,0-5.07c0-.36,0-.92-1-.71-3.76.69-6.14,1.09-7.59,1.35a4.55,4.55,0,0,0-1.77,1c-.61.81-.61,1.42-.68,5.14,0,.32,0,.61.58.55,2-.2,5.55-.87,10.1-1.65A.61.61,0,0,0,35.33,19.26Z"/><path class="cls-2" d="M48.12,11c-.5.1-5,.89-10.78,1.88a.61.61,0,0,0-.58.63s0,3.6,0,5.31c0,.38.2.63.55.57,6.14-1,11.73-1.82,12.1-1.89a.69.69,0,0,0,.58-.72s.06-2.42.06-3.54S49.14,10.83,48.12,11Z"/><path class="cls-7" d="M35.59,19.51s0-3.47,0-5.07c0-.35,0-.91-1-.71-3.77.69-6.15,1.09-7.6,1.36a4.56,4.56,0,0,0-1.76,1c-.61.82-.61,1.43-.68,5.15,0,.31,0,.6.57.55,2-.2,5.55-.87,10.1-1.65A.63.63,0,0,0,35.59,19.51Z"/><path class="cls-8" d="M48.38,11.29c-.5.1-5,.88-10.79,1.87a.62.62,0,0,0-.57.63V19.1c0,.38.19.63.55.58,6.13-1,11.72-1.82,12.09-1.9a.68.68,0,0,0,.58-.71s.07-2.42.07-3.54S49.39,11.09,48.38,11.29Z"/><rect class="cls-6" x="58.67" y="84.97" width="129.94" height="2.01"/><path class="cls-9" d="M18.54,96.29c-6.38-.3-7.35-6.13-7.35-13.69s3.29-13.68,7.35-13.68h4.38V96.29Z"/><path class="cls-1" d="M31.81,82.14c0,7.56-3.11,13.68-6.94,13.68s-6.94-6.12-6.94-13.68S21,68.46,24.87,68.46s6.94,6.13,6.94,13.68"/><path class="cls-9" d="M46.06,98.09c-8.63-.3-9.93-6.23-9.93-13.91s4.44-13.92,9.93-13.92H52V98.09Z"/><path class="cls-1" d="M60.81,83.71c0,7.68-3.49,13.91-7.78,13.91s-7.79-6.23-7.79-13.91S48.73,69.79,53,69.79,60.81,76,60.81,83.71"/><polygon class="cls-10" points="57.04 88.97 57.06 88.95 57.05 88.98 57.04 88.97"/><polygon class="cls-11" points="56.19 90.23 56.18 90.26 56.2 90.26 56.19 90.23"/><path class="cls-12" d="M14.23,89.37c4.55.85,10.71.77,13.1,0a3,3,0,0,0,2.09-1.77s1.92.69,6.12-.63c4-1.27,5.09-2.77,5.75-3s1.2.15,2.25-.1a3.4,3.4,0,0,0,2.87-3c.71-3.29,2-6.86,3.82-8.5a5.41,5.41,0,0,1,6.36-.43c1.87,1.24,2.73,2.66,3.51,6a41.39,41.39,0,0,1,.6,8.57l4.1-.16s-.15-8.87,0-9.56l6.56-.08L62.2,69.2s-.38-3.91-2.74-4.92c-1.11-.47-.94-.81-1.23-1.35s.18-7.46-1.7-8.47c-2.45-1.32-11.82-2-14.44-2.21a67.52,67.52,0,0,0-7.38-.58,38.18,38.18,0,0,0-7.62.55c-3.06.64-7.49.72-8.65,5.35-.1.43-8.69,4.62-8.73,5.12,0,.05-1.11,23.37-1.11,23.37S8.57,88.32,14.23,89.37Z"/><path class="cls-13" d="M57.23,63.64l-.41-.12.3-.31v-.27c-.53-.2-1.64-.59-3.84-1.28A32.9,32.9,0,0,0,41.59,60a43.48,43.48,0,0,0-10,1.05s-12.2-1.39-13.87-1.25-6.64,1.46-6.64,1.46A5.83,5.83,0,0,0,10,62.43c-.26.5,1,.12,1.52,0s4.88-1.22,6.09-1.26,5.49.29,8.53.41a38.68,38.68,0,0,1,5.76.68,68.45,68.45,0,0,1,11.26-.52,64.87,64.87,0,0,1,11.51,1.48,21.23,21.23,0,0,1,2.41.72Z"/><path class="cls-12" d="M25.12,53a18.72,18.72,0,0,1-4.57.44s-4.2,1.32-6.06,2A12.94,12.94,0,0,0,10,58.59a12.35,12.35,0,0,0-.46,3.54,1.18,1.18,0,0,0,.3.61c0-.17.73-.58,1.26-.85a38.66,38.66,0,0,1,5.23-1.48l1.34-.25,2,0s6.7.59,8.07.76a19.11,19.11,0,0,0,4.19.32c.94-.18,8.85-1.82,16.09-.42a37,37,0,0,1,11.14,3.68l.87-.65-5.85-4.11c-2.27-3-4.43-3.14-5.66-4.06s-1-2.06-5.52-2.9A55.8,55.8,0,0,0,33,52.12a18.6,18.6,0,0,1-3.11.25Z"/><path class="cls-14" d="M54.75,53.93a49.78,49.78,0,0,0-.68-5.53c0,.93-1,1.56-2.36,1.66-4.25.33-13.78.6-24.67,2.16a26.66,26.66,0,0,0-3.7.79,30.53,30.53,0,0,0-8.48,1.77c-4.24,1.58-4.84,3.75-4.78,3.72a55.72,55.72,0,0,1,7.59-2.29c.94-.1,9,1.5,10.4.47C29,56,32,53.54,41.35,52.78A39.63,39.63,0,0,1,54.75,53.93Z"/><path class="cls-15" d="M23,53.06c-4.1.79-6.61,2.77-6.71,3.65a21.7,21.7,0,0,0,.59,3.6l.54-.1h.4l.1-3.8s-.05-.44.64-1.18C19,54.79,19.69,54,23.15,53Z"/><path class="cls-16" d="M9.84,63.14s0-.07,0-.1a.53.53,0,0,1,0-.13v-.14a4.5,4.5,0,0,0-1.34.52A8.52,8.52,0,0,0,6.07,65.2L6,65.38a7.78,7.78,0,0,0-.8,3C4.92,70.62,4.5,79.2,4.5,79.2a.78.78,0,0,0-.4.67,5.23,5.23,0,0,0,1,2.25,14.55,14.55,0,0,0,3.54,3.32s.83-18,1.13-21.92h0a.41.41,0,0,0,0-.11.07.07,0,0,1,0,0C9.83,63.28,9.84,63.2,9.84,63.14Z"/><path class="cls-16" d="M29.26,87.91s2.31.54,6.28-.94a26.24,26.24,0,0,0,5.6-2.89c0-.93.21-2.24.21-3.26,0-6.26-.93-12.8-5.4-15.61a11.51,11.51,0,0,0-6.35-1.36c-.4,0-.46,1.18-.5,2.35-.26,6.55,0,20.76.08,21.4Z"/><path class="cls-14" d="M60.83,65.58c-.13-.39-1.34-1-1.75-1.3A10.36,10.36,0,0,0,57,63.57a50.2,50.2,0,0,0-10-1.82,65.25,65.25,0,0,0-13.66.13,13.79,13.79,0,0,0-3.28.77,10.85,10.85,0,0,1,4.75-.1A9.52,9.52,0,0,1,40.14,66c.12.14,7-2.12,12.7-1.91C57.84,64.28,59.25,65,60.83,65.58Z"/><path class="cls-17" d="M26,61.64s1.4.61,1.32,1.83c-.09,1.41.1,22.85,0,23.44a1.87,1.87,0,0,1-1.08,1.38,29.23,29.23,0,0,1-8.55.39c-2.7-.31-5.17-.54-7.25-2a3.27,3.27,0,0,1-.93-2.47c.07-1.13.62-18.87.73-19.73a2.42,2.42,0,0,1,.94-2A31.31,31.31,0,0,1,16.46,61a16.35,16.35,0,0,1,4.27,0C23,61.2,26,61.64,26,61.64Z"/><path class="cls-11" d="M26.18,64.39c-.15,1.64.07,20.43.07,21.75,0,1.07-.38,1.41-1.07,1.54a27.07,27.07,0,0,1-5.94.31,1.26,1.26,0,0,1-1-1.31c0-.77-.08-22-.08-22L20,62l5.16,1A1.47,1.47,0,0,1,26.18,64.39Z"/><path class="cls-11" d="M17.08,87.14a1.07,1.07,0,0,1-.62.54,10.49,10.49,0,0,1-5.16-1.39,2.31,2.31,0,0,1-.85-1.93c.05-1,.49-19.31.65-19.86s.22-.84.82-1.12,3.77-1.22,3.77-1.22,1.4,2.47,1.47,2.62S17.27,86.56,17.08,87.14Z"/><path class="cls-17" d="M22.07,56.46a11.87,11.87,0,0,1,3.49.12c2.28.33,3.46,1.12,1.16.76-2.66-.41-4.88-.63-5.76-.7S22,56.41,22.07,56.46Z"/><path class="cls-17" d="M37.81,65.36A3,3,0,0,1,39.89,67c1.37,2.6,1.85,7,1.62,6.21-1.37-4.48-3-6.5-3.8-7.23S37.58,65.25,37.81,65.36Z"/><path class="cls-18" d="M34.88,66.08l-.3,0c-1.86-.15-3.42,2.59-3.49,6.12s1.37,6.58,3.22,6.67C38.8,79,39.46,68,35,66.12Z"/><path class="cls-19" d="M7.19,65.93a.51.51,0,0,0-.17,0c-1-.09-1.92,2-2,4.61s.63,4.87,1.63,4.91c2.45.09,3-8.13.65-9.47Z"/><path class="cls-20" d="M37.38,72.71c.07-3.38-1.29-6.23-3-6.38s-3.2,2.48-3.27,5.85,1.29,6.23,3,6.37S37.31,76.08,37.38,72.71Z"/><path class="cls-18" d="M34.5,66.84c0-.19-.07-.35-.17-.35s-.18.13-.18.32.07.35.16.36S34.49,67,34.5,66.84Z"/><path class="cls-18" d="M31.74,74.76c0-.19-.08-.34-.17-.35s-.18.13-.18.32.07.35.17.36S31.73,75,31.74,74.76Z"/><path class="cls-18" d="M36.73,75.62c0-.19-.08-.35-.17-.36s-.18.14-.18.33.07.34.16.35S36.72,75.8,36.73,75.62Z"/><path class="cls-21" d="M8.44,70.82c.1-2.52-.58-4.62-1.53-4.7S5.1,68,5,70.53s.58,4.62,1.53,4.7S8.33,73.33,8.44,70.82Z"/><path class="cls-22" d="M36.76,72.56c.05-2.82-1.07-5.2-2.52-5.32s-2.67,2.07-2.72,4.88,1.07,5.2,2.52,5.32S36.7,75.37,36.76,72.56Z"/><path class="cls-23" d="M36.43,72.43c0-2.38-.91-4.39-2.13-4.49s-2.25,1.74-2.3,4.12.91,4.38,2.13,4.48S36.38,74.8,36.43,72.43Z"/><path class="cls-24" d="M35.81,72.38c0-2.07-.79-3.81-1.85-3.9S32,70,32,72.05s.78,3.81,1.84,3.9S35.77,74.44,35.81,72.38Z"/><path class="cls-25" d="M34.75,75.56a2.9,2.9,0,0,0,.62-.94,2,2,0,0,0,0-.33A3.11,3.11,0,0,0,34.75,73a4.72,4.72,0,0,0-2.21-.47c-.31,0-.31.5-.26.92.19,1.66,1.29,2.78,2.18,2.32A2.69,2.69,0,0,0,34.75,75.56Z"/><path class="cls-26" d="M35.81,72.38a5.09,5.09,0,0,0-1-3.46.89.89,0,0,0-1-.25.75.75,0,0,0-.52.76c.05.33,1.31,2.3,1.13,2.4s-1.7-2.07-1.86-1.61-.39,1.82-.2,2a12.77,12.77,0,0,0,2.15.37s.94.8,1.29.76A9.35,9.35,0,0,0,35.81,72.38Z"/><path class="cls-27" d="M35,72.31c0-.48-.19-.89-.43-.91s-.46.35-.47.83.18.89.43.91S35,72.79,35,72.31Z"/><path class="cls-25" d="M33.78,68.9a1.39,1.39,0,0,0-.91.69c-.37.61-.13,1.21.28,1.21C34,70.8,35,68.9,33.78,68.9Z"/><path class="cls-28" d="M7.37,65.88l-.17,0c-1-.18-2.08,1.81-2.28,4.45s.48,5,1.54,5.12c2.56.32,3.45-7.91,1-9.49Z"/><path class="cls-29" d="M8.5,70.93c.2-2.53-.45-4.71-1.44-4.88s-1.95,1.74-2.14,4.26S5.37,75,6.36,75.19,8.31,73.45,8.5,70.93Z"/><path class="cls-28" d="M7.12,66.43c0-.14,0-.26-.08-.27s-.11.1-.12.24,0,.26.08.27S7.11,66.57,7.12,66.43Z"/><path class="cls-28" d="M5.17,72.26c0-.14,0-.25-.08-.27s-.11.1-.12.24,0,.26.08.27S5.16,72.41,5.17,72.26Z"/><path class="cls-28" d="M8,73.08c0-.14,0-.26-.08-.27s-.11.1-.12.24,0,.26.08.27S8,73.22,8,73.08Z"/><path class="cls-30" d="M8.15,70.8c.16-2.11-.37-3.93-1.2-4.07s-1.62,1.45-1.79,3.55.38,3.93,1.2,4.07S8,72.9,8.15,70.8Z"/><path class="cls-31" d="M8,70.69c.14-1.78-.32-3.32-1-3.44s-1.38,1.22-1.51,3,.31,3.32,1,3.44S7.83,72.46,8,70.69Z"/><path class="cls-32" d="M7.62,70.63c.12-1.55-.28-2.88-.88-3s-1.2,1.06-1.31,2.61.27,2.88.88,3S7.5,72.17,7.62,70.63Z"/><path class="cls-33" d="M6.86,73a2.26,2.26,0,0,0,.4-.68V72A2.77,2.77,0,0,0,7,71a2.22,2.22,0,0,0-1.25-.42c-.18,0-.2.36-.19.67,0,1.25.62,2.13,1.15,1.82Z"/><path class="cls-34" d="M7.62,70.63A4.73,4.73,0,0,0,7.19,68c-.23-.3-.39-.31-.59-.22a.57.57,0,0,0-.33.55,18.45,18.45,0,0,1,.53,1.83c-.1.07-.87-1.61-1-1.27a3.69,3.69,0,0,0-.2,1.48,6,6,0,0,0,1.21.35s.51.64.7.62C7.56,71.11,7.6,70.87,7.62,70.63Z"/><path class="cls-35" d="M7.15,70.54c0-.36-.07-.67-.21-.69s-.28.25-.3.61.06.67.2.69S7.12,70.9,7.15,70.54Z"/><path class="cls-33" d="M6.61,68a.84.84,0,0,0-.55.48c-.24.45-.13.91.1.92C6.64,69.38,7.28,68,6.61,68Z"/><path class="cls-9" d="M166.84,96.68c-6.17-.23-6.86-7.16-7.1-10.49-.18-2.47,3.18-10.49,7.1-10.49h4.23v21Z"/><path class="cls-1" d="M176.57,86.69c0,5.79-2.52,10.49-5.64,10.49s-5.64-4.7-5.64-10.49c0-6.4,2.07-10.49,5.64-10.49,3.12,0,5.64,4.7,5.64,10.49"/><path class="cls-5" d="M46.09,80a31.54,31.54,0,0,1,1.63-5c.68-1.47,2.08-3.45,3.71-4a5.75,5.75,0,0,1,4.21-.11A7.83,7.83,0,0,1,59,73.72,13.61,13.61,0,0,1,60.14,76a6.35,6.35,0,0,0-1.91-4.38,6.57,6.57,0,0,0-4.55-2.28A7.87,7.87,0,0,0,48.78,71a10.25,10.25,0,0,0-3,4.9c-.44,1.64-.82,4.61-.94,5.13-.79,3.37-3,2.13-2.75,2.25C45.48,84.78,46.09,80,46.09,80Z"/><path class="cls-2" d="M51.81,47.63c-.07.69-.08,1-.89,1.08L37.4,50.1c-.5.06-.64-.3-.59-.94l0-13.47c0-.9.62-1.11,2.12-1.3l11.64-1.5a1,1,0,0,1,1.19.93Z"/><path class="cls-36" d="M52.21,48c-.06.68-.07,1-.88,1.08L37.81,50.5c-.5.07-.64-.29-.59-.93l.05-13.47c0-.9,0-1,1.29-1.26L50.83,33.2c.89,0,1.32.4,1.38,1Z"/><path class="cls-2" d="M35.32,49.54c-.06.48-.23.75-.48.75L22.41,51.58c-.69,0-1,0-1-.74V37.77c0-.76.21-1.25,1.23-1.25L34.06,35a1,1,0,0,1,1.26,1Z"/><path class="cls-37" d="M35.57,49.79c0,.48-.23.76-.48.76L22.66,51.83c-.69,0-1,0-1-.74V38c0-.77.21-1.26,1.22-1.26l11.42-1.5c.75-.12,1.25.24,1.25,1Z"/><path class="cls-6" d="M177.28,85.32a16.52,16.52,0,0,0-1.45-6.53c-1.09-2.6-3.69-5.18-6.59-5.08-8.55.29-8.82,6.82-9.61,11v2.17h3v-.22c0-6.74,3.21-12.2,7.16-12.2S177,80,177,86.69c0,.62,0,1.22-.09,1.82l.37-1.16C177.29,87.09,177.28,85.58,177.28,85.32Z"/><path class="cls-2" d="M169.83,74.49c-4,0-7.16,5.46-7.16,12.2v.22h2.76a46.83,46.83,0,0,1,.52-5.66c.79-3.77,2.9-5.08,4.48-5.22,2.63-.24,6.2,5.12,6.2,10.36,0,.28,0,.55,0,.81l-.39,3.49.69-2.18c.05-.6.09-1.2.09-1.82C177,80,173.79,74.49,169.83,74.49Z"/><path class="cls-5" d="M168.48,74.25c-5.84,1.71-6.53,10-6.43,12.53a9,9,0,0,0,1,0,22,22,0,0,1,1-6.86,8.75,8.75,0,0,1,3.42-4.67,4.65,4.65,0,0,1,5.41.26,4.53,4.53,0,0,0-4.28-1.34C168.58,74.19,168.58,74.22,168.48,74.25Z"/><path class="cls-38" d="M54,82.46a3.39,3.39,0,0,0,.88.17,2.7,2.7,0,0,1,.22-.6,2.84,2.84,0,0,1,.25-.34,4.68,4.68,0,0,0-.2.45,2.25,2.25,0,0,0-.13.49,3.69,3.69,0,0,0-.07.88,2.09,2.09,0,0,0,.48,1.55c.32.3.64,0,.82-.23a2.78,2.78,0,0,0,.36-1.17,3.53,3.53,0,0,0-.2-1.62.9.9,0,0,0-.63-.55.46.46,0,0,0-.36.15.56.56,0,0,1,.46-.28s-.1-.11-.12-.13a1.67,1.67,0,0,0-.62-.42l-.14,0a.79.79,0,0,0-.69.33,2.4,2.4,0,0,0-.49,1.19C53.75,82.38,53.82,82.42,54,82.46Z"/><path class="cls-39" d="M52.49,89.56a7.91,7.91,0,0,1-1.18-3.71A9.66,9.66,0,0,0,52,87.54a8.83,8.83,0,0,0,.5.91c.39.62.58.7.58.7s-1-1.2-1.26-4.7a12.93,12.93,0,0,1,.69-4.78c.41-1.29,1-2.65,2.46-2.9a2.13,2.13,0,0,1,.48.07,1.1,1.1,0,0,0-.58-.23,1.83,1.83,0,0,0-.95.16A2.67,2.67,0,0,0,52.68,78a6,6,0,0,0-.48,1c-.23.71-.46,1.43-.63,2.16,0,.13-.12.58-.16.66s0-.46,0-.5a13.11,13.11,0,0,1,.39-2.55.29.29,0,0,1,0-.09,8,8,0,0,1,.78-1.7,5.61,5.61,0,0,1,1.17-1.35,2,2,0,0,0-1.29.58c-.14.13-.51.49-.56.55l-.21.21s.05.08.09.15c.24.49,0,1.47-.7,1.34,0,0-.12,0-.16,0s-.06.12-.08.16c-.13.36-.24.73-.34,1.1s-.2.79-.27,1.16c0,.06,0,.06.08.09a1.7,1.7,0,0,0,.22.15,1,1,0,0,1,.33.78,1.55,1.55,0,0,1-.15.53,1,1,0,0,1-.73.44l0,1c0,.53,0,1,0,1.59a3.11,3.11,0,0,0,.06.44.68.68,0,0,1,.73.5,5.39,5.39,0,0,1,.15.74.85.85,0,0,1,0,.44.52.52,0,0,1-.33.32l-.1,0a12,12,0,0,0,.41,1.28c.11.27.22.52.34.76l.13,0a3.52,3.52,0,0,1,.43-.13.42.42,0,0,1,.42.12.3.3,0,0,1,.1.24.68.68,0,0,1-.07.32,1.91,1.91,0,0,1-.32.51.25.25,0,0,1,0,.07,3.24,3.24,0,0,0,1.35,1.06l0,0,.14-.23a2.38,2.38,0,0,1,.37-.51.66.66,0,0,1,.29-.21c.07,0,.19,0,.22.13a1.13,1.13,0,0,1,0,.18c0,.23,0,.47,0,.7h0a3.23,3.23,0,0,0,1.09-.63l.15-.09a2.38,2.38,0,0,1-1.7,1,2.28,2.28,0,0,1-.45,0c-1-.16-1.81-1.39-1.9-1.53a1.25,1.25,0,0,1-.08-.12v0a11.75,11.75,0,0,1-.67-1.4c-.15-.39-.3-.88-.42-1.31h0c-.07-.3-.19-.71-.24-1s-.07-.3-.09-.46-.07-.42-.08-.64-.06-.55-.07-.78,0-.42,0-.73v-.66a16.2,16.2,0,0,1,.16-2.09,16.52,16.52,0,0,1,.39-2.25,10.79,10.79,0,0,1,1.09-2.84,5,5,0,0,1,1.08-1.35,2.33,2.33,0,0,1,1.06-.54,1.8,1.8,0,0,1,1.26.23,3.69,3.69,0,0,1,1.41,1.52,7.34,7.34,0,0,1,.84,2.15,2.11,2.11,0,0,0-.54-.63,1.66,1.66,0,0,0-1.66-.21,3.3,3.3,0,0,0-1.27,1.19,7,7,0,0,0-.93,2.68,15.62,15.62,0,0,0-.24,3.27,3.43,3.43,0,0,0,.07.56c.25,1.4.55,3.27,1.94,4a1.83,1.83,0,0,0,2.21-.77,9.67,9.67,0,0,0,1.5-7.19A9.84,9.84,0,0,0,57.48,79a2.64,2.64,0,0,1-.11-.42c0-.19-.11-.46-.19-.74a8.75,8.75,0,0,0-.8-2,5,5,0,0,0-.93-1.23,2.66,2.66,0,0,0-1-.62,2.07,2.07,0,0,0-.74-.1,2.69,2.69,0,0,0-1.83,1,7.17,7.17,0,0,0-1,1.66,13.29,13.29,0,0,0-.9,2.69,18.6,18.6,0,0,0-.34,2c0,.43-.16,2.41-.15,2.82a20.92,20.92,0,0,0,.36,3.45,14.86,14.86,0,0,0,.59,2.13,8.49,8.49,0,0,0,.68,1.46,5,5,0,0,0,1,1.22,2.78,2.78,0,0,0,.62.41,2,2,0,0,0,2.09-.22,4.92,4.92,0,0,0,1.39-1.62,5.23,5.23,0,0,0,.74-1.87c-.12.18-.2.34-.3.49A2.33,2.33,0,0,1,52.49,89.56ZM57.3,80a7.88,7.88,0,0,1,.56,3.55c-.14,2.77-1.3,4.87-2.65,4.82h-.07a1.4,1.4,0,0,1-.88-.49c-.49-.52-1-1.68-1-4.22h0c0-1.62.43-3.76,1.6-4.21a1.09,1.09,0,0,1,.17,0c.46-.09,1.07.1,1.5,1a6.56,6.56,0,0,1,.5,3.45,6,6,0,0,1-.53,2c0,.06-.07.11-.1.16a1.45,1.45,0,0,1-1.83.8,2.61,2.61,0,0,1-1.14-1.91c.19,3.21,1.66,3.32,1.68,3.32h.15c1.28,0,2.28-2,2.41-4.68A7.87,7.87,0,0,0,57.16,80c-.41-.92-.93-1.51-1.69-1.5l.14,0C56.25,78.47,56.87,79,57.3,80Zm-1.12,10.3v0Z"/><path class="cls-40" d="M171.05,85.18c.17,0,.6.17.61.12a2.21,2.21,0,0,1,.15-.44,1,1,0,0,1,.17-.25,2.06,2.06,0,0,0-.13.33,1.93,1.93,0,0,0-.09.37,2.76,2.76,0,0,0,0,.64,1.62,1.62,0,0,0,.35,1.14c.22.23.44,0,.56-.17a2.23,2.23,0,0,0,.24-.87,2.89,2.89,0,0,0-.16-1.2.65.65,0,0,0-.44-.4.34.34,0,0,0-.25.11.86.86,0,0,1,.13-.14.69.69,0,0,1,.19-.07s-.07-.08-.09-.09a1.27,1.27,0,0,0-.43-.31l-.09,0a.54.54,0,0,0-.48.25,2,2,0,0,0-.32.88C170.92,85.13,171,85.16,171.05,85.18Z"/><path class="cls-41" d="M170.12,90.45a6.19,6.19,0,0,1-.84-2.73,6.84,6.84,0,0,0,.46,1.24,6,6,0,0,0,.35.67c.28.46.41.51.41.51s-.72-.87-.92-3.46a10.37,10.37,0,0,1,.43-3.55c.27-.95.67-2,1.67-2.16a1.33,1.33,0,0,1,.33,0,.71.71,0,0,0-.41-.16A1.09,1.09,0,0,0,171,81a1.92,1.92,0,0,0-.81.92,4.57,4.57,0,0,0-.32.75c-.15.53-.31,1.06-.42,1.6a3.15,3.15,0,0,1-.1.5s0-.35,0-.37a11.91,11.91,0,0,1,.24-1.89s0,0,0-.07a5.94,5.94,0,0,1,.52-1.27,4.06,4.06,0,0,1,.79-1,1.33,1.33,0,0,0-.88.44c-.1.09-.35.37-.38.41a1.07,1.07,0,0,0-.14.16s0,0,.06.11c.17.36,0,1.08-.47,1,0,0-.08,0-.11,0s0,.09,0,.12c-.09.27-.16.54-.23.82s-.13.59-.17.86c0,0,0,0,.06.07l.15.1a.78.78,0,0,1,.23.58,1,1,0,0,1-.1.39.64.64,0,0,1-.49.33c0,.26,0,.52,0,.77,0,.4,0,.78,0,1.18a3.06,3.06,0,0,0,0,.32.48.48,0,0,1,.51.36c.06.24.08.37.11.55a.89.89,0,0,1,0,.32.34.34,0,0,1-.23.24l-.06,0a8.79,8.79,0,0,0,.29.95l.24.56.09,0,.3-.11a.28.28,0,0,1,.29.09.36.36,0,0,1,.07.18.59.59,0,0,1-.05.23,1.62,1.62,0,0,1-.21.39l0,0a2.17,2.17,0,0,0,.94.76.05.05,0,0,0,0,0,1.3,1.3,0,0,0,.08-.17,2.12,2.12,0,0,1,.26-.38.41.41,0,0,1,.19-.16.14.14,0,0,1,.15.09.35.35,0,0,1,0,.14c0,.17,0,.34,0,.51h0a2,2,0,0,0,.75-.48l.1-.06a1.62,1.62,0,0,1-1.16.73l-.31,0c-.66-.11-1.26-1-1.32-1.11l-.06-.09v0a7.94,7.94,0,0,1-.48-1,9,9,0,0,1-.3-1h0c-.05-.22-.13-.52-.17-.74s0-.23-.06-.34a3.78,3.78,0,0,1-.06-.47c0-.18,0-.41-.06-.58s0-.31,0-.54,0-.36,0-.49a11.42,11.42,0,0,1,.09-1.55,15.61,15.61,0,0,1,.24-1.67,8.82,8.82,0,0,1,.72-2.1,3.85,3.85,0,0,1,.73-1,1.7,1.7,0,0,1,.73-.42,1.27,1.27,0,0,1,.87.16,2.83,2.83,0,0,1,1,1.12,5.78,5.78,0,0,1,.59,1.58,1.44,1.44,0,0,0-.37-.46,1.07,1.07,0,0,0-1.15-.14,2.3,2.3,0,0,0-.86.89,5.51,5.51,0,0,0-.62,2A12.24,12.24,0,0,0,170,87a1.84,1.84,0,0,0,.05.41c.19,1,.41,2.41,1.38,3,.56.32,1.19-.11,1.51-.59a8.43,8.43,0,0,0,.47-7.16,1.7,1.7,0,0,1-.08-.3c0-.15-.08-.34-.14-.55a6.63,6.63,0,0,0-.57-1.45,3.77,3.77,0,0,0-.65-.9,1.69,1.69,0,0,0-.69-.45,1.28,1.28,0,0,0-.51-.06,1.81,1.81,0,0,0-1.25.78,5.3,5.3,0,0,0-.69,1.24,9.78,9.78,0,0,0-.6,2,14.06,14.06,0,0,0-.21,1.47c0,.32-.09,1.79-.08,2.09a15.56,15.56,0,0,0,.29,2.55,10.37,10.37,0,0,0,.42,1.57,7,7,0,0,0,.49,1.07,3.65,3.65,0,0,0,.69.89,2.08,2.08,0,0,0,.43.3,1.28,1.28,0,0,0,1.44-.19,3.59,3.59,0,0,0,.94-1.2,4.16,4.16,0,0,0,.49-1.39c-.08.13-.14.25-.21.36A1.55,1.55,0,0,1,170.12,90.45Zm3.22-7.14a6.38,6.38,0,0,1,.42,2.62c-.07,2-.85,3.61-1.77,3.59h-.05a.94.94,0,0,1-.62-.36c-.34-.38-.74-1.23-.7-3.11h0c-.06-1.2.25-2.79,1.05-3.13l.12,0c.31-.08.73.06,1,.7a5,5,0,0,1,.37,2.54,4.37,4.37,0,0,1-.34,1.51l-.07.12a1,1,0,0,1-1.24.61,2,2,0,0,1-.81-1.4c.16,2.37,1.18,2.43,1.19,2.44h.1c.88,0,1.55-1.52,1.61-3.48a6.2,6.2,0,0,0-.41-2.57c-.29-.68-.65-1.11-1.18-1.09l.1,0C172.6,82.21,173,82.59,173.34,83.31Zm-.67,7.62h0Z"/><path class="cls-2" d="M44.22,20.85a.42.42,0,0,0-.52-.41s-4,.62-4.46.72a.64.64,0,0,0-.51.54s0,3.14,0,3.36.14.64.63.58L43.72,25a.58.58,0,0,0,.52-.54Z"/><path class="cls-2" d="M37.42,21.38l-9.65,1.53a.6.6,0,0,0-.52.55V27a.46.46,0,0,0,.52.41l9.9-1.48a.64.64,0,0,0,.58-.68c0-.34,0-3.3,0-3.3S38.26,21.21,37.42,21.38Z"/><path class="cls-2" d="M44.21,29.65a.55.55,0,0,1-.52.52L27.77,32.4a.47.47,0,0,1-.53-.42V28.67a.62.62,0,0,1,.52-.57l15.92-2.38a.48.48,0,0,1,.55.52Z"/><path class="cls-42" d="M44.53,21.15a.43.43,0,0,0-.52-.4s-4,.62-4.47.71A.64.64,0,0,0,39,22s0,3.15,0,3.36.14.64.63.58S44,25.28,44,25.28a.58.58,0,0,0,.51-.55Z"/><path class="cls-42" d="M37.73,21.68c-.34.07-9.65,1.54-9.65,1.54a.59.59,0,0,0-.52.55v3.49a.46.46,0,0,0,.52.4L38,26.19a.65.65,0,0,0,.58-.69c0-.34,0-3.3,0-3.3S38.56,21.52,37.73,21.68Z"/><path class="cls-42" d="M44.52,30a.57.57,0,0,1-.53.52L28.07,32.71a.47.47,0,0,1-.52-.43V29a.62.62,0,0,1,.52-.58L44,26a.49.49,0,0,1,.55.53Z"/><path class="cls-43" d="M29.33,28.86a.4.4,0,0,1,.19,0,.46.46,0,0,1,.17.09.4.4,0,0,1,.1.15.41.41,0,0,1,0,.19v.18a.78.78,0,0,1,0,.22,1.08,1.08,0,0,1-.11.18.7.7,0,0,1-.16.14,1.2,1.2,0,0,1-.2.06.84.84,0,0,1,.19,0,.51.51,0,0,1,.16.09.44.44,0,0,1,.1.16.34.34,0,0,1,0,.2c0,.22,0,.32,0,.54a.45.45,0,0,1,0,.2.42.42,0,0,1-.11.18.7.7,0,0,1-.16.13.6.6,0,0,1-.19.06l-.49.07c0-1.08,0-1.72,0-2.8Zm0,1s.08,0,.12-.12a.62.62,0,0,0,0-.25c0-.14,0-.21,0-.35l-.34.05c0,.27,0,.41,0,.69Zm-.2,1.44.34,0c0-.28,0-.42,0-.7a.47.47,0,0,0,0-.25c0-.06-.07-.09-.11-.09l-.17,0C29.13,30.71,29.13,30.93,29.12,31.34Z"/><path class="cls-43" d="M30.13,29.26a.59.59,0,0,1,.15-.39.7.7,0,0,1,.17-.13.66.66,0,0,1,.21-.08l.54-.08v.35l-.72.1c0,.28,0,.43,0,.71l.35,0c0,.15,0,.22,0,.37l-.35.05c0,.43,0,.65,0,1.07l.71-.09v.34l-.54.07a.49.49,0,0,1-.21,0,.42.42,0,0,1-.16-.09.33.33,0,0,1-.11-.15.41.41,0,0,1,0-.19C30.1,30.35,30.12,30,30.13,29.26Z"/><path class="cls-43" d="M31.72,31.34a.46.46,0,0,1-.17-.09.44.44,0,0,1-.12-.15.45.45,0,0,1,0-.2c0-.1,0-.16,0-.26l.36,0V31l.37-.05c0-.35,0-.53,0-.9a.13.13,0,0,0,0-.12.15.15,0,0,0-.13,0,.48.48,0,0,1-.21,0,.4.4,0,0,1-.18-.1.38.38,0,0,1-.11-.16.46.46,0,0,1,0-.21c0-.15,0-.22,0-.37a.54.54,0,0,1,0-.22.57.57,0,0,1,.12-.18.49.49,0,0,1,.18-.14.72.72,0,0,1,.22-.08.5.5,0,0,1,.21,0,.75.75,0,0,1,.18.08.44.44,0,0,1,.12.15.52.52,0,0,1,0,.21v.2l-.38.05c0-.14,0-.21,0-.35l-.38,0c0,.22,0,.32,0,.54a.13.13,0,0,0,.05.12.15.15,0,0,0,.13,0,.54.54,0,0,1,.22,0,.32.32,0,0,1,.17.1.4.4,0,0,1,.12.16.46.46,0,0,1,0,.21c0,.3,0,.45,0,.74a.79.79,0,0,1,0,.22.7.7,0,0,1-.31.31.52.52,0,0,1-.21.07A.79.79,0,0,1,31.72,31.34Z"/><path class="cls-43" d="M33.17,31.1a.25.25,0,0,1-.11-.23c0-.86,0-1.38.07-2.24l-.39.06c0-.14,0-.21,0-.34l1.16-.18v.34l-.39.06c0,1-.07,1.64-.08,2.59A.39.39,0,0,1,33.17,31.1Z"/><path class="cls-43" d="M35.31,30.88a.37.37,0,0,1-.18-.08.34.34,0,0,1-.13-.16.47.47,0,0,1,0-.21,2.35,2.35,0,0,1,0-.26l.39-.05c0,.17,0,.26,0,.43l.4-.05c0-.36,0-.56,0-.94a.17.17,0,0,0,0-.13.17.17,0,0,0-.14,0,.59.59,0,0,1-.23,0,.46.46,0,0,1-.3-.27.51.51,0,0,1,0-.22c0-.16,0-.23,0-.39a.9.9,0,0,1,.06-.22.64.64,0,0,1,.13-.19.9.9,0,0,1,.19-.15,1.09,1.09,0,0,1,.24-.07.59.59,0,0,1,.23,0,.64.64,0,0,1,.19.08.4.4,0,0,1,.12.16.36.36,0,0,1,0,.21,1.55,1.55,0,0,1,0,.21l-.4.06c0-.16,0-.23,0-.37l-.4.06c0,.21,0,.33,0,.55a.13.13,0,0,0,0,.13.16.16,0,0,0,.14,0,.59.59,0,0,1,.23,0,.4.4,0,0,1,.18.1.52.52,0,0,1,.12.17.56.56,0,0,1,0,.23c0,.31,0,.47,0,.77a.54.54,0,0,1,0,.22.67.67,0,0,1-.14.19.64.64,0,0,1-.19.13.62.62,0,0,1-.23.07A.59.59,0,0,1,35.31,30.88Z"/><path class="cls-43" d="M37.76,28.3l-.4.06c0-.16,0-.23,0-.38L37,28c0,.88-.07,1.44-.1,2.32l.4-.06c0-.31,0-.49,0-.83l.4,0c0,.27,0,.41,0,.67a.59.59,0,0,1-.05.22.85.85,0,0,1-.14.19.64.64,0,0,1-.19.13.67.67,0,0,1-.24.07.59.59,0,0,1-.23,0,.37.37,0,0,1-.18-.08.36.36,0,0,1-.12-.16.46.46,0,0,1,0-.21c0-.76.06-1.21.09-2a.59.59,0,0,1,0-.23.85.85,0,0,1,.14-.19.67.67,0,0,1,.19-.14.63.63,0,0,1,.23-.08h.24a.66.66,0,0,1,.19.09.44.44,0,0,1,.12.15.49.49,0,0,1,0,.21A1.62,1.62,0,0,0,37.76,28.3Z"/><path class="cls-43" d="M38.66,27.43c0,.41,0,.65,0,1.14l.4-.06c0-.49,0-.73,0-1.14l.4-.06c0,1.1-.11,2-.14,3.09l-.39.05c0-.55,0-.89.07-1.54l-.4.06c0,.64-.05,1-.07,1.53l-.4.05c0-1.1.1-2,.14-3.06Z"/><path class="cls-43" d="M40.79,29.91a1.27,1.27,0,0,1-.13.19,1.33,1.33,0,0,1-.19.14l-.24.07a.53.53,0,0,1-.22,0,.48.48,0,0,1-.19-.09.33.33,0,0,1-.11-.15.54.54,0,0,1,0-.22c0-.78.06-1.26.1-2a.59.59,0,0,1,0-.23.53.53,0,0,1,.13-.2.67.67,0,0,1,.19-.14.56.56,0,0,1,.23-.07.54.54,0,0,1,.22,0,.51.51,0,0,1,.18.09.4.4,0,0,1,.12.16.51.51,0,0,1,0,.22c0,.79-.06,1.28-.09,2.06A.59.59,0,0,1,40.79,29.91Zm-.74,0,.39-.05c0-.9.08-1.5.11-2.4l-.39.06C40.13,28.46,40.09,29.06,40.05,30Z"/><path class="cls-43" d="M42.26,29.73a.8.8,0,0,1-.13.19.59.59,0,0,1-.18.13.62.62,0,0,1-.23.07.54.54,0,0,1-.22,0,.51.51,0,0,1-.18-.09.48.48,0,0,1-.12-.16.41.41,0,0,1,0-.22c0-.79,0-1.28.08-2.07a.59.59,0,0,1,0-.23.63.63,0,0,1,.13-.2.59.59,0,0,1,.18-.13.58.58,0,0,1,.22-.08.54.54,0,0,1,.22,0,.46.46,0,0,1,.17.09.48.48,0,0,1,.12.16.53.53,0,0,1,0,.22c0,.8,0,1.3-.06,2.09A.86.86,0,0,1,42.26,29.73Zm-.72,0,.38,0c0-.9.06-1.52.09-2.43l-.38.06C41.6,28.25,41.57,28.86,41.54,29.76Z"/><path class="cls-43" d="M43,29.9a.51.51,0,0,1-.18-.09.61.61,0,0,1-.12-.16.54.54,0,0,1,0-.22c0-1,.06-1.71.07-2.6l.36,0c0,1,0,1.74-.06,2.8l.73-.09v.36l-.55.06A.49.49,0,0,1,43,29.9Z"/><path class="cls-43" d="M28.74,26.42a.6.6,0,0,1-.15-.09.39.39,0,0,1-.1-.14.47.47,0,0,1,0-.17v-.2l.31-.05v.34l.31-.05c0-.3,0-.43,0-.69a.11.11,0,0,0-.05-.09.17.17,0,0,0-.1,0,.6.6,0,0,1-.19,0l-.15-.06a.4.4,0,0,1-.1-.12.33.33,0,0,1,0-.15v-.3a.46.46,0,0,1,0-.19,1,1,0,0,1,.1-.17.93.93,0,0,1,.15-.13.44.44,0,0,1,.19-.07.32.32,0,0,1,.17,0,.46.46,0,0,1,.15.09.34.34,0,0,1,.09.14.33.33,0,0,1,0,.17c0,.07,0,.1,0,.16l-.3.05c0-.11,0-.17,0-.29l-.31.05c0,.18,0,.26,0,.43s0,.06,0,.09a.13.13,0,0,0,.11,0,.55.55,0,0,1,.18,0,.35.35,0,0,1,.14.06.27.27,0,0,1,.09.12.24.24,0,0,1,0,.15c0,.22,0,.33,0,.56a.58.58,0,0,1,0,.19.86.86,0,0,1-.1.16.47.47,0,0,1-.15.13.36.36,0,0,1-.17.07A.59.59,0,0,1,28.74,26.42Z"/><path class="cls-43" d="M29.76,26.21a.26.26,0,0,1-.09-.21c0-.87,0-1.08,0-2l.29,0c0,1.09,0,1.27,0,2.35A.23.23,0,0,1,29.76,26.21Z"/><path class="cls-43" d="M30.84,23.78l.27,0c0,1.08,0,1.29,0,2.34l-.23,0c-.12-.56-.18-.77-.3-1.23,0,.48,0,.69,0,1.28l-.28,0c0-1.06,0-1.25,0-2.33l.24,0c.12.58.18.78.3,1.25C30.84,24.6,30.84,24.38,30.84,23.78Z"/><path class="cls-43" d="M32.12,24.19l-.26,0c0-.12,0-.18,0-.3l-.27,0c0,.74,0,1,0,1.71l.26,0c0-.26,0-.38,0-.62l.26,0c0,.19,0,.28,0,.48a.57.57,0,0,1,0,.18.6.6,0,0,1-.08.16.49.49,0,0,1-.13.12.25.25,0,0,1-.16.06.29.29,0,0,1-.27-.09.34.34,0,0,1-.09-.14.47.47,0,0,1,0-.17c0-.6,0-.82,0-1.43a.58.58,0,0,1,0-.19.56.56,0,0,1,.09-.17.49.49,0,0,1,.12-.13.44.44,0,0,1,.16-.06.26.26,0,0,1,.15,0,.38.38,0,0,1,.13.09.64.64,0,0,1,.08.14.52.52,0,0,1,0,.18A.81.81,0,0,1,32.12,24.19Z"/><path class="cls-43" d="M32.35,24a.57.57,0,0,1,0-.18.89.89,0,0,1,.08-.17l.12-.13a.44.44,0,0,1,.16-.06l.39-.06v.32l-.52.09c0,.24,0,.36,0,.59l.26-.05v.28l-.26,0c0,.34,0,.49,0,.85l.52-.08c0,.12,0,.18,0,.31l-.39.06a.38.38,0,0,1-.15,0,.47.47,0,0,1-.12-.09.41.41,0,0,1-.08-.13.45.45,0,0,1,0-.16C32.34,24.84,32.34,24.61,32.35,24Z"/><path class="cls-43" d="M33.92,25.64c0-.43,0-.62,0-1a.51.51,0,0,1,0-.17.42.42,0,0,1,.09-.14.32.32,0,0,1,.12-.11.44.44,0,0,1,.16-.06.21.21,0,0,0,.1-.06.15.15,0,0,0,0-.11v-.48l-.27,0v.31l-.27,0a1,1,0,0,0,0-.18.57.57,0,0,1,0-.18.56.56,0,0,1,.09-.17.49.49,0,0,1,.12-.13.44.44,0,0,1,.16-.06.29.29,0,0,1,.16,0,.38.38,0,0,1,.13.09.32.32,0,0,1,.08.14.25.25,0,0,1,0,.17V24a.47.47,0,0,1,0,.17.38.38,0,0,1-.09.15.45.45,0,0,1-.13.11.44.44,0,0,1-.16.06.15.15,0,0,0-.09.06.14.14,0,0,0-.05.1v.69l.54-.08v.3Z"/><path class="cls-43" d="M35.8,25.1a.86.86,0,0,1-.1.16l-.14.11a.58.58,0,0,1-.17.06.32.32,0,0,1-.17,0,.27.27,0,0,1-.13-.07.38.38,0,0,1-.09-.13.47.47,0,0,1,0-.17c0-.6,0-.86,0-1.5a.57.57,0,0,1,0-.18.56.56,0,0,1,.09-.17.57.57,0,0,1,.14-.13A.33.33,0,0,1,35.4,23a.47.47,0,0,1,.17,0,.34.34,0,0,1,.14.09.28.28,0,0,1,.09.14.47.47,0,0,1,0,.17c0,.65,0,.91,0,1.52A.47.47,0,0,1,35.8,25.1Zm-.55,0,.29-.05V23.33l-.28.05C35.25,24.14,35.26,24.43,35.25,25.14Z"/><path class="cls-43" d="M36.11,23.47a2.1,2.1,0,0,1-.13-.26l.61-.41c0,1.1,0,1.46,0,2.44l-.31.05c0-.8,0-1.11,0-1.93Z"/><path class="cls-43" d="M37.8,24.83a.66.66,0,0,1-.27.27.76.76,0,0,1-.2.06.44.44,0,0,1-.2,0,.35.35,0,0,1-.15-.07.41.41,0,0,1-.1-.13.31.31,0,0,1,0-.17c0-.6,0-.88,0-1.53a.72.72,0,0,1,0-.19.59.59,0,0,1,.1-.17.61.61,0,0,1,.15-.13.64.64,0,0,1,.19-.08.66.66,0,0,1,.2,0,.8.8,0,0,1,.16.08.76.76,0,0,1,.11.14.39.39,0,0,1,0,.18c0,.66,0,.95,0,1.56A.39.39,0,0,1,37.8,24.83Zm-.64,0,.34,0c0-.71,0-1,0-1.8l-.33.05C37.15,23.84,37.16,24.16,37.16,24.86Z"/><path class="cls-43" d="M39.94,22.42a1.18,1.18,0,0,1,.11-.19.75.75,0,0,1,.17-.14.6.6,0,0,1,.21-.08.67.67,0,0,1,.2,0,.46.46,0,0,1,.17.09.33.33,0,0,1,.11.15.46.46,0,0,1,.05.2v.24a.78.78,0,0,1,0,.21,1.18,1.18,0,0,1-.11.19.7.7,0,0,1-.17.13,1.26,1.26,0,0,1-.21.08.75.75,0,0,1,.2,0,.45.45,0,0,1,.17.08.36.36,0,0,1,.11.16.41.41,0,0,1,.05.19v.53a.78.78,0,0,1,0,.22.76.76,0,0,1-.12.19.79.79,0,0,1-.17.14.68.68,0,0,1-.2.07.5.5,0,0,1-.21,0,.53.53,0,0,1-.17-.08.58.58,0,0,1-.11-.15.45.45,0,0,1,0-.2v-.62l.35-.06v.77l.35-.06V23.8a.54.54,0,0,0-.05-.24c0-.06-.08-.09-.12-.08l-.36.06v-.36l.36-.06s.09-.05.12-.12a.71.71,0,0,0,.05-.26v-.38l-.35.06v.36l-.35.06v-.21A.52.52,0,0,1,39.94,22.42Z"/><path class="cls-43" d="M42.29,24.26a.52.52,0,0,1-.11.19.86.86,0,0,1-.18.14.48.48,0,0,1-.21.07.5.5,0,0,1-.21,0,.56.56,0,0,1-.17-.09.42.42,0,0,1-.11-.15.4.4,0,0,1,0-.2V22.39a.65.65,0,0,1,.15-.4.79.79,0,0,1,.17-.14.49.49,0,0,1,.21-.08.5.5,0,0,1,.21,0,.38.38,0,0,1,.17.08.44.44,0,0,1,.12.15.65.65,0,0,1,0,.2c0,.74,0,1.1,0,1.83A.54.54,0,0,1,42.29,24.26Zm-.68.06.36-.06V22.13l-.36.06Z"/><path class="cls-43" d="M43.68,23.79a.54.54,0,0,1,0,.21.59.59,0,0,1-.11.19.65.65,0,0,1-.18.15.9.9,0,0,1-.21.08l-.19,0v-.36l.19,0a.21.21,0,0,0,.18-.21V23.6l-.18.06a.81.81,0,0,1-.22,0,.51.51,0,0,1-.18-.09.58.58,0,0,1-.11-.15.46.46,0,0,1,0-.2v-1a.52.52,0,0,1,0-.21.72.72,0,0,1,.11-.19.86.86,0,0,1,.18-.14.66.66,0,0,1,.21-.08.74.74,0,0,1,.21,0,.56.56,0,0,1,.17.09.44.44,0,0,1,.12.15.65.65,0,0,1,0,.2C43.66,22.72,43.67,23.07,43.68,23.79ZM42.93,22c0,.54,0,.81,0,1.35l.36-.06c0-.54,0-.81,0-1.35Z"/><path d="M393.87,18.51a3.78,3.78,0,0,1-7.56,0,3.78,3.78,0,1,1,7.56,0Zm-6.94,0a3.16,3.16,0,1,0,6.31,0,3.16,3.16,0,1,0-6.31,0Zm2.83-2.2c.48,0,1.57.08,1.57,1.32a1.16,1.16,0,0,1-1,1.21l1.46,1.84h-.94L389.6,19h-.21v1.73h-.75V16.31Zm-.37,2h.28c.31,0,.91,0,.91-.63S390,17,389.69,17h-.3Z"/><path d="M206.71,43.63h14.16v5.54h-20.5V19.36h6.34Z"/><path d="M243.52,48.45a16.84,16.84,0,0,1-11.76,0,14,14,0,0,1-4.75-3,13.61,13.61,0,0,1-3.16-4.82,17,17,0,0,1-1.15-6.38,17,17,0,0,1,1.15-6.37A13.52,13.52,0,0,1,227,23.07a14,14,0,0,1,4.75-3,17,17,0,0,1,11.76,0,14,14,0,0,1,4.74,3,13.52,13.52,0,0,1,3.16,4.82,17,17,0,0,1,1.15,6.37,17,17,0,0,1-1.15,6.38,13.61,13.61,0,0,1-3.16,4.82A14,14,0,0,1,243.52,48.45Zm-12.1-7.26a9,9,0,0,0,12.44,0,9.58,9.58,0,0,0,2.39-6.93,9.61,9.61,0,0,0-2.39-6.93,9,9,0,0,0-12.44,0,9.57,9.57,0,0,0-2.4,6.93A9.54,9.54,0,0,0,231.42,41.19Z"/><path d="M277,19.36h6.35V49.17h-7L262.92,29.35V49.17h-6.35V19.36h7L277,39.18Z"/><path d="M302,19.36a17.07,17.07,0,0,1,5.93,1,14.75,14.75,0,0,1,4.84,2.91A13.17,13.17,0,0,1,316,28a16.75,16.75,0,0,1,0,12.5,13.13,13.13,0,0,1-3.27,4.72,14.56,14.56,0,0,1-4.84,2.9,16.85,16.85,0,0,1-5.93,1H289.4V19.36Zm0,24.27a9.18,9.18,0,0,0,6.58-2.46,9.06,9.06,0,0,0,2.6-6.91,9,9,0,0,0-2.6-6.9A9.18,9.18,0,0,0,302,24.9h-6.24V43.63Z"/><path d="M341.47,48.45a15.94,15.94,0,0,1-5.87,1.06,16.13,16.13,0,0,1-5.89-1.06,14.15,14.15,0,0,1-4.75-3,13.61,13.61,0,0,1-3.16-4.82,17.21,17.21,0,0,1-1.15-6.38,17.19,17.19,0,0,1,1.15-6.37A13.52,13.52,0,0,1,325,23.07a14.17,14.17,0,0,1,4.75-3A16.33,16.33,0,0,1,335.6,19a16.15,16.15,0,0,1,5.87,1.05,14,14,0,0,1,4.74,3,13.39,13.39,0,0,1,3.16,4.82,17,17,0,0,1,1.15,6.37,17,17,0,0,1-1.15,6.38,13.48,13.48,0,0,1-3.16,4.82A14,14,0,0,1,341.47,48.45Zm-12.1-7.26a9,9,0,0,0,12.44,0,9.58,9.58,0,0,0,2.39-6.93,9.61,9.61,0,0,0-2.39-6.93,9,9,0,0,0-12.44,0A9.57,9.57,0,0,0,327,34.26,9.54,9.54,0,0,0,329.37,41.19Z"/><path d="M375,19.36h6.35V49.17h-7L360.87,29.35V49.17h-6.35V19.36h7L375,39.18Z"/><path d="M219.83,63.38H206.34v6.43h11.09v5H206.34v6.43h13.49v5.28H200.29V58.1h19.54Z"/><path d="M248.52,58.1l-9.13,14.2,9.13,14.21H242L236.1,77.4l-5.84,9.11h-6.57l9.15-14.21-9.15-14.2h6.57l5.84,9.11L242,58.1Z"/><path d="M266.83,58.1a8.23,8.23,0,0,1,6.22,2.7,9.53,9.53,0,0,1,2.54,6.82,9.57,9.57,0,0,1-2.54,6.85,8.24,8.24,0,0,1-6.22,2.68h-8.4v9.36h-6.05V58.1Zm-1.16,14A3.6,3.6,0,0,0,268.44,71a5.15,5.15,0,0,0,0-6.39,3.63,3.63,0,0,0-2.77-1.18h-7.24v8.76Z"/><path d="M304.51,86.51H298.2l-5.46-9.36h-6.57v9.36h-6.05V58.1h14.45a8.23,8.23,0,0,1,6.22,2.7,9.53,9.53,0,0,1,2.54,6.82A10,10,0,0,1,302,72.88a8.49,8.49,0,0,1-3.63,3.4ZM286.17,63.38v8.76h7.24A3.6,3.6,0,0,0,296.18,71a5.15,5.15,0,0,0,0-6.39,3.63,3.63,0,0,0-2.77-1.18Z"/><path d="M327.64,63.38H314.15v6.43h11.1v5h-11.1v6.43h13.49v5.28H308.1V58.1h19.54Z"/><path d="M355.06,66.56H349.2a4,4,0,0,0-1.53-3,6.08,6.08,0,0,0-3.95-1.15,7.09,7.09,0,0,0-3.94,1,3.05,3.05,0,0,0-1.46,2.71,2,2,0,0,0,.4,1.23,3.1,3.1,0,0,0,1,.88,6.74,6.74,0,0,0,1.6.67c.69.22,1.31.39,1.87.51l2.21.45.43.08.37.07.44.09a29.15,29.15,0,0,1,3.87,1.09,10.63,10.63,0,0,1,2.76,1.46A5.41,5.41,0,0,1,355,74.76a7.17,7.17,0,0,1,.57,3,8,8,0,0,1-3,6.66q-3.06,2.43-8.5,2.43-5.7,0-9-2.35a8,8,0,0,1-3.25-6.92h6.1a4,4,0,0,0,1.73,3.17A7.51,7.51,0,0,0,344,81.86a6.59,6.59,0,0,0,3.9-1.06A3.32,3.32,0,0,0,349.36,78a2.1,2.1,0,0,0-.5-1.36,4.15,4.15,0,0,0-1.22-1,11.31,11.31,0,0,0-1.87-.77c-.77-.25-1.49-.45-2.14-.6l-2.36-.54c-.91-.2-1.64-.38-2.18-.53a11.72,11.72,0,0,1-5-2.57,5.73,5.73,0,0,1-1.63-4.27A7.34,7.34,0,0,1,335.52,60q3.06-2.19,8.58-2.19c3.4,0,6,.78,7.93,2.32A8.46,8.46,0,0,1,355.06,66.56Z"/><path d="M382.78,66.56h-5.86a4,4,0,0,0-1.53-3,6.08,6.08,0,0,0-3.95-1.15,7.09,7.09,0,0,0-3.94,1A3.05,3.05,0,0,0,366,66.09a2,2,0,0,0,.39,1.23,3.25,3.25,0,0,0,1,.88,6.74,6.74,0,0,0,1.6.67c.69.22,1.31.39,1.87.51l2.21.45.43.08.37.07.44.09a29.15,29.15,0,0,1,3.87,1.09A10.63,10.63,0,0,1,381,72.62a5.41,5.41,0,0,1,1.77,2.14,7.17,7.17,0,0,1,.57,3,8,8,0,0,1-3,6.66q-3.06,2.43-8.5,2.43-5.7,0-9-2.35a8,8,0,0,1-3.25-6.92h6.1a4,4,0,0,0,1.73,3.17,7.51,7.51,0,0,0,4.38,1.13,6.59,6.59,0,0,0,3.9-1.06A3.34,3.34,0,0,0,377.08,78a2.1,2.1,0,0,0-.5-1.36,4.15,4.15,0,0,0-1.22-1,11.31,11.31,0,0,0-1.87-.77c-.77-.25-1.49-.45-2.14-.6L369,73.71c-.91-.2-1.64-.38-2.18-.53a11.72,11.72,0,0,1-5-2.57,5.73,5.73,0,0,1-1.63-4.27A7.34,7.34,0,0,1,363.24,60q3.06-2.19,8.58-2.19c3.4,0,6,.78,7.93,2.32A8.49,8.49,0,0,1,382.78,66.56Z"/></g></g></svg>