<svg width="25" height="25" viewBox="0 0 25 25" xmlns="http://www.w3.org/2000/svg">
<path fill-rule="evenodd" clip-rule="evenodd" d="M25 12.5C25 19.4036 19.4036 25 12.5 25C5.59644 25 0 19.4036 0 12.5C0 5.59644 5.59644 0 12.5 0C19.4036 0 25 5.59644 25 12.5ZM12.4982 12.7315C14.5584 12.7315 16.2366 11.0532 16.2366 8.99306C16.2366 6.93288 14.5584 5.25464 12.4982 5.25464C10.438 5.25464 8.75977 6.93288 8.75977 8.99306C8.75977 11.0532 10.438 12.7315 12.4982 12.7315ZM12.4982 7.44214C13.3547 7.44214 14.0491 8.13658 14.0491 8.99306C14.0491 9.84955 13.3547 10.544 12.4982 10.544C11.6417 10.544 10.9473 9.84955 10.9473 8.99306C10.9473 8.13658 11.6417 7.44214 12.4982 7.44214ZM14.0152 15.7871C14.779 15.6135 15.5082 15.3125 16.1911 14.8843C16.7003 14.5602 16.8624 13.8889 16.5383 13.3681C16.2142 12.8588 15.5429 12.6968 15.0221 13.0209C13.4943 13.9815 11.5152 13.9815 9.98737 13.0209C9.47812 12.6968 8.79524 12.8472 8.47117 13.3681C8.1471 13.8773 8.29756 14.5602 8.81839 14.8843C9.48969 15.3125 10.2304 15.6135 10.9943 15.7871L8.89941 17.882C8.47117 18.3102 8.47117 19.0047 8.89941 19.4329C9.11932 19.6412 9.3971 19.757 9.67487 19.757C9.95265 19.757 10.242 19.6528 10.4503 19.4329L12.5105 17.3727L14.5707 19.4329C14.9989 19.8611 15.6934 19.8611 16.1216 19.4329C16.5499 19.0047 16.5499 18.3102 16.1216 17.882L14.0152 15.7871Z"/>
</svg>
