<svg width="22" height="19" viewBox="0 0 22 19" fill="none" xmlns="http://www.w3.org/2000/svg">
<path fill-rule="evenodd" clip-rule="evenodd" d="M21 3C21.5 3 22 3.4 22 4V18C22 18.5 21.5 19 21 19H1C0.500001 19 0 18.5 0 18V4C0 3.66667 0.2 3 1 3L4 3L6.8 0H15.2L18 3L21 3ZM13.7111 9.95615C13.7111 11.4534 12.4974 12.6672 11.0001 12.6672C9.50283 12.6672 8.28906 11.4534 8.28906 9.95615C8.28906 8.45889 9.50283 7.24512 11.0001 7.24512C12.4974 7.24512 13.7111 8.45889 13.7111 9.95615ZM15.7111 9.95615C15.7111 12.558 13.6019 14.6672 11.0001 14.6672C8.39826 14.6672 6.28906 12.558 6.28906 9.95615C6.28906 7.35432 8.39826 5.24512 11.0001 5.24512C13.6019 5.24512 15.7111 7.35432 15.7111 9.95615Z" fill="#3CC3E1"/>
</svg>
