<svg width="60" height="63" viewBox="0 0 60 63" fill="none" xmlns="http://www.w3.org/2000/svg">
<path d="M28.3717 61.1274C34.1433 61.3023 39.915 59.8156 44.7247 56.4926C54.6939 49.6715 59.591 36.9914 58.804 25.1857C57.6671 8.83275 43.3255 0.262725 28.0219 1.04977C14.9045 1.66191 5.37253 10.7566 2.04946 23.2619C-1.7983 37.9533 5.11019 54.2189 19.8891 59.4658C22.6 60.4278 25.4858 60.9525 28.3717 61.1274Z" stroke="#FF6072" stroke-width="2" stroke-miterlimit="10" stroke-linecap="round"/>
<path d="M40.4208 27.846L26.061 19.4723C25.022 18.8673 23.766 18.8421 22.7009 19.405C21.6358 19.9679 21 20.993 21 22.1471V38.8182C21 40.5632 22.4863 41.9905 24.3131 42C24.3181 42 24.3231 42 24.328 42C24.8989 42 25.4938 41.8307 26.0494 41.5099C26.4964 41.252 26.6377 40.7 26.365 40.2772C26.0922 39.8543 25.5087 39.7208 25.0619 39.9787C24.802 40.1287 24.5482 40.2063 24.3233 40.2062C23.6341 40.2027 22.8961 39.6441 22.8961 38.8182V22.1472C22.8961 21.6521 23.1688 21.2124 23.6257 20.971C24.0825 20.7295 24.6213 20.7403 25.0664 20.9995L39.4263 29.3732C39.8579 29.6246 40.1049 30.0438 40.1038 30.5233C40.1028 31.0027 39.854 31.4209 39.42 31.6715L29.0377 37.6851C28.5912 37.9437 28.4508 38.4959 28.7242 38.9183C28.9976 39.3407 29.5813 39.4735 30.0278 39.2148L40.4089 33.2019C41.4028 32.6283 41.9976 31.6284 42 30.5268C42.0024 29.4255 41.4118 28.4232 40.4208 27.846Z" fill="#FF6072"/>
</svg>
