<svg width="15" height="15" viewBox="0 0 15 15" fill="none" xmlns="http://www.w3.org/2000/svg">
<g opacity="0.2">
<path d="M7.46667 10.5246C7.09847 10.5246 6.8 10.8549 6.8 11.2623C6.8 11.6697 7.09847 12 7.46667 12C7.83487 12 8.13333 11.6697 8.13333 11.2623C8.13333 10.8549 7.83487 10.5246 7.46667 10.5246ZM8.16643 8.90164V8.85417C8.16643 8.615 8.28987 8.40218 8.4809 8.31192C9.40393 7.87586 10.0002 6.87653 10 5.76599C10 5.75566 9.9998 5.74537 9.9994 5.73515C9.98437 4.22411 8.8688 3 7.49977 3C6.1214 3 5 4.24089 5 5.76617C5 6.17361 5.29847 6.50388 5.66667 6.50388C6.03487 6.50388 6.33333 6.17361 6.33333 5.76617C6.33333 5.05443 6.8566 4.47541 7.49977 4.47541C8.14297 4.47541 8.66623 5.05443 8.66623 5.76617C8.66623 5.77329 8.66633 5.78041 8.6665 5.78749C8.65913 6.2975 8.38247 6.75418 7.9574 6.95498C7.27443 7.27766 6.8331 8.02311 6.8331 8.85417V8.90164C6.8331 9.30907 7.13157 9.63934 7.49977 9.63934C7.86797 9.63934 8.16643 9.30907 8.16643 8.90164Z" fill="#242424"/>
<path d="M12.8033 2.19668C11.3867 0.780147 9.50332 0 7.5 0C5.49668 0 3.61327 0.780147 2.19668 2.19668C0.780147 3.61327 0 5.49668 0 7.5C0 9.50332 0.780147 11.3867 2.19668 12.8033C3.61327 14.2199 5.49668 15 7.5 15C8.87147 15 10.2134 14.6262 11.3807 13.9192C11.6575 13.7515 11.7459 13.3912 11.5783 13.1144C11.4106 12.8376 11.0503 12.7492 10.7735 12.9168C9.78938 13.513 8.6574 13.8281 7.5 13.8281C4.01065 13.8281 1.17188 10.9893 1.17188 7.5C1.17188 4.01065 4.01065 1.17188 7.5 1.17188C10.9893 1.17188 13.8281 4.01065 13.8281 7.5C13.8281 8.74772 13.4571 9.96223 12.7551 11.0122C12.5752 11.2812 12.6475 11.6451 12.9165 11.825C13.1856 12.0048 13.5494 11.9326 13.7293 11.6636C14.5606 10.4201 15 8.98037 15 7.5C15 5.49668 14.2199 3.61327 12.8033 2.19668Z" fill="#242424"/>
</g>
</svg>
