<svg width="25" height="25" viewBox="0 0 25 25" fill="none" xmlns="http://www.w3.org/2000/svg">
<path d="M12.4288 19.9385C8.2935 19.9385 6.40416 17.832 6.40416 16.2869C6.4036 15.9183 6.55488 15.5658 6.8224 15.3122C7.08992 15.0586 7.45006 14.9264 7.8181 14.9467C9.58859 14.9467 9.12547 17.6025 12.4288 17.6025C14.1173 17.6025 15.1091 16.5861 15.1091 15.6312C15.1091 15.0574 14.7812 14.4017 13.6665 14.1394L9.97793 13.209C7.01482 12.4549 6.49842 10.8074 6.49842 9.27871C6.49842 6.10657 9.40006 4.95903 12.1624 4.95903C14.7074 4.95903 17.732 6.36477 17.732 8.26641C17.732 9.08608 17.0476 9.52461 16.2525 9.52461C14.7402 9.52461 14.9943 7.40166 11.9533 7.40166C10.441 7.40166 9.64596 8.11067 9.64596 9.10248C9.64596 10.0943 10.8222 10.4303 11.855 10.6558L14.5763 11.2705C17.5599 11.9426 18.355 13.6926 18.355 15.3689C18.355 17.9467 16.3591 19.9385 12.4247 19.9385H12.4288ZM23.8468 14.4836C23.9649 13.807 24.0239 13.1213 24.023 12.4344C24.0375 8.98408 22.5214 5.70488 19.8835 3.48078C17.2456 1.25668 13.7574 0.316598 10.3591 0.913952C9.31457 0.312571 8.12991 -0.00267656 6.92465 1.71185e-05C4.45072 0.0151298 2.17034 1.34103 0.933381 3.48358C-0.303579 5.62612 -0.311581 8.26394 0.912358 10.414C0.229409 14.1665 1.42573 18.0159 4.11544 20.7203C6.80515 23.4247 10.6479 24.642 14.4042 23.9795C15.4474 24.5804 16.6306 24.8956 17.8345 24.8935C20.3072 24.8775 22.5861 23.5522 23.8228 21.4109C25.0595 19.2697 25.0687 16.6334 23.8468 14.4836Z" fill="white"/>
</svg>
