<svg width="78" height="89" viewBox="0 0 78 89" fill="none" xmlns="http://www.w3.org/2000/svg">
<path d="M76.7985 51.6004C76.4985 69.5004 62.4985 86.8004 41.7985 86.8004C35.9985 86.8004 30.6985 85.5004 26.1985 83.1004C23.8985 81.9004 15.1985 88.5004 13.2985 86.8004C11.4985 85.3004 16.4985 75.5004 14.9985 73.6004C9.69849 66.7004 6.59849 57.9004 6.19849 48.6004C5.39849 31.4004 25.8985 16.4004 41.7985 16.4004C51.6985 16.4004 61.2985 20.7004 67.8985 28.0004C74.1985 35.0004 76.8985 43.4004 76.7985 51.6004Z" stroke-width="2" stroke-miterlimit="10" stroke-linecap="round" stroke-linejoin="round"/>
<path d="M34.3981 39C34.2981 42.5 34.5981 46 35.0981 49.5" stroke-width="2" stroke-miterlimit="10" stroke-linecap="round" stroke-linejoin="round"/>
<path d="M49.8008 38.7002C49.8008 42.2002 49.8008 45.6002 49.8008 49.1002"  stroke-width="2" stroke-miterlimit="10" stroke-linecap="round" stroke-linejoin="round"/>
<path d="M23.8008 56.5004C29.5008 75.2004 62.3008 72.2004 62.3008 54.9004"  stroke-width="2" stroke-miterlimit="10" stroke-linecap="round" stroke-linejoin="round"/>
<path d="M13.3016 15.2C10.2016 10.4 7.20156 5.7 4.10156 1" stroke-width="2" stroke-miterlimit="10" stroke-linecap="round" stroke-linejoin="round"/>
<path d="M1 15.5996C3.7 16.4996 6.3 17.4996 8.9 18.7996" stroke-width="2" stroke-miterlimit="10" stroke-linecap="round" stroke-linejoin="round"/>
<path d="M15.8984 6C16.9984 8.5 17.9984 11 18.6984 13.6" stroke-width="2" stroke-miterlimit="10" stroke-linecap="round" stroke-linejoin="round"/>
</svg>
