<svg width="26" height="24" viewBox="0 0 26 24" xmlns="http://www.w3.org/2000/svg">
<path d="M1.13446 10.9828C3.69203 9.37625 6.54697 8.03544 9.21448 6.68777C13.8036 4.48039 18.411 2.31127 23.0649 0.291848C23.9703 -0.0522422 25.5973 -0.388639 25.7568 1.14158C25.6695 3.30758 25.3102 5.46089 25.0637 7.61421C24.4381 12.3496 23.7149 17.0687 23.0098 21.7884C22.7668 23.3604 21.0399 24.1744 19.9348 23.1683C17.2792 21.1227 14.6031 19.0971 11.9814 17.004C11.1224 16.0088 11.919 14.5798 12.6858 13.8692C14.8731 11.4108 17.1928 9.3226 19.2657 6.73746C19.8249 5.19747 18.1727 6.49524 17.6278 6.89297C14.6334 9.24609 11.7122 11.7429 8.55521 13.811C6.9426 14.8233 5.06307 13.9582 3.45119 13.3933C2.00595 12.7109 -0.111873 12.0233 1.13428 10.983L1.13446 10.9828Z"/>
</svg>
