<svg width="28" height="22" viewBox="0 0 28 22" xmlns="http://www.w3.org/2000/svg">
<path d="M26.7442 2.55928C26.1404 2.81986 25.5136 3.02543 24.8704 3.17426C25.5791 2.51885 26.112 1.69907 26.4126 0.784054C26.4984 0.522831 26.2069 0.296946 25.9645 0.436811C25.0697 0.953323 24.1059 1.3408 23.0998 1.58861C23.0414 1.60299 22.9812 1.61028 22.9208 1.61028C22.7375 1.61028 22.5593 1.54406 22.4192 1.42386C21.3487 0.505679 19.9719 0 18.5425 0C17.924 0 17.2995 0.0938234 16.6863 0.278891C14.7865 0.852342 13.3207 2.37744 12.8608 4.25906C12.6883 4.96484 12.6415 5.67125 12.7218 6.35865C12.7311 6.43764 12.6927 6.49277 12.669 6.51863C12.6275 6.56396 12.5686 6.58995 12.5074 6.58995C12.5006 6.58995 12.4936 6.58962 12.4866 6.58898C8.32808 6.21298 4.57808 4.26319 1.92739 1.09886C1.79222 0.93746 1.53301 0.957256 1.42527 1.1371C0.906202 2.00376 0.631889 2.995 0.631889 4.00365C0.631889 5.54944 1.27003 7.00619 2.37848 8.06816C1.91235 7.96061 1.46119 7.79121 1.0421 7.56468C0.839346 7.45506 0.589881 7.59595 0.587032 7.82164C0.55801 10.118 1.93951 12.1614 4.00905 13.0815C3.96737 13.0825 3.92569 13.0829 3.88395 13.0829C3.5559 13.0829 3.22374 13.0521 2.89682 12.9913C2.66849 12.9488 2.47667 13.1596 2.54757 13.3751C3.2193 15.416 5.025 16.9204 7.18584 17.262C5.39247 18.4336 3.30405 19.0516 1.13042 19.0516L0.452791 19.0512C0.244009 19.0512 0.0674285 19.1837 0.0142225 19.3805C-0.0381884 19.5743 0.058351 19.7788 0.236389 19.8796C2.68572 21.2668 5.47953 22 8.31701 22C10.8007 22 13.124 21.5203 15.2225 20.5743C17.1462 19.7071 18.8461 18.4674 20.275 16.8897C21.6062 15.42 22.6471 13.7234 23.3688 11.847C24.0568 10.0584 24.4204 8.14999 24.4204 6.32795V6.24116C24.4203 5.9486 24.5563 5.67332 24.7935 5.48593C25.6936 4.77467 26.4775 3.93742 27.1232 2.99745C27.2937 2.74925 27.0248 2.43818 26.7442 2.55928Z"/>
</svg>
