<svg width="14" height="15" viewBox="0 0 14 15" fill="none" xmlns="http://www.w3.org/2000/svg">
<path d="M12.8056 14.1728V12.7257C12.7987 11.9579 12.4879 11.2237 11.9404 10.682C11.393 10.1403 10.6529 9.83472 9.88043 9.83132H3.97763C3.59067 9.82615 3.2065 9.89701 2.84717 10.0398C2.48784 10.1827 2.16043 10.3946 1.88375 10.6636C1.60707 10.9325 1.38657 11.2531 1.23491 11.607C1.08325 11.9609 1.00342 12.341 1 12.7257V14.1728" stroke="#242424" stroke-linecap="square" stroke-linejoin="round"/>
<path d="M6.92963 6.93713C7.50557 6.93713 8.06858 6.76738 8.54747 6.44934C9.02635 6.13131 9.3996 5.67927 9.62001 5.1504C9.84041 4.62153 9.89808 4.03957 9.78571 3.47812C9.67335 2.91668 9.39601 2.40095 8.98875 1.99617C8.5815 1.59139 8.06262 1.31573 7.49774 1.20405C6.93286 1.09237 6.34734 1.14969 5.81524 1.36876C5.28313 1.58782 4.82833 1.9588 4.50835 2.43477C4.18837 2.91074 4.01758 3.47034 4.01758 4.04278C4.01758 4.42287 4.0929 4.79924 4.23924 5.1504C4.38559 5.50156 4.60009 5.82063 4.8705 6.08939C5.1409 6.35816 5.46193 6.57135 5.81524 6.71681C6.16854 6.86226 6.54721 6.93713 6.92963 6.93713V6.93713Z" stroke="#242424" stroke-linecap="round" stroke-linejoin="round"/>
</svg>
