<svg width="26" height="27" viewBox="0 0 26 27" fill="none" xmlns="http://www.w3.org/2000/svg">
<path d="M22.9349 2.57118C22.2798 1.96674 19.6326 0.0450292 13.7361 0.0189211C13.7361 0.0189211 6.7827 -0.40039 3.39301 2.70884C1.50611 4.59614 0.842328 7.35766 0.772311 10.7814C0.702294 14.2051 0.611706 20.6213 6.79655 22.3611H6.80248L6.79853 25.0158C6.79853 25.0158 6.75897 26.0906 7.46665 26.3097C8.32268 26.5756 8.82506 25.7587 9.64233 24.8781C10.0909 24.3947 10.7104 23.6847 11.1772 23.142C15.4071 23.498 18.6603 22.6843 19.0298 22.564C19.8838 22.2871 24.7166 21.668 25.5026 15.2522C26.3139 8.63933 25.1102 4.4565 22.9349 2.57118ZM23.6517 14.7779C22.9883 20.1348 19.0685 20.4714 18.3458 20.7032C18.0384 20.8021 15.1812 21.513 11.5882 21.2784C11.5882 21.2784 8.91091 24.5083 8.07466 25.3481C7.94412 25.4794 7.79063 25.5324 7.68818 25.5063C7.54419 25.4711 7.50463 25.3006 7.50621 25.0514C7.50859 24.6954 7.52916 20.6399 7.52916 20.6399C7.52916 20.6399 7.52599 20.6399 7.52916 20.6399C2.29726 19.1874 2.60225 13.7264 2.66159 10.8668C2.72092 8.0072 3.25812 5.66459 4.85387 4.08901C7.72101 1.49205 13.6274 1.88011 13.6274 1.88011C18.6152 1.90187 21.0053 3.40387 21.5595 3.90704C23.3997 5.48263 24.3372 9.25287 23.6517 14.7763V14.7779Z" fill="white"/>
<path fill-rule="evenodd" clip-rule="evenodd" d="M13.8374 8.55439C13.847 8.37047 14.0038 8.22915 14.1878 8.23874C14.8759 8.27464 15.4484 8.48293 15.8561 8.90451C16.2623 9.32448 16.4614 9.91118 16.4964 10.6158C16.5055 10.7997 16.3638 10.9563 16.1798 10.9654C15.9959 10.9745 15.8394 10.8328 15.8302 10.6488C15.8003 10.0457 15.6348 9.63506 15.3767 9.36818C15.1202 9.10291 14.7286 8.93481 14.153 8.90478C13.9691 8.89518 13.8278 8.73831 13.8374 8.55439Z" fill="white"/>
<path fill-rule="evenodd" clip-rule="evenodd" d="M13.332 6.75739C13.3454 6.57371 13.5052 6.4357 13.6889 6.44915C15.0893 6.55163 16.2164 7.03012 17.0375 7.92635L17.0376 7.92648C17.8497 8.81389 18.2357 9.91782 18.2077 11.2127C18.2037 11.3968 18.0512 11.5428 17.8671 11.5389C17.6829 11.5349 17.5369 11.3824 17.5409 11.1982C17.5656 10.0563 17.2298 9.12438 16.5456 8.37674C15.8634 7.6322 14.9099 7.20723 13.6402 7.11431C13.4565 7.10087 13.3185 6.94107 13.332 6.75739Z" fill="white"/>
<path fill-rule="evenodd" clip-rule="evenodd" d="M12.7432 5.0499C12.7445 4.86573 12.8948 4.71748 13.079 4.71876C15.0142 4.73224 16.65 5.3765 17.9634 6.65682C19.2877 7.94786 19.9427 9.70548 19.9593 11.8884C19.9607 12.0726 19.8125 12.223 19.6283 12.2244C19.4442 12.2258 19.2937 12.0777 19.2923 11.8935C19.2768 9.84797 18.6682 8.27536 17.4978 7.13439C16.3164 5.98271 14.8496 5.39805 13.0743 5.38568C12.8901 5.3844 12.7419 5.23407 12.7432 5.0499Z" fill="white"/>
<path d="M14.2366 15.0981C14.2366 15.0981 14.7053 15.1376 14.9577 14.8267L15.4498 14.2076C15.6871 13.9006 16.2599 13.7048 16.8209 14.0173C17.2412 14.2571 17.6493 14.5177 18.0436 14.7982C18.4158 15.0719 19.1781 15.708 19.1805 15.708C19.5436 16.0146 19.6275 16.4648 19.3802 16.9395C19.3802 16.9422 19.3783 16.947 19.3783 16.9494C19.106 17.4214 18.7603 17.8471 18.3541 18.2104C18.3494 18.2128 18.3494 18.2152 18.345 18.2176C17.9922 18.5124 17.6455 18.68 17.305 18.7203C17.2549 18.7291 17.204 18.7323 17.1531 18.7298C17.003 18.7313 16.8536 18.7083 16.7109 18.6618L16.6998 18.6456C16.1753 18.4976 15.2995 18.1274 13.841 17.3228C12.997 16.8626 12.1935 16.3319 11.439 15.7361C11.0609 15.4377 10.7002 15.1178 10.3587 14.778L10.3223 14.7416L10.2859 14.7052L10.2495 14.6685C10.2373 14.6566 10.2254 14.6443 10.2131 14.6321C9.87338 14.2906 9.55349 13.9299 9.25506 13.5517C8.6594 12.7974 8.12862 11.994 7.6684 11.1502C6.8638 9.69131 6.49354 8.8163 6.34559 8.29097L6.32937 8.27989C6.283 8.13712 6.26015 7.98775 6.26173 7.83764C6.25896 7.78682 6.26201 7.73586 6.27083 7.68574C6.31329 7.34607 6.48114 6.99928 6.7744 6.64537C6.77677 6.64102 6.77915 6.64102 6.78152 6.63627C7.14478 6.23014 7.57049 5.88455 8.04262 5.61252C8.04499 5.61252 8.04974 5.61015 8.05251 5.61015C8.5272 5.36291 8.97736 5.44677 9.28354 5.80793C9.28591 5.81031 9.92081 6.57258 10.1934 6.94482C10.4739 7.3395 10.7345 7.74799 10.9742 8.16874C11.2867 8.72927 11.0909 9.30325 10.784 9.5398L10.1649 10.0319C9.85238 10.2843 9.89352 10.753 9.89352 10.753C9.89352 10.753 10.8105 14.2234 14.2366 15.0981Z" fill="white"/>
</svg>
