<svg width="25" height="25" viewBox="0 0 25 25" xmlns="http://www.w3.org/2000/svg">
<path fill-rule="evenodd" clip-rule="evenodd" d="M16.3373 0H8.66267C1.65843 0 0 1.65843 0 8.66267V16.3373C0 23.3416 1.65843 25 8.66267 25H16.3373C23.3416 25 25 23.3416 25 16.3373V8.66267C25 1.65843 23.3239 0 16.3373 0ZM20.1835 17.837H18.3663C17.6782 17.837 17.4665 17.29 16.2315 16.0374C15.1553 14.9965 14.6789 14.8553 14.4143 14.8553C14.0438 14.8553 13.9379 14.9612 13.9379 15.4728V17.1136C13.9379 17.5547 13.7968 17.8193 12.6323 17.8193C10.7092 17.8193 8.57445 16.6549 7.07481 14.4848C4.81651 11.3091 4.19901 8.92731 4.19901 8.43331C4.19901 8.16866 4.30487 7.92167 4.81651 7.92167H6.63373C7.09245 7.92167 7.26888 8.13338 7.44531 8.62738C8.34509 11.2209 9.84474 13.4968 10.4622 13.4968C10.6916 13.4968 10.7975 13.391 10.7975 12.8088V10.127C10.7269 8.89202 10.0741 8.78617 10.0741 8.34509C10.0741 8.13338 10.2505 7.92167 10.5328 7.92167H13.391C13.7791 7.92167 13.9203 8.13338 13.9203 8.59209V12.2089C13.9203 12.597 14.0967 12.7382 14.2025 12.7382C14.4319 12.7382 14.626 12.597 15.0494 12.1736C16.355 10.7092 17.29 8.45095 17.29 8.45095C17.4135 8.18631 17.6253 7.93931 18.084 7.93931H19.9012C20.4481 7.93931 20.5716 8.22159 20.4481 8.60974C20.2188 9.66831 17.9958 12.8088 17.9958 12.8088C17.8017 13.1263 17.7311 13.2675 17.9958 13.6203C18.1898 13.885 18.825 14.4319 19.2484 14.9259C20.0247 15.808 20.6246 16.549 20.7833 17.0607C20.9598 17.5723 20.6951 17.837 20.1835 17.837Z"/>
</svg>
