<svg width="36" height="25" viewBox="0 0 36 25" xmlns="http://www.w3.org/2000/svg">
<path d="M34.9706 3.91176C34.5588 2.38235 33.3529 1.17647 31.8235 0.764706C29.0294 0 17.8529 0 17.8529 0C17.8529 0 6.67647 0 3.88235 0.735294C2.38235 1.14706 1.14706 2.38235 0.735294 3.91176C0 6.70588 0 12.5 0 12.5C0 12.5 0 18.3235 0.735294 21.0882C1.14706 22.6176 2.35294 23.8235 3.88235 24.2353C6.70588 25 17.8529 25 17.8529 25C17.8529 25 29.0294 25 31.8235 24.2647C33.3529 23.8529 34.5588 22.6471 34.9706 21.1176C35.7059 18.3235 35.7059 12.5294 35.7059 12.5294C35.7059 12.5294 35.7353 6.70588 34.9706 3.91176ZM14.2941 17.8529V7.14706L23.5882 12.5L14.2941 17.8529Z"/>
</svg>
